<?xml version="1.0" encoding="UTF-8" standalone="no"?>
<!DOCTYPE svg PUBLIC "-//W3C//DTD SVG 1.1//EN"
 "http://www.w3.org/Graphics/SVG/1.1/DTD/svg11.dtd">
<!-- Generated by graphviz version 2.40.1 (0)
 -->
<!-- Title: snakemake_dag Pages: 1 -->
<svg width="1549pt" height="2132pt"
 viewBox="0.00 0.00 1549.00 2132.00" xmlns="http://www.w3.org/2000/svg" xmlns:xlink="http://www.w3.org/1999/xlink">
<g id="graph0" class="graph" transform="scale(1 1) rotate(0) translate(4 2128)">
<title>snakemake_dag</title>
<polygon fill="#ffffff" stroke="transparent" points="-4,4 -4,-2128 1545,-2128 1545,4 -4,4"/>
<!-- 0 -->
<g id="node1" class="node">
<title>0</title>
<path fill="none" stroke="#d88556" stroke-width="2" d="M417.5,-36C417.5,-36 387.5,-36 387.5,-36 381.5,-36 375.5,-30 375.5,-24 375.5,-24 375.5,-12 375.5,-12 375.5,-6 381.5,0 387.5,0 387.5,0 417.5,0 417.5,0 423.5,0 429.5,-6 429.5,-12 429.5,-12 429.5,-24 429.5,-24 429.5,-30 423.5,-36 417.5,-36"/>
<text text-anchor="middle" x="402.5" y="-15.5" font-family="sans" font-size="10.00" fill="#000000">all</text>
</g>
<!-- 1 -->
<g id="node2" class="node">
<title>1</title>
<path fill="none" stroke="#56d0d8" stroke-width="2" d="M63,-1332C63,-1332 12,-1332 12,-1332 6,-1332 0,-1326 0,-1320 0,-1320 0,-1308 0,-1308 0,-1302 6,-1296 12,-1296 12,-1296 63,-1296 63,-1296 69,-1296 75,-1302 75,-1308 75,-1308 75,-1320 75,-1320 75,-1326 69,-1332 63,-1332"/>
<text text-anchor="middle" x="37.5" y="-1311.5" font-family="sans" font-size="10.00" fill="#000000">merge_bam</text>
</g>
<!-- 1&#45;&gt;0 -->
<g id="edge5" class="edge">
<title>1&#45;&gt;0</title>
<path fill="none" stroke="#c0c0c0" stroke-width="2" d="M35.6352,-1295.8374C32.999,-1268.55 28.5,-1215.3383 28.5,-1170 28.5,-1170 28.5,-1170 28.5,-162 28.5,-116.8741 38.9467,-98.4614 75.5,-72 121.3505,-38.8082 289.8687,-24.7396 365.4229,-20.0051"/>
<polygon fill="#c0c0c0" stroke="#c0c0c0" stroke-width="2" points="365.6745,-23.4964 375.4445,-19.398 365.2511,-16.5092 365.6745,-23.4964"/>
</g>
<!-- 2 -->
<g id="node3" class="node">
<title>2</title>
<path fill="none" stroke="#5692d8" stroke-width="2" d="M199.5,-1692C199.5,-1692 167.5,-1692 167.5,-1692 161.5,-1692 155.5,-1686 155.5,-1680 155.5,-1680 155.5,-1668 155.5,-1668 155.5,-1662 161.5,-1656 167.5,-1656 167.5,-1656 199.5,-1656 199.5,-1656 205.5,-1656 211.5,-1662 211.5,-1668 211.5,-1668 211.5,-1680 211.5,-1680 211.5,-1686 205.5,-1692 199.5,-1692"/>
<text text-anchor="middle" x="183.5" y="-1671.5" font-family="sans" font-size="10.00" fill="#000000">Mutect2</text>
</g>
<!-- 2&#45;&gt;1 -->
<g id="edge13" class="edge">
<title>2&#45;&gt;1</title>
<path fill="none" stroke="#c0c0c0" stroke-width="2" d="M162.7471,-1655.6575C152.7534,-1645.9018 141.2808,-1633.2109 133.5,-1620 78.4189,-1526.4783 51.5587,-1397.9543 41.8787,-1341.9619"/>
<polygon fill="#c0c0c0" stroke="#c0c0c0" stroke-width="2" points="45.3252,-1341.3513 40.2182,-1332.0685 38.4218,-1342.51 45.3252,-1341.3513"/>
</g>
<!-- 24 -->
<g id="node25" class="node">
<title>24</title>
<path fill="none" stroke="#56c9d8" stroke-width="2" d="M198.5,-1620C198.5,-1620 154.5,-1620 154.5,-1620 148.5,-1620 142.5,-1614 142.5,-1608 142.5,-1608 142.5,-1596 142.5,-1596 142.5,-1590 148.5,-1584 154.5,-1584 154.5,-1584 198.5,-1584 198.5,-1584 204.5,-1584 210.5,-1590 210.5,-1596 210.5,-1596 210.5,-1608 210.5,-1608 210.5,-1614 204.5,-1620 198.5,-1620"/>
<text text-anchor="middle" x="176.5" y="-1599.5" font-family="sans" font-size="10.00" fill="#000000">merge_vcf</text>
</g>
<!-- 2&#45;&gt;24 -->
<g id="edge51" class="edge">
<title>2&#45;&gt;24</title>
<path fill="none" stroke="#c0c0c0" stroke-width="2" d="M181.7336,-1655.8314C180.985,-1648.131 180.0947,-1638.9743 179.2627,-1630.4166"/>
<polygon fill="#c0c0c0" stroke="#c0c0c0" stroke-width="2" points="182.7415,-1630.0276 178.2902,-1620.4133 175.7744,-1630.7051 182.7415,-1630.0276"/>
</g>
<!-- 25 -->
<g id="node26" class="node">
<title>25</title>
<path fill="none" stroke="#5673d8" stroke-width="2" d="M294,-1620C294,-1620 241,-1620 241,-1620 235,-1620 229,-1614 229,-1608 229,-1608 229,-1596 229,-1596 229,-1590 235,-1584 241,-1584 241,-1584 294,-1584 294,-1584 300,-1584 306,-1590 306,-1596 306,-1596 306,-1608 306,-1608 306,-1614 300,-1620 294,-1620"/>
<text text-anchor="middle" x="267.5" y="-1599.5" font-family="sans" font-size="10.00" fill="#000000">merge_stats</text>
</g>
<!-- 2&#45;&gt;25 -->
<g id="edge52" class="edge">
<title>2&#45;&gt;25</title>
<path fill="none" stroke="#c0c0c0" stroke-width="2" d="M204.6967,-1655.8314C214.9434,-1647.0485 227.4003,-1636.3712 238.5097,-1626.8489"/>
<polygon fill="#c0c0c0" stroke="#c0c0c0" stroke-width="2" points="240.9952,-1629.3282 246.31,-1620.1628 236.4397,-1624.0134 240.9952,-1629.3282"/>
</g>
<!-- 3 -->
<g id="node4" class="node">
<title>3</title>
<path fill="none" stroke="#d87d56" stroke-width="2" d="M300,-1764C300,-1764 259,-1764 259,-1764 253,-1764 247,-1758 247,-1752 247,-1752 247,-1740 247,-1740 247,-1734 253,-1728 259,-1728 259,-1728 300,-1728 300,-1728 306,-1728 312,-1734 312,-1740 312,-1740 312,-1752 312,-1752 312,-1758 306,-1764 300,-1764"/>
<text text-anchor="middle" x="279.5" y="-1743.5" font-family="sans" font-size="10.00" fill="#000000">Split_bam</text>
</g>
<!-- 3&#45;&gt;2 -->
<g id="edge15" class="edge">
<title>3&#45;&gt;2</title>
<path fill="none" stroke="#c0c0c0" stroke-width="2" d="M255.2751,-1727.8314C243.3372,-1718.8779 228.7744,-1707.9558 215.894,-1698.2955"/>
<polygon fill="#c0c0c0" stroke="#c0c0c0" stroke-width="2" points="217.8171,-1695.3629 207.7171,-1692.1628 213.6171,-1700.9629 217.8171,-1695.3629"/>
</g>
<!-- 4 -->
<g id="node5" class="node">
<title>4</title>
<path fill="none" stroke="#d89c56" stroke-width="2" d="M908.5,-1908C908.5,-1908 838.5,-1908 838.5,-1908 832.5,-1908 826.5,-1902 826.5,-1896 826.5,-1896 826.5,-1884 826.5,-1884 826.5,-1878 832.5,-1872 838.5,-1872 838.5,-1872 908.5,-1872 908.5,-1872 914.5,-1872 920.5,-1878 920.5,-1884 920.5,-1884 920.5,-1896 920.5,-1896 920.5,-1902 914.5,-1908 908.5,-1908"/>
<text text-anchor="middle" x="873.5" y="-1887.5" font-family="sans" font-size="10.00" fill="#000000">markDuplicates</text>
</g>
<!-- 4&#45;&gt;0 -->
<g id="edge10" class="edge">
<title>4&#45;&gt;0</title>
<path fill="none" stroke="#c0c0c0" stroke-width="2" d="M920.8456,-1887.5156C1018.674,-1881.835 1239.7086,-1866.0144 1308.5,-1836 1365.456,-1811.1495 1415.5,-1808.1412 1415.5,-1746 1415.5,-1746 1415.5,-1746 1415.5,-162 1415.5,-34.2433 1267.8194,-96.8361 1142.5,-72 1005.6187,-44.8726 570.3928,-24.984 439.8586,-19.5119"/>
<polygon fill="#c0c0c0" stroke="#c0c0c0" stroke-width="2" points="439.7223,-16.0033 429.5855,-19.0848 439.4314,-22.9973 439.7223,-16.0033"/>
</g>
<!-- 4&#45;&gt;3 -->
<g id="edge17" class="edge">
<title>4&#45;&gt;3</title>
<path fill="none" stroke="#c0c0c0" stroke-width="2" d="M826.457,-1887.9029C701.4158,-1881.9746 367.5243,-1863.7043 326.5,-1836 305.3803,-1821.7375 293.125,-1794.8802 286.4578,-1774.2025"/>
<polygon fill="#c0c0c0" stroke="#c0c0c0" stroke-width="2" points="289.7339,-1772.9384 283.5412,-1764.3418 283.0213,-1774.9238 289.7339,-1772.9384"/>
</g>
<!-- 8 -->
<g id="node9" class="node">
<title>8</title>
<path fill="none" stroke="#569ad8" stroke-width="2" d="M587,-1836C587,-1836 482,-1836 482,-1836 476,-1836 470,-1830 470,-1824 470,-1824 470,-1812 470,-1812 470,-1806 476,-1800 482,-1800 482,-1800 587,-1800 587,-1800 593,-1800 599,-1806 599,-1812 599,-1812 599,-1824 599,-1824 599,-1830 593,-1836 587,-1836"/>
<text text-anchor="middle" x="534.5" y="-1815.5" font-family="sans" font-size="10.00" fill="#000000">samtools_index_dedup</text>
</g>
<!-- 4&#45;&gt;8 -->
<g id="edge22" class="edge">
<title>4&#45;&gt;8</title>
<path fill="none" stroke="#c0c0c0" stroke-width="2" d="M826.4726,-1880.5161C774.3511,-1869.939 687.8269,-1852.1846 613.5,-1836 612.0396,-1835.682 610.5644,-1835.3594 609.078,-1835.0331"/>
<polygon fill="#c0c0c0" stroke="#c0c0c0" stroke-width="2" points="609.6667,-1831.5788 599.1467,-1832.8361 608.1546,-1838.4135 609.6667,-1831.5788"/>
</g>
<!-- 27 -->
<g id="node28" class="node">
<title>27</title>
<path fill="none" stroke="#d85e56" stroke-width="2" d="M410.5,-1764C410.5,-1764 380.5,-1764 380.5,-1764 374.5,-1764 368.5,-1758 368.5,-1752 368.5,-1752 368.5,-1740 368.5,-1740 368.5,-1734 374.5,-1728 380.5,-1728 380.5,-1728 410.5,-1728 410.5,-1728 416.5,-1728 422.5,-1734 422.5,-1740 422.5,-1740 422.5,-1752 422.5,-1752 422.5,-1758 416.5,-1764 410.5,-1764"/>
<text text-anchor="middle" x="395.5" y="-1743.5" font-family="sans" font-size="10.00" fill="#000000">vardict</text>
</g>
<!-- 4&#45;&gt;27 -->
<g id="edge55" class="edge">
<title>4&#45;&gt;27</title>
<path fill="none" stroke="#c0c0c0" stroke-width="2" d="M826.1655,-1889.2026C728.5162,-1886.7355 508.7385,-1876.6913 447.5,-1836 425.6713,-1821.4954 411.874,-1794.4815 404.0209,-1773.8202"/>
<polygon fill="#c0c0c0" stroke="#c0c0c0" stroke-width="2" points="407.2754,-1772.5254 400.6342,-1764.2704 400.678,-1774.8652 407.2754,-1772.5254"/>
</g>
<!-- 30 -->
<g id="node31" class="node">
<title>30</title>
<path fill="none" stroke="#56d882" stroke-width="2" d="M355.5,-1548C355.5,-1548 325.5,-1548 325.5,-1548 319.5,-1548 313.5,-1542 313.5,-1536 313.5,-1536 313.5,-1524 313.5,-1524 313.5,-1518 319.5,-1512 325.5,-1512 325.5,-1512 355.5,-1512 355.5,-1512 361.5,-1512 367.5,-1518 367.5,-1524 367.5,-1524 367.5,-1536 367.5,-1536 367.5,-1542 361.5,-1548 355.5,-1548"/>
<text text-anchor="middle" x="340.5" y="-1527.5" font-family="sans" font-size="10.00" fill="#000000">pisces</text>
</g>
<!-- 4&#45;&gt;30 -->
<g id="edge60" class="edge">
<title>4&#45;&gt;30</title>
<path fill="none" stroke="#c0c0c0" stroke-width="2" d="M826.1969,-1889.0124C723.1126,-1886.1401 481.817,-1875.2966 411.5,-1836 367.0253,-1811.1454 340.5,-1796.9485 340.5,-1746 340.5,-1746 340.5,-1746 340.5,-1674 340.5,-1633.876 340.5,-1587.4631 340.5,-1558.4177"/>
<polygon fill="#c0c0c0" stroke="#c0c0c0" stroke-width="2" points="344.0001,-1558.1853 340.5,-1548.1854 337.0001,-1558.1854 344.0001,-1558.1853"/>
</g>
<!-- 33 -->
<g id="node34" class="node">
<title>33</title>
<path fill="none" stroke="#56d8a9" stroke-width="2" d="M494,-1764C494,-1764 453,-1764 453,-1764 447,-1764 441,-1758 441,-1752 441,-1752 441,-1740 441,-1740 441,-1734 447,-1728 453,-1728 453,-1728 494,-1728 494,-1728 500,-1728 506,-1734 506,-1740 506,-1740 506,-1752 506,-1752 506,-1758 500,-1764 494,-1764"/>
<text text-anchor="middle" x="473.5" y="-1743.5" font-family="sans" font-size="10.00" fill="#000000">freebayes</text>
</g>
<!-- 4&#45;&gt;33 -->
<g id="edge64" class="edge">
<title>4&#45;&gt;33</title>
<path fill="none" stroke="#c0c0c0" stroke-width="2" d="M826.3959,-1887.2706C723.3731,-1880.8204 485.2902,-1863.1119 461.5,-1836 446.7357,-1819.1742 452.0439,-1793.3215 459.6987,-1773.6341"/>
<polygon fill="#c0c0c0" stroke="#c0c0c0" stroke-width="2" points="462.9942,-1774.8285 463.694,-1764.2568 456.5544,-1772.0847 462.9942,-1774.8285"/>
</g>
<!-- 45 -->
<g id="node46" class="node">
<title>45</title>
<path fill="none" stroke="#56a2d8" stroke-width="2" d="M620,-1764C620,-1764 575,-1764 575,-1764 569,-1764 563,-1758 563,-1752 563,-1752 563,-1740 563,-1740 563,-1734 569,-1728 575,-1728 575,-1728 620,-1728 620,-1728 626,-1728 632,-1734 632,-1740 632,-1740 632,-1752 632,-1752 632,-1758 626,-1764 620,-1764"/>
<text text-anchor="middle" x="597.5" y="-1743.5" font-family="sans" font-size="10.00" fill="#000000">pindelConf</text>
</g>
<!-- 4&#45;&gt;45 -->
<g id="edge77" class="edge">
<title>4&#45;&gt;45</title>
<path fill="none" stroke="#c0c0c0" stroke-width="2" d="M826.3538,-1882.9048C769.7436,-1873.6463 678.9731,-1856.2207 651.5,-1836 630.3126,-1820.4057 615.848,-1793.7756 607.2622,-1773.5172"/>
<polygon fill="#c0c0c0" stroke="#c0c0c0" stroke-width="2" points="610.4822,-1772.1428 603.5159,-1764.1602 603.9837,-1774.7447 610.4822,-1772.1428"/>
</g>
<!-- 49 -->
<g id="node50" class="node">
<title>49</title>
<path fill="none" stroke="#56d89a" stroke-width="2" d="M915,-1764C915,-1764 832,-1764 832,-1764 826,-1764 820,-1758 820,-1752 820,-1752 820,-1740 820,-1740 820,-1734 826,-1728 832,-1728 832,-1728 915,-1728 915,-1728 921,-1728 927,-1734 927,-1740 927,-1740 927,-1752 927,-1752 927,-1758 921,-1764 915,-1764"/>
<text text-anchor="middle" x="873.5" y="-1743.5" font-family="sans" font-size="10.00" fill="#000000">collectReadCounts</text>
</g>
<!-- 4&#45;&gt;49 -->
<g id="edge83" class="edge">
<title>4&#45;&gt;49</title>
<path fill="none" stroke="#c0c0c0" stroke-width="2" d="M873.5,-1871.7623C873.5,-1847.201 873.5,-1803.2474 873.5,-1774.3541"/>
<polygon fill="#c0c0c0" stroke="#c0c0c0" stroke-width="2" points="877.0001,-1774.0896 873.5,-1764.0896 870.0001,-1774.0897 877.0001,-1774.0896"/>
</g>
<!-- 50 -->
<g id="node51" class="node">
<title>50</title>
<path fill="none" stroke="#d88d56" stroke-width="2" d="M790,-1764C790,-1764 701,-1764 701,-1764 695,-1764 689,-1758 689,-1752 689,-1752 689,-1740 689,-1740 689,-1734 695,-1728 701,-1728 701,-1728 790,-1728 790,-1728 796,-1728 802,-1734 802,-1740 802,-1740 802,-1752 802,-1752 802,-1758 796,-1764 790,-1764"/>
<text text-anchor="middle" x="745.5" y="-1743.5" font-family="sans" font-size="10.00" fill="#000000">collectAllelicCounts</text>
</g>
<!-- 4&#45;&gt;50 -->
<g id="edge85" class="edge">
<title>4&#45;&gt;50</title>
<path fill="none" stroke="#c0c0c0" stroke-width="2" d="M857.2887,-1871.7623C834.7832,-1846.4436 793.9606,-1800.5182 768.3667,-1771.7251"/>
<polygon fill="#c0c0c0" stroke="#c0c0c0" stroke-width="2" points="770.8393,-1769.2385 761.5797,-1764.0896 765.6074,-1773.889 770.8393,-1769.2385"/>
</g>
<!-- 52 -->
<g id="node53" class="node">
<title>52</title>
<path fill="none" stroke="#c6d856" stroke-width="2" d="M987.5,-1764C987.5,-1764 957.5,-1764 957.5,-1764 951.5,-1764 945.5,-1758 945.5,-1752 945.5,-1752 945.5,-1740 945.5,-1740 945.5,-1734 951.5,-1728 957.5,-1728 957.5,-1728 987.5,-1728 987.5,-1728 993.5,-1728 999.5,-1734 999.5,-1740 999.5,-1740 999.5,-1752 999.5,-1752 999.5,-1758 993.5,-1764 987.5,-1764"/>
<text text-anchor="middle" x="972.5" y="-1743.5" font-family="sans" font-size="10.00" fill="#000000">cartool</text>
</g>
<!-- 4&#45;&gt;52 -->
<g id="edge89" class="edge">
<title>4&#45;&gt;52</title>
<path fill="none" stroke="#c0c0c0" stroke-width="2" d="M886.0384,-1871.7623C903.2962,-1846.66 934.4801,-1801.3017 954.3039,-1772.4671"/>
<polygon fill="#c0c0c0" stroke="#c0c0c0" stroke-width="2" points="957.2822,-1774.3129 960.0634,-1764.0896 951.5139,-1770.3472 957.2822,-1774.3129"/>
</g>
<!-- 55 -->
<g id="node56" class="node">
<title>55</title>
<path fill="none" stroke="#56d85b" stroke-width="2" d="M590.5,-252C590.5,-252 534.5,-252 534.5,-252 528.5,-252 522.5,-246 522.5,-240 522.5,-240 522.5,-228 522.5,-228 522.5,-222 528.5,-216 534.5,-216 534.5,-216 590.5,-216 590.5,-216 596.5,-216 602.5,-222 602.5,-228 602.5,-228 602.5,-240 602.5,-240 602.5,-246 596.5,-252 590.5,-252"/>
<text text-anchor="middle" x="562.5" y="-231.5" font-family="sans" font-size="10.00" fill="#000000">createBatFile</text>
</g>
<!-- 4&#45;&gt;55 -->
<g id="edge94" class="edge">
<title>4&#45;&gt;55</title>
<path fill="none" stroke="#c0c0c0" stroke-width="2" d="M826.4874,-1871.826C781.8761,-1852.0954 716.4614,-1816.244 680.5,-1764 657.2669,-1730.2474 660.5,-1714.9758 660.5,-1674 660.5,-1674 660.5,-1674 660.5,-450 660.5,-374.906 649.65,-353.2609 612.5,-288 606.6928,-277.7985 598.6138,-267.9642 590.6417,-259.5475"/>
<polygon fill="#c0c0c0" stroke="#c0c0c0" stroke-width="2" points="592.9399,-256.8939 583.4187,-252.2465 587.9636,-261.817 592.9399,-256.8939"/>
</g>
<!-- 62 -->
<g id="node63" class="node">
<title>62</title>
<path fill="none" stroke="#56c1d8" stroke-width="2" d="M1147.5,-1692C1147.5,-1692 1081.5,-1692 1081.5,-1692 1075.5,-1692 1069.5,-1686 1069.5,-1680 1069.5,-1680 1069.5,-1668 1069.5,-1668 1069.5,-1662 1075.5,-1656 1081.5,-1656 1081.5,-1656 1147.5,-1656 1147.5,-1656 1153.5,-1656 1159.5,-1662 1159.5,-1668 1159.5,-1668 1159.5,-1680 1159.5,-1680 1159.5,-1686 1153.5,-1692 1147.5,-1692"/>
<text text-anchor="middle" x="1114.5" y="-1671.5" font-family="sans" font-size="10.00" fill="#000000">getStatsforMqc</text>
</g>
<!-- 4&#45;&gt;62 -->
<g id="edge107" class="edge">
<title>4&#45;&gt;62</title>
<path fill="none" stroke="#c0c0c0" stroke-width="2" d="M895.3702,-1871.8373C907.627,-1861.5139 923.0981,-1848.2412 936.5,-1836 987.3223,-1789.5794 995.9813,-1773.6464 1047.5,-1728 1058.7475,-1718.0345 1071.4999,-1707.5636 1082.8383,-1698.5229"/>
<polygon fill="#c0c0c0" stroke="#c0c0c0" stroke-width="2" points="1085.1329,-1701.1705 1090.8027,-1692.2204 1080.7891,-1695.6813 1085.1329,-1701.1705"/>
</g>
<!-- 63 -->
<g id="node64" class="node">
<title>63</title>
<path fill="none" stroke="#8fd856" stroke-width="2" d="M1337,-1764C1337,-1764 1266,-1764 1266,-1764 1260,-1764 1254,-1758 1254,-1752 1254,-1752 1254,-1740 1254,-1740 1254,-1734 1260,-1728 1266,-1728 1266,-1728 1337,-1728 1337,-1728 1343,-1728 1349,-1734 1349,-1740 1349,-1740 1349,-1752 1349,-1752 1349,-1758 1343,-1764 1337,-1764"/>
<text text-anchor="middle" x="1301.5" y="-1743.5" font-family="sans" font-size="10.00" fill="#000000">picardHsMetrics</text>
</g>
<!-- 4&#45;&gt;63 -->
<g id="edge109" class="edge">
<title>4&#45;&gt;63</title>
<path fill="none" stroke="#c0c0c0" stroke-width="2" d="M920.6544,-1882.3637C969.0916,-1873.8027 1046.2717,-1858.1567 1110.5,-1836 1163.6891,-1817.6514 1221.7596,-1788.9512 1259.7367,-1768.9087"/>
<polygon fill="#c0c0c0" stroke="#c0c0c0" stroke-width="2" points="1261.7588,-1771.7976 1268.9438,-1764.0113 1258.4714,-1765.6175 1261.7588,-1771.7976"/>
</g>
<!-- 64 -->
<g id="node65" class="node">
<title>64</title>
<path fill="none" stroke="#d8d356" stroke-width="2" d="M1224,-1764C1224,-1764 1157,-1764 1157,-1764 1151,-1764 1145,-1758 1145,-1752 1145,-1752 1145,-1740 1145,-1740 1145,-1734 1151,-1728 1157,-1728 1157,-1728 1224,-1728 1224,-1728 1230,-1728 1236,-1734 1236,-1740 1236,-1740 1236,-1752 1236,-1752 1236,-1758 1230,-1764 1224,-1764"/>
<text text-anchor="middle" x="1190.5" y="-1743.5" font-family="sans" font-size="10.00" fill="#000000">samtools_stats</text>
</g>
<!-- 4&#45;&gt;64 -->
<g id="edge110" class="edge">
<title>4&#45;&gt;64</title>
<path fill="none" stroke="#c0c0c0" stroke-width="2" d="M920.5291,-1881.9924C961.1376,-1873.9229 1020.6454,-1859.286 1068.5,-1836 1103.8554,-1818.7961 1139.4917,-1791.0237 1163.0418,-1770.8754"/>
<polygon fill="#c0c0c0" stroke="#c0c0c0" stroke-width="2" points="1165.5922,-1773.2961 1170.8474,-1764.0965 1161.0022,-1768.011 1165.5922,-1773.2961"/>
</g>
<!-- 65 -->
<g id="node66" class="node">
<title>65</title>
<path fill="none" stroke="#59d856" stroke-width="2" d="M1115,-1764C1115,-1764 1068,-1764 1068,-1764 1062,-1764 1056,-1758 1056,-1752 1056,-1752 1056,-1740 1056,-1740 1056,-1734 1062,-1728 1068,-1728 1068,-1728 1115,-1728 1115,-1728 1121,-1728 1127,-1734 1127,-1740 1127,-1740 1127,-1752 1127,-1752 1127,-1758 1121,-1764 1115,-1764"/>
<text text-anchor="middle" x="1091.5" y="-1743.5" font-family="sans" font-size="10.00" fill="#000000">touchBatch</text>
</g>
<!-- 4&#45;&gt;65 -->
<g id="edge111" class="edge">
<title>4&#45;&gt;65</title>
<path fill="none" stroke="#c0c0c0" stroke-width="2" d="M920.7486,-1884.3773C957.1462,-1877.953 1006.9275,-1864.3801 1041.5,-1836 1061.2375,-1819.7977 1074.5171,-1793.6504 1082.3998,-1773.7037"/>
<polygon fill="#c0c0c0" stroke="#c0c0c0" stroke-width="2" points="1085.728,-1774.7954 1085.938,-1764.2026 1079.1681,-1772.3524 1085.728,-1774.7954"/>
</g>
<!-- 66 -->
<g id="node67" class="node">
<title>66</title>
<path fill="none" stroke="#d8bc56" stroke-width="2" d="M1310,-1548C1310,-1548 1253,-1548 1253,-1548 1247,-1548 1241,-1542 1241,-1536 1241,-1536 1241,-1524 1241,-1524 1241,-1518 1247,-1512 1253,-1512 1253,-1512 1310,-1512 1310,-1512 1316,-1512 1322,-1518 1322,-1524 1322,-1524 1322,-1536 1322,-1536 1322,-1542 1316,-1548 1310,-1548"/>
<text text-anchor="middle" x="1281.5" y="-1527.5" font-family="sans" font-size="10.00" fill="#000000">multiqcBatch</text>
</g>
<!-- 4&#45;&gt;66 -->
<g id="edge117" class="edge">
<title>4&#45;&gt;66</title>
<path fill="none" stroke="#c0c0c0" stroke-width="2" d="M920.9151,-1886.6191C1046.3789,-1876.38 1377.5,-1840.4139 1377.5,-1746 1377.5,-1746 1377.5,-1746 1377.5,-1674 1377.5,-1625.9377 1340.0183,-1581.7161 1311.8956,-1555.3006"/>
<polygon fill="#c0c0c0" stroke="#c0c0c0" stroke-width="2" points="1313.9995,-1552.4826 1304.2507,-1548.3339 1309.2845,-1557.6565 1313.9995,-1552.4826"/>
</g>
<!-- 5 -->
<g id="node6" class="node">
<title>5</title>
<path fill="none" stroke="#d89556" stroke-width="2" d="M970.5,-2052C970.5,-2052 926.5,-2052 926.5,-2052 920.5,-2052 914.5,-2046 914.5,-2040 914.5,-2040 914.5,-2028 914.5,-2028 914.5,-2022 920.5,-2016 926.5,-2016 926.5,-2016 970.5,-2016 970.5,-2016 976.5,-2016 982.5,-2022 982.5,-2028 982.5,-2028 982.5,-2040 982.5,-2040 982.5,-2046 976.5,-2052 970.5,-2052"/>
<text text-anchor="middle" x="948.5" y="-2031.5" font-family="sans" font-size="10.00" fill="#000000">bwa_mem</text>
</g>
<!-- 5&#45;&gt;4 -->
<g id="edge18" class="edge">
<title>5&#45;&gt;4</title>
<path fill="none" stroke="#c0c0c0" stroke-width="2" d="M923.9571,-2015.996C912.7231,-2006.5036 900.2219,-1993.9414 892.5,-1980 882.0217,-1961.082 877.3125,-1936.994 875.2009,-1918.4997"/>
<polygon fill="#c0c0c0" stroke="#c0c0c0" stroke-width="2" points="878.6656,-1917.9616 874.2338,-1908.3383 871.6971,-1918.6249 878.6656,-1917.9616"/>
</g>
<!-- 7 -->
<g id="node8" class="node">
<title>7</title>
<path fill="none" stroke="#56d8b9" stroke-width="2" d="M983.5,-1980C983.5,-1980 913.5,-1980 913.5,-1980 907.5,-1980 901.5,-1974 901.5,-1968 901.5,-1968 901.5,-1956 901.5,-1956 901.5,-1950 907.5,-1944 913.5,-1944 913.5,-1944 983.5,-1944 983.5,-1944 989.5,-1944 995.5,-1950 995.5,-1956 995.5,-1956 995.5,-1968 995.5,-1968 995.5,-1974 989.5,-1980 983.5,-1980"/>
<text text-anchor="middle" x="948.5" y="-1959.5" font-family="sans" font-size="10.00" fill="#000000">samtools_index</text>
</g>
<!-- 5&#45;&gt;7 -->
<g id="edge21" class="edge">
<title>5&#45;&gt;7</title>
<path fill="none" stroke="#c0c0c0" stroke-width="2" d="M948.5,-2015.8314C948.5,-2008.131 948.5,-1998.9743 948.5,-1990.4166"/>
<polygon fill="#c0c0c0" stroke="#c0c0c0" stroke-width="2" points="952.0001,-1990.4132 948.5,-1980.4133 945.0001,-1990.4133 952.0001,-1990.4132"/>
</g>
<!-- 6 -->
<g id="node7" class="node">
<title>6</title>
<path fill="none" stroke="#bed856" stroke-width="2" d="M1471,-2124C1471,-2124 1436,-2124 1436,-2124 1430,-2124 1424,-2118 1424,-2112 1424,-2112 1424,-2100 1424,-2100 1424,-2094 1430,-2088 1436,-2088 1436,-2088 1471,-2088 1471,-2088 1477,-2088 1483,-2094 1483,-2100 1483,-2100 1483,-2112 1483,-2112 1483,-2118 1477,-2124 1471,-2124"/>
<text text-anchor="middle" x="1453.5" y="-2103.5" font-family="sans" font-size="10.00" fill="#000000">cutadapt</text>
</g>
<!-- 6&#45;&gt;5 -->
<g id="edge20" class="edge">
<title>6&#45;&gt;5</title>
<path fill="none" stroke="#c0c0c0" stroke-width="2" d="M1423.7953,-2101.7649C1338.7465,-2089.6391 1093.948,-2054.7371 992.9206,-2040.3332"/>
<polygon fill="#c0c0c0" stroke="#c0c0c0" stroke-width="2" points="993.1423,-2036.8295 982.7483,-2038.8829 992.1542,-2043.7594 993.1423,-2036.8295"/>
</g>
<!-- 6&#45;&gt;66 -->
<g id="edge116" class="edge">
<title>6&#45;&gt;66</title>
<path fill="none" stroke="#c0c0c0" stroke-width="2" d="M1453.5,-2087.8146C1453.5,-2060.4983 1453.5,-2007.25 1453.5,-1962 1453.5,-1962 1453.5,-1962 1453.5,-1674 1453.5,-1609.9733 1382.5627,-1568.7937 1331.8005,-1547.5224"/>
<polygon fill="#c0c0c0" stroke="#c0c0c0" stroke-width="2" points="1332.8441,-1544.1689 1322.2616,-1543.657 1330.2151,-1550.6565 1332.8441,-1544.1689"/>
</g>
<!-- 67 -->
<g id="node68" class="node">
<title>67</title>
<path fill="none" stroke="#56d87b" stroke-width="2" d="M1529,-1980C1529,-1980 1494,-1980 1494,-1980 1488,-1980 1482,-1974 1482,-1968 1482,-1968 1482,-1956 1482,-1956 1482,-1950 1488,-1944 1494,-1944 1494,-1944 1529,-1944 1529,-1944 1535,-1944 1541,-1950 1541,-1956 1541,-1956 1541,-1968 1541,-1968 1541,-1974 1535,-1980 1529,-1980"/>
<text text-anchor="middle" x="1511.5" y="-1959.5" font-family="sans" font-size="10.00" fill="#000000">fastqcR1</text>
</g>
<!-- 6&#45;&gt;67 -->
<g id="edge119" class="edge">
<title>6&#45;&gt;67</title>
<path fill="none" stroke="#c0c0c0" stroke-width="2" d="M1460.8457,-2087.7623C1470.8256,-2062.9846 1488.7546,-2018.4714 1500.3858,-1989.5939"/>
<polygon fill="#c0c0c0" stroke="#c0c0c0" stroke-width="2" points="1503.7243,-1990.6731 1504.2139,-1980.0896 1497.2312,-1988.0578 1503.7243,-1990.6731"/>
</g>
<!-- 7&#45;&gt;4 -->
<g id="edge19" class="edge">
<title>7&#45;&gt;4</title>
<path fill="none" stroke="#c0c0c0" stroke-width="2" d="M929.5743,-1943.8314C920.5143,-1935.1337 909.5191,-1924.5783 899.6735,-1915.1265"/>
<polygon fill="#c0c0c0" stroke="#c0c0c0" stroke-width="2" points="902.0574,-1912.5633 892.4196,-1908.1628 897.2096,-1917.613 902.0574,-1912.5633"/>
</g>
<!-- 8&#45;&gt;0 -->
<g id="edge8" class="edge">
<title>8&#45;&gt;0</title>
<path fill="none" stroke="#c0c0c0" stroke-width="2" d="M469.8688,-1815.6217C371.7163,-1810.9577 190.7452,-1797.9202 136.5,-1764 95.739,-1738.5116 76.5,-1722.074 76.5,-1674 76.5,-1674 76.5,-1674 76.5,-1458 76.5,-1369.7643 134.5,-754.2357 134.5,-666 134.5,-666 134.5,-666 134.5,-594 134.5,-542.7316 221.5013,-193.0253 236.5,-144 246.5447,-111.1676 240.2472,-96.3037 264.5,-72 291.848,-44.5946 334.7307,-30.7491 365.4338,-23.9916"/>
<polygon fill="#c0c0c0" stroke="#c0c0c0" stroke-width="2" points="366.2451,-27.3981 375.3391,-21.9622 364.8401,-20.5406 366.2451,-27.3981"/>
</g>
<!-- 8&#45;&gt;3 -->
<g id="edge16" class="edge">
<title>8&#45;&gt;3</title>
<path fill="none" stroke="#c0c0c0" stroke-width="2" d="M470.4819,-1799.9243C424.1041,-1786.8294 362.6812,-1769.4865 322.1714,-1758.0484"/>
<polygon fill="#c0c0c0" stroke="#c0c0c0" stroke-width="2" points="322.9196,-1754.6229 312.3447,-1755.2738 321.0174,-1761.3595 322.9196,-1754.6229"/>
</g>
<!-- 8&#45;&gt;27 -->
<g id="edge54" class="edge">
<title>8&#45;&gt;27</title>
<path fill="none" stroke="#c0c0c0" stroke-width="2" d="M499.4244,-1799.8314C478.6873,-1789.0898 452.48,-1775.5148 431.5713,-1764.6844"/>
<polygon fill="#c0c0c0" stroke="#c0c0c0" stroke-width="2" points="433.1612,-1761.5663 422.6719,-1760.0747 429.9416,-1767.782 433.1612,-1761.5663"/>
</g>
<!-- 8&#45;&gt;30 -->
<g id="edge59" class="edge">
<title>8&#45;&gt;30</title>
<path fill="none" stroke="#c0c0c0" stroke-width="2" d="M533.3972,-1799.8566C531.6439,-1781.014 527.1225,-1751.1127 515.5,-1728 479.3251,-1656.062 410.4936,-1589.695 370.7891,-1555.075"/>
<polygon fill="#c0c0c0" stroke="#c0c0c0" stroke-width="2" points="372.6424,-1552.0521 362.7809,-1548.1788 368.0745,-1557.3563 372.6424,-1552.0521"/>
</g>
<!-- 8&#45;&gt;33 -->
<g id="edge63" class="edge">
<title>8&#45;&gt;33</title>
<path fill="none" stroke="#c0c0c0" stroke-width="2" d="M519.1071,-1799.8314C512.0096,-1791.454 503.452,-1781.3531 495.676,-1772.1749"/>
<polygon fill="#c0c0c0" stroke="#c0c0c0" stroke-width="2" points="498.2348,-1769.7807 489.1001,-1764.4133 492.8939,-1774.3056 498.2348,-1769.7807"/>
</g>
<!-- 8&#45;&gt;45 -->
<g id="edge76" class="edge">
<title>8&#45;&gt;45</title>
<path fill="none" stroke="#c0c0c0" stroke-width="2" d="M550.3976,-1799.8314C557.7278,-1791.454 566.566,-1781.3531 574.5969,-1772.1749"/>
<polygon fill="#c0c0c0" stroke="#c0c0c0" stroke-width="2" points="577.4373,-1774.2438 581.3884,-1764.4133 572.1693,-1769.6343 577.4373,-1774.2438"/>
</g>
<!-- 8&#45;&gt;49 -->
<g id="edge82" class="edge">
<title>8&#45;&gt;49</title>
<path fill="none" stroke="#c0c0c0" stroke-width="2" d="M599.223,-1807.0836C653.2775,-1797.5788 732.5307,-1782.7456 809.8964,-1764.295"/>
<polygon fill="#c0c0c0" stroke="#c0c0c0" stroke-width="2" points="810.9079,-1767.6516 819.8107,-1761.9079 809.2692,-1760.8461 810.9079,-1767.6516"/>
</g>
<!-- 8&#45;&gt;50 -->
<g id="edge84" class="edge">
<title>8&#45;&gt;50</title>
<path fill="none" stroke="#c0c0c0" stroke-width="2" d="M587.4719,-1799.9243C616.4422,-1790.0387 652.5073,-1777.7321 682.8663,-1767.3726"/>
<polygon fill="#c0c0c0" stroke="#c0c0c0" stroke-width="2" points="684.1725,-1770.6251 692.5063,-1764.0831 681.9118,-1764.0002 684.1725,-1770.6251"/>
</g>
<!-- 8&#45;&gt;52 -->
<g id="edge88" class="edge">
<title>8&#45;&gt;52</title>
<path fill="none" stroke="#c0c0c0" stroke-width="2" d="M599.2548,-1815.8458C677.7603,-1811.7976 813.6724,-1800.1622 935.5048,-1763.7407"/>
<polygon fill="#c0c0c0" stroke="#c0c0c0" stroke-width="2" points="936.8295,-1766.9958 945.3706,-1760.7268 934.7843,-1760.3012 936.8295,-1766.9958"/>
</g>
<!-- 9 -->
<g id="node10" class="node">
<title>9</title>
<path fill="none" stroke="#d87556" stroke-width="2" d="M209.5,-1764C209.5,-1764 157.5,-1764 157.5,-1764 151.5,-1764 145.5,-1758 145.5,-1752 145.5,-1752 145.5,-1740 145.5,-1740 145.5,-1734 151.5,-1728 157.5,-1728 157.5,-1728 209.5,-1728 209.5,-1728 215.5,-1728 221.5,-1734 221.5,-1740 221.5,-1740 221.5,-1752 221.5,-1752 221.5,-1758 215.5,-1764 209.5,-1764"/>
<text text-anchor="middle" x="183.5" y="-1743.5" font-family="sans" font-size="10.00" fill="#000000">split_bedfile</text>
</g>
<!-- 9&#45;&gt;2 -->
<g id="edge14" class="edge">
<title>9&#45;&gt;2</title>
<path fill="none" stroke="#c0c0c0" stroke-width="2" d="M183.5,-1727.8314C183.5,-1720.131 183.5,-1710.9743 183.5,-1702.4166"/>
<polygon fill="#c0c0c0" stroke="#c0c0c0" stroke-width="2" points="187.0001,-1702.4132 183.5,-1692.4133 180.0001,-1702.4133 187.0001,-1702.4132"/>
</g>
<!-- 10 -->
<g id="node11" class="node">
<title>10</title>
<path fill="none" stroke="#56d86b" stroke-width="2" d="M708.5,-108C708.5,-108 668.5,-108 668.5,-108 662.5,-108 656.5,-102 656.5,-96 656.5,-96 656.5,-84 656.5,-84 656.5,-78 662.5,-72 668.5,-72 668.5,-72 708.5,-72 708.5,-72 714.5,-72 720.5,-78 720.5,-84 720.5,-84 720.5,-96 720.5,-96 720.5,-102 714.5,-108 708.5,-108"/>
<text text-anchor="middle" x="688.5" y="-87.5" font-family="sans" font-size="10.00" fill="#000000">vcf2excel</text>
</g>
<!-- 10&#45;&gt;0 -->
<g id="edge4" class="edge">
<title>10&#45;&gt;0</title>
<path fill="none" stroke="#c0c0c0" stroke-width="2" d="M656.2481,-81.8806C602.7502,-68.4126 495.9684,-41.5305 439.4936,-27.3131"/>
<polygon fill="#c0c0c0" stroke="#c0c0c0" stroke-width="2" points="440.1101,-23.8591 429.5581,-24.8118 438.4011,-30.6473 440.1101,-23.8591"/>
</g>
<!-- 11 -->
<g id="node12" class="node">
<title>11</title>
<path fill="none" stroke="#68d856" stroke-width="2" d="M384,-468C384,-468 345,-468 345,-468 339,-468 333,-462 333,-456 333,-456 333,-444 333,-444 333,-438 339,-432 345,-432 345,-432 384,-432 384,-432 390,-432 396,-438 396,-444 396,-444 396,-456 396,-456 396,-462 390,-468 384,-468"/>
<text text-anchor="middle" x="364.5" y="-447.5" font-family="sans" font-size="10.00" fill="#000000">bgzipSNV</text>
</g>
<!-- 11&#45;&gt;0 -->
<g id="edge12" class="edge">
<title>11&#45;&gt;0</title>
<path fill="none" stroke="#c0c0c0" stroke-width="2" d="M332.757,-433.4273C317.4219,-424.1228 299.738,-411.3012 287.5,-396 260.4869,-362.2255 250.5,-349.2483 250.5,-306 250.5,-306 250.5,-306 250.5,-162 250.5,-98.5382 321.1908,-54.6632 366.1556,-33.1743"/>
<polygon fill="#c0c0c0" stroke="#c0c0c0" stroke-width="2" points="367.7208,-36.3066 375.3254,-28.9296 364.7803,-29.9542 367.7208,-36.3066"/>
</g>
<!-- 11&#45;&gt;10 -->
<g id="edge29" class="edge">
<title>11&#45;&gt;10</title>
<path fill="none" stroke="#c0c0c0" stroke-width="2" d="M339.2243,-431.8373C327.8646,-422.3929 315.2892,-409.9174 307.5,-396 287.534,-360.3255 288.5,-346.8816 288.5,-306 288.5,-306 288.5,-306 288.5,-234 288.5,-158.5402 543.6945,-111.756 646.4152,-95.9809"/>
<polygon fill="#c0c0c0" stroke="#c0c0c0" stroke-width="2" points="647.0778,-99.4206 656.4425,-94.4655 646.0317,-92.4992 647.0778,-99.4206"/>
</g>
<!-- 56 -->
<g id="node57" class="node">
<title>56</title>
<path fill="none" stroke="#565bd8" stroke-width="2" d="M544,-396C544,-396 483,-396 483,-396 477,-396 471,-390 471,-384 471,-384 471,-372 471,-372 471,-366 477,-360 483,-360 483,-360 544,-360 544,-360 550,-360 556,-366 556,-372 556,-372 556,-384 556,-384 556,-390 550,-396 544,-396"/>
<text text-anchor="middle" x="513.5" y="-375.5" font-family="sans" font-size="10.00" fill="#000000">makePassVCF</text>
</g>
<!-- 11&#45;&gt;56 -->
<g id="edge96" class="edge">
<title>11&#45;&gt;56</title>
<path fill="none" stroke="#c0c0c0" stroke-width="2" d="M396.0991,-434.7307C416.6711,-424.7898 443.8637,-411.6497 466.8977,-400.5192"/>
<polygon fill="#c0c0c0" stroke="#c0c0c0" stroke-width="2" points="468.6723,-403.549 476.1534,-396.0467 465.6267,-397.2463 468.6723,-403.549"/>
</g>
<!-- 58 -->
<g id="node59" class="node">
<title>58</title>
<path fill="none" stroke="#5663d8" stroke-width="2" d="M402.5,-396C402.5,-396 328.5,-396 328.5,-396 322.5,-396 316.5,-390 316.5,-384 316.5,-384 316.5,-372 316.5,-372 316.5,-366 322.5,-360 328.5,-360 328.5,-360 402.5,-360 402.5,-360 408.5,-360 414.5,-366 414.5,-372 414.5,-372 414.5,-384 414.5,-384 414.5,-390 408.5,-396 402.5,-396"/>
<text text-anchor="middle" x="365.5" y="-375.5" font-family="sans" font-size="10.00" fill="#000000">mergeSNVPindel</text>
</g>
<!-- 11&#45;&gt;58 -->
<g id="edge100" class="edge">
<title>11&#45;&gt;58</title>
<path fill="none" stroke="#c0c0c0" stroke-width="2" d="M364.7523,-431.8314C364.8593,-424.131 364.9865,-414.9743 365.1053,-406.4166"/>
<polygon fill="#c0c0c0" stroke="#c0c0c0" stroke-width="2" points="368.6049,-406.4609 365.2443,-396.4133 361.6056,-406.3637 368.6049,-406.4609"/>
</g>
<!-- 12 -->
<g id="node13" class="node">
<title>12</title>
<path fill="none" stroke="#78d856" stroke-width="2" d="M381,-540C381,-540 348,-540 348,-540 342,-540 336,-534 336,-528 336,-528 336,-516 336,-516 336,-510 342,-504 348,-504 348,-504 381,-504 381,-504 387,-504 393,-510 393,-516 393,-516 393,-528 393,-528 393,-534 387,-540 381,-540"/>
<text text-anchor="middle" x="364.5" y="-519.5" font-family="sans" font-size="10.00" fill="#000000">filterVep</text>
</g>
<!-- 12&#45;&gt;11 -->
<g id="edge30" class="edge">
<title>12&#45;&gt;11</title>
<path fill="none" stroke="#c0c0c0" stroke-width="2" d="M364.5,-503.8314C364.5,-496.131 364.5,-486.9743 364.5,-478.4166"/>
<polygon fill="#c0c0c0" stroke="#c0c0c0" stroke-width="2" points="368.0001,-478.4132 364.5,-468.4133 361.0001,-478.4133 368.0001,-478.4132"/>
</g>
<!-- 13 -->
<g id="node14" class="node">
<title>13</title>
<path fill="none" stroke="#56b1d8" stroke-width="2" d="M383,-612C383,-612 346,-612 346,-612 340,-612 334,-606 334,-600 334,-600 334,-588 334,-588 334,-582 340,-576 346,-576 346,-576 383,-576 383,-576 389,-576 395,-582 395,-588 395,-588 395,-600 395,-600 395,-606 389,-612 383,-612"/>
<text text-anchor="middle" x="364.5" y="-591.5" font-family="sans" font-size="10.00" fill="#000000">bgzipVep</text>
</g>
<!-- 13&#45;&gt;12 -->
<g id="edge31" class="edge">
<title>13&#45;&gt;12</title>
<path fill="none" stroke="#c0c0c0" stroke-width="2" d="M364.5,-575.8314C364.5,-568.131 364.5,-558.9743 364.5,-550.4166"/>
<polygon fill="#c0c0c0" stroke="#c0c0c0" stroke-width="2" points="368.0001,-550.4132 364.5,-540.4133 361.0001,-550.4133 368.0001,-550.4132"/>
</g>
<!-- 14 -->
<g id="node15" class="node">
<title>14</title>
<path fill="none" stroke="#56d88a" stroke-width="2" d="M379.5,-684C379.5,-684 349.5,-684 349.5,-684 343.5,-684 337.5,-678 337.5,-672 337.5,-672 337.5,-660 337.5,-660 337.5,-654 343.5,-648 349.5,-648 349.5,-648 379.5,-648 379.5,-648 385.5,-648 391.5,-654 391.5,-660 391.5,-660 391.5,-672 391.5,-672 391.5,-678 385.5,-684 379.5,-684"/>
<text text-anchor="middle" x="364.5" y="-663.5" font-family="sans" font-size="10.00" fill="#000000">vep</text>
</g>
<!-- 14&#45;&gt;13 -->
<g id="edge32" class="edge">
<title>14&#45;&gt;13</title>
<path fill="none" stroke="#c0c0c0" stroke-width="2" d="M364.5,-647.8314C364.5,-640.131 364.5,-630.9743 364.5,-622.4166"/>
<polygon fill="#c0c0c0" stroke="#c0c0c0" stroke-width="2" points="368.0001,-622.4132 364.5,-612.4133 361.0001,-622.4133 368.0001,-622.4132"/>
</g>
<!-- 15 -->
<g id="node16" class="node">
<title>15</title>
<path fill="none" stroke="#56d8c9" stroke-width="2" d="M389,-756C389,-756 340,-756 340,-756 334,-756 328,-750 328,-744 328,-744 328,-732 328,-732 328,-726 334,-720 340,-720 340,-720 389,-720 389,-720 395,-720 401,-726 401,-732 401,-732 401,-744 401,-744 401,-750 395,-756 389,-756"/>
<text text-anchor="middle" x="364.5" y="-735.5" font-family="sans" font-size="10.00" fill="#000000">concatMulti</text>
</g>
<!-- 15&#45;&gt;14 -->
<g id="edge33" class="edge">
<title>15&#45;&gt;14</title>
<path fill="none" stroke="#c0c0c0" stroke-width="2" d="M364.5,-719.8314C364.5,-712.131 364.5,-702.9743 364.5,-694.4166"/>
<polygon fill="#c0c0c0" stroke="#c0c0c0" stroke-width="2" points="368.0001,-694.4132 364.5,-684.4133 361.0001,-694.4133 368.0001,-694.4132"/>
</g>
<!-- 16 -->
<g id="node17" class="node">
<title>16</title>
<path fill="none" stroke="#afd856" stroke-width="2" d="M444,-900C444,-900 397,-900 397,-900 391,-900 385,-894 385,-888 385,-888 385,-876 385,-876 385,-870 391,-864 397,-864 397,-864 444,-864 444,-864 450,-864 456,-870 456,-876 456,-876 456,-888 456,-888 456,-894 450,-900 444,-900"/>
<text text-anchor="middle" x="420.5" y="-879.5" font-family="sans" font-size="10.00" fill="#000000">filter_recall</text>
</g>
<!-- 16&#45;&gt;15 -->
<g id="edge34" class="edge">
<title>16&#45;&gt;15</title>
<path fill="none" stroke="#c0c0c0" stroke-width="2" d="M425.8914,-863.87C430.4683,-845.0383 434.8083,-815.1458 424.5,-792 419.4666,-780.6983 410.7695,-770.7696 401.5341,-762.611"/>
<polygon fill="#c0c0c0" stroke="#c0c0c0" stroke-width="2" points="403.665,-759.8319 393.7184,-756.1828 399.2185,-765.2382 403.665,-759.8319"/>
</g>
<!-- 35 -->
<g id="node36" class="node">
<title>35</title>
<path fill="none" stroke="#56d863" stroke-width="2" d="M403,-828C403,-828 326,-828 326,-828 320,-828 314,-822 314,-816 314,-816 314,-804 314,-804 314,-798 320,-792 326,-792 326,-792 403,-792 403,-792 409,-792 415,-798 415,-804 415,-804 415,-816 415,-816 415,-822 409,-828 403,-828"/>
<text text-anchor="middle" x="364.5" y="-807.5" font-family="sans" font-size="10.00" fill="#000000">index_filterRecall</text>
</g>
<!-- 16&#45;&gt;35 -->
<g id="edge66" class="edge">
<title>16&#45;&gt;35</title>
<path fill="none" stroke="#c0c0c0" stroke-width="2" d="M406.3688,-863.8314C399.9189,-855.5386 392.1555,-845.557 385.0748,-836.4533"/>
<polygon fill="#c0c0c0" stroke="#c0c0c0" stroke-width="2" points="387.7236,-834.158 378.8214,-828.4133 382.1981,-838.4556 387.7236,-834.158"/>
</g>
<!-- 17 -->
<g id="node18" class="node">
<title>17</title>
<path fill="none" stroke="#b6d856" stroke-width="2" d="M442.5,-972C442.5,-972 398.5,-972 398.5,-972 392.5,-972 386.5,-966 386.5,-960 386.5,-960 386.5,-948 386.5,-948 386.5,-942 392.5,-936 398.5,-936 398.5,-936 442.5,-936 442.5,-936 448.5,-936 454.5,-942 454.5,-948 454.5,-948 454.5,-960 454.5,-960 454.5,-966 448.5,-972 442.5,-972"/>
<text text-anchor="middle" x="420.5" y="-951.5" font-family="sans" font-size="10.00" fill="#000000">sort_recall</text>
</g>
<!-- 17&#45;&gt;16 -->
<g id="edge37" class="edge">
<title>17&#45;&gt;16</title>
<path fill="none" stroke="#c0c0c0" stroke-width="2" d="M420.5,-935.8314C420.5,-928.131 420.5,-918.9743 420.5,-910.4166"/>
<polygon fill="#c0c0c0" stroke="#c0c0c0" stroke-width="2" points="424.0001,-910.4132 420.5,-900.4133 417.0001,-910.4133 424.0001,-910.4132"/>
</g>
<!-- 18 -->
<g id="node19" class="node">
<title>18</title>
<path fill="none" stroke="#80d856" stroke-width="2" d="M435.5,-1044C435.5,-1044 405.5,-1044 405.5,-1044 399.5,-1044 393.5,-1038 393.5,-1032 393.5,-1032 393.5,-1020 393.5,-1020 393.5,-1014 399.5,-1008 405.5,-1008 405.5,-1008 435.5,-1008 435.5,-1008 441.5,-1008 447.5,-1014 447.5,-1020 447.5,-1020 447.5,-1032 447.5,-1032 447.5,-1038 441.5,-1044 435.5,-1044"/>
<text text-anchor="middle" x="420.5" y="-1023.5" font-family="sans" font-size="10.00" fill="#000000">recall</text>
</g>
<!-- 18&#45;&gt;17 -->
<g id="edge38" class="edge">
<title>18&#45;&gt;17</title>
<path fill="none" stroke="#c0c0c0" stroke-width="2" d="M420.5,-1007.8314C420.5,-1000.131 420.5,-990.9743 420.5,-982.4166"/>
<polygon fill="#c0c0c0" stroke="#c0c0c0" stroke-width="2" points="424.0001,-982.4132 420.5,-972.4133 417.0001,-982.4133 424.0001,-982.4132"/>
</g>
<!-- 19 -->
<g id="node20" class="node">
<title>19</title>
<path fill="none" stroke="#56b9d8" stroke-width="2" d="M424.5,-1188C424.5,-1188 370.5,-1188 370.5,-1188 364.5,-1188 358.5,-1182 358.5,-1176 358.5,-1176 358.5,-1164 358.5,-1164 358.5,-1158 364.5,-1152 370.5,-1152 370.5,-1152 424.5,-1152 424.5,-1152 430.5,-1152 436.5,-1158 436.5,-1164 436.5,-1164 436.5,-1176 436.5,-1176 436.5,-1182 430.5,-1188 424.5,-1188"/>
<text text-anchor="middle" x="397.5" y="-1167.5" font-family="sans" font-size="10.00" fill="#000000">normalizeAll</text>
</g>
<!-- 19&#45;&gt;18 -->
<g id="edge40" class="edge">
<title>19&#45;&gt;18</title>
<path fill="none" stroke="#c0c0c0" stroke-width="2" d="M425.932,-1151.9601C437.7228,-1142.7801 450.1204,-1130.4872 456.5,-1116 465.8255,-1094.823 454.7479,-1070.4309 442.4942,-1052.3868"/>
<polygon fill="#c0c0c0" stroke="#c0c0c0" stroke-width="2" points="445.1737,-1050.1198 436.4686,-1044.0806 439.5076,-1054.2302 445.1737,-1050.1198"/>
</g>
<!-- 34 -->
<g id="node35" class="node">
<title>34</title>
<path fill="none" stroke="#d8c356" stroke-width="2" d="M435.5,-1116C435.5,-1116 359.5,-1116 359.5,-1116 353.5,-1116 347.5,-1110 347.5,-1104 347.5,-1104 347.5,-1092 347.5,-1092 347.5,-1086 353.5,-1080 359.5,-1080 359.5,-1080 435.5,-1080 435.5,-1080 441.5,-1080 447.5,-1086 447.5,-1092 447.5,-1092 447.5,-1104 447.5,-1104 447.5,-1110 441.5,-1116 435.5,-1116"/>
<text text-anchor="middle" x="397.5" y="-1095.5" font-family="sans" font-size="10.00" fill="#000000">indexNormalized</text>
</g>
<!-- 19&#45;&gt;34 -->
<g id="edge65" class="edge">
<title>19&#45;&gt;34</title>
<path fill="none" stroke="#c0c0c0" stroke-width="2" d="M397.5,-1151.8314C397.5,-1144.131 397.5,-1134.9743 397.5,-1126.4166"/>
<polygon fill="#c0c0c0" stroke="#c0c0c0" stroke-width="2" points="401.0001,-1126.4132 397.5,-1116.4133 394.0001,-1126.4133 401.0001,-1126.4132"/>
</g>
<!-- 37 -->
<g id="node38" class="node">
<title>37</title>
<path fill="none" stroke="#568ad8" stroke-width="2" d="M317,-1116C317,-1116 254,-1116 254,-1116 248,-1116 242,-1110 242,-1104 242,-1104 242,-1092 242,-1092 242,-1086 248,-1080 254,-1080 254,-1080 317,-1080 317,-1080 323,-1080 329,-1086 329,-1092 329,-1092 329,-1104 329,-1104 329,-1110 323,-1116 317,-1116"/>
<text text-anchor="middle" x="285.5" y="-1095.5" font-family="sans" font-size="10.00" fill="#000000">createMultiVcf</text>
</g>
<!-- 19&#45;&gt;37 -->
<g id="edge68" class="edge">
<title>19&#45;&gt;37</title>
<path fill="none" stroke="#c0c0c0" stroke-width="2" d="M369.2377,-1151.8314C355.0448,-1142.7074 337.6718,-1131.539 322.4364,-1121.7449"/>
<polygon fill="#c0c0c0" stroke="#c0c0c0" stroke-width="2" points="324.0578,-1118.6263 313.7533,-1116.1628 320.2724,-1124.5146 324.0578,-1118.6263"/>
</g>
<!-- 20 -->
<g id="node21" class="node">
<title>20</title>
<path fill="none" stroke="#70d856" stroke-width="2" d="M422,-1260C422,-1260 373,-1260 373,-1260 367,-1260 361,-1254 361,-1248 361,-1248 361,-1236 361,-1236 361,-1230 367,-1224 373,-1224 373,-1224 422,-1224 422,-1224 428,-1224 434,-1230 434,-1236 434,-1236 434,-1248 434,-1248 434,-1254 428,-1260 422,-1260"/>
<text text-anchor="middle" x="397.5" y="-1239.5" font-family="sans" font-size="10.00" fill="#000000">decompose</text>
</g>
<!-- 20&#45;&gt;19 -->
<g id="edge41" class="edge">
<title>20&#45;&gt;19</title>
<path fill="none" stroke="#c0c0c0" stroke-width="2" d="M397.5,-1223.8314C397.5,-1216.131 397.5,-1206.9743 397.5,-1198.4166"/>
<polygon fill="#c0c0c0" stroke="#c0c0c0" stroke-width="2" points="401.0001,-1198.4132 397.5,-1188.4133 394.0001,-1198.4133 401.0001,-1198.4132"/>
</g>
<!-- 21 -->
<g id="node22" class="node">
<title>21</title>
<path fill="none" stroke="#566bd8" stroke-width="2" d="M412.5,-1332C412.5,-1332 382.5,-1332 382.5,-1332 376.5,-1332 370.5,-1326 370.5,-1320 370.5,-1320 370.5,-1308 370.5,-1308 370.5,-1302 376.5,-1296 382.5,-1296 382.5,-1296 412.5,-1296 412.5,-1296 418.5,-1296 424.5,-1302 424.5,-1308 424.5,-1308 424.5,-1320 424.5,-1320 424.5,-1326 418.5,-1332 412.5,-1332"/>
<text text-anchor="middle" x="397.5" y="-1311.5" font-family="sans" font-size="10.00" fill="#000000">fixAF</text>
</g>
<!-- 21&#45;&gt;20 -->
<g id="edge42" class="edge">
<title>21&#45;&gt;20</title>
<path fill="none" stroke="#c0c0c0" stroke-width="2" d="M397.5,-1295.8314C397.5,-1288.131 397.5,-1278.9743 397.5,-1270.4166"/>
<polygon fill="#c0c0c0" stroke="#c0c0c0" stroke-width="2" points="401.0001,-1270.4132 397.5,-1260.4133 394.0001,-1270.4133 401.0001,-1270.4132"/>
</g>
<!-- 22 -->
<g id="node23" class="node">
<title>22</title>
<path fill="none" stroke="#d8a456" stroke-width="2" d="M194,-1404C194,-1404 117,-1404 117,-1404 111,-1404 105,-1398 105,-1392 105,-1392 105,-1380 105,-1380 105,-1374 111,-1368 117,-1368 117,-1368 194,-1368 194,-1368 200,-1368 206,-1374 206,-1380 206,-1380 206,-1392 206,-1392 206,-1398 200,-1404 194,-1404"/>
<text text-anchor="middle" x="155.5" y="-1383.5" font-family="sans" font-size="10.00" fill="#000000">hardFilterMutect2</text>
</g>
<!-- 22&#45;&gt;21 -->
<g id="edge46" class="edge">
<title>22&#45;&gt;21</title>
<path fill="none" stroke="#c0c0c0" stroke-width="2" d="M206.2311,-1370.9064C252.4538,-1357.1542 319.6126,-1337.1731 360.8216,-1324.9126"/>
<polygon fill="#c0c0c0" stroke="#c0c0c0" stroke-width="2" points="361.8728,-1328.2515 370.4595,-1322.0451 359.8766,-1321.5422 361.8728,-1328.2515"/>
</g>
<!-- 23 -->
<g id="node24" class="node">
<title>23</title>
<path fill="none" stroke="#d85656" stroke-width="2" d="M203.5,-1548C203.5,-1548 149.5,-1548 149.5,-1548 143.5,-1548 137.5,-1542 137.5,-1536 137.5,-1536 137.5,-1524 137.5,-1524 137.5,-1518 143.5,-1512 149.5,-1512 149.5,-1512 203.5,-1512 203.5,-1512 209.5,-1512 215.5,-1518 215.5,-1524 215.5,-1524 215.5,-1536 215.5,-1536 215.5,-1542 209.5,-1548 203.5,-1548"/>
<text text-anchor="middle" x="176.5" y="-1527.5" font-family="sans" font-size="10.00" fill="#000000">filterMutect2</text>
</g>
<!-- 23&#45;&gt;22 -->
<g id="edge47" class="edge">
<title>23&#45;&gt;22</title>
<path fill="none" stroke="#c0c0c0" stroke-width="2" d="M160.5095,-1511.9169C152.8462,-1502.0371 144.4834,-1489.1563 140.5,-1476 134.3317,-1455.6276 138.7718,-1431.8452 144.383,-1413.8457"/>
<polygon fill="#c0c0c0" stroke="#c0c0c0" stroke-width="2" points="147.7426,-1414.8375 147.6554,-1404.243 141.1168,-1412.5795 147.7426,-1414.8375"/>
</g>
<!-- 26 -->
<g id="node27" class="node">
<title>26</title>
<path fill="none" stroke="#ced856" stroke-width="2" d="M191.5,-1476C191.5,-1476 161.5,-1476 161.5,-1476 155.5,-1476 149.5,-1470 149.5,-1464 149.5,-1464 149.5,-1452 149.5,-1452 149.5,-1446 155.5,-1440 161.5,-1440 161.5,-1440 191.5,-1440 191.5,-1440 197.5,-1440 203.5,-1446 203.5,-1452 203.5,-1452 203.5,-1464 203.5,-1464 203.5,-1470 197.5,-1476 191.5,-1476"/>
<text text-anchor="middle" x="176.5" y="-1455.5" font-family="sans" font-size="10.00" fill="#000000">fixSB</text>
</g>
<!-- 23&#45;&gt;26 -->
<g id="edge53" class="edge">
<title>23&#45;&gt;26</title>
<path fill="none" stroke="#c0c0c0" stroke-width="2" d="M176.5,-1511.8314C176.5,-1504.131 176.5,-1494.9743 176.5,-1486.4166"/>
<polygon fill="#c0c0c0" stroke="#c0c0c0" stroke-width="2" points="180.0001,-1486.4132 176.5,-1476.4133 173.0001,-1486.4133 180.0001,-1486.4132"/>
</g>
<!-- 24&#45;&gt;23 -->
<g id="edge50" class="edge">
<title>24&#45;&gt;23</title>
<path fill="none" stroke="#c0c0c0" stroke-width="2" d="M176.5,-1583.8314C176.5,-1576.131 176.5,-1566.9743 176.5,-1558.4166"/>
<polygon fill="#c0c0c0" stroke="#c0c0c0" stroke-width="2" points="180.0001,-1558.4132 176.5,-1548.4133 173.0001,-1558.4133 180.0001,-1558.4132"/>
</g>
<!-- 25&#45;&gt;23 -->
<g id="edge49" class="edge">
<title>25&#45;&gt;23</title>
<path fill="none" stroke="#c0c0c0" stroke-width="2" d="M244.5369,-1583.8314C233.3285,-1574.9632 219.6791,-1564.1637 207.5561,-1554.5718"/>
<polygon fill="#c0c0c0" stroke="#c0c0c0" stroke-width="2" points="209.4697,-1551.6229 199.4558,-1548.1628 205.1263,-1557.1125 209.4697,-1551.6229"/>
</g>
<!-- 26&#45;&gt;22 -->
<g id="edge48" class="edge">
<title>26&#45;&gt;22</title>
<path fill="none" stroke="#c0c0c0" stroke-width="2" d="M171.2008,-1439.8314C168.9302,-1432.0463 166.2254,-1422.7729 163.706,-1414.1347"/>
<polygon fill="#c0c0c0" stroke="#c0c0c0" stroke-width="2" points="167.0306,-1413.0332 160.8705,-1404.4133 160.3106,-1414.9933 167.0306,-1413.0332"/>
</g>
<!-- 27&#45;&gt;21 -->
<g id="edge44" class="edge">
<title>27&#45;&gt;21</title>
<path fill="none" stroke="#c0c0c0" stroke-width="2" d="M409.4817,-1727.5693C428.0421,-1701.217 458.5,-1650.5724 458.5,-1602 458.5,-1602 458.5,-1602 458.5,-1530 458.5,-1457.3976 464.6473,-1435.336 437.5,-1368 433.5084,-1358.0992 427.2601,-1348.3774 420.8783,-1339.9714"/>
<polygon fill="#c0c0c0" stroke="#c0c0c0" stroke-width="2" points="423.5139,-1337.6633 414.5306,-1332.0463 418.0503,-1342.0394 423.5139,-1337.6633"/>
</g>
<!-- 28 -->
<g id="node29" class="node">
<title>28</title>
<path fill="none" stroke="#d86656" stroke-width="2" d="M416.5,-1404C416.5,-1404 374.5,-1404 374.5,-1404 368.5,-1404 362.5,-1398 362.5,-1392 362.5,-1392 362.5,-1380 362.5,-1380 362.5,-1374 368.5,-1368 374.5,-1368 374.5,-1368 416.5,-1368 416.5,-1368 422.5,-1368 428.5,-1374 428.5,-1380 428.5,-1380 428.5,-1392 428.5,-1392 428.5,-1398 422.5,-1404 416.5,-1404"/>
<text text-anchor="middle" x="395.5" y="-1383.5" font-family="sans" font-size="10.00" fill="#000000">sortPisces</text>
</g>
<!-- 28&#45;&gt;21 -->
<g id="edge45" class="edge">
<title>28&#45;&gt;21</title>
<path fill="none" stroke="#c0c0c0" stroke-width="2" d="M396.0047,-1367.8314C396.2186,-1360.131 396.4729,-1350.9743 396.7106,-1342.4166"/>
<polygon fill="#c0c0c0" stroke="#c0c0c0" stroke-width="2" points="400.2094,-1342.5066 396.9885,-1332.4133 393.2121,-1342.3122 400.2094,-1342.5066"/>
</g>
<!-- 29 -->
<g id="node30" class="node">
<title>29</title>
<path fill="none" stroke="#5682d8" stroke-width="2" d="M418,-1476C418,-1476 381,-1476 381,-1476 375,-1476 369,-1470 369,-1464 369,-1464 369,-1452 369,-1452 369,-1446 375,-1440 381,-1440 381,-1440 418,-1440 418,-1440 424,-1440 430,-1446 430,-1452 430,-1452 430,-1464 430,-1464 430,-1470 424,-1476 418,-1476"/>
<text text-anchor="middle" x="399.5" y="-1455.5" font-family="sans" font-size="10.00" fill="#000000">piscesFix</text>
</g>
<!-- 29&#45;&gt;28 -->
<g id="edge57" class="edge">
<title>29&#45;&gt;28</title>
<path fill="none" stroke="#c0c0c0" stroke-width="2" d="M398.4906,-1439.8314C398.0628,-1432.131 397.5541,-1422.9743 397.0787,-1414.4166"/>
<polygon fill="#c0c0c0" stroke="#c0c0c0" stroke-width="2" points="400.5724,-1414.2037 396.523,-1404.4133 393.5831,-1414.592 400.5724,-1414.2037"/>
</g>
<!-- 30&#45;&gt;29 -->
<g id="edge58" class="edge">
<title>30&#45;&gt;29</title>
<path fill="none" stroke="#c0c0c0" stroke-width="2" d="M355.3882,-1511.8314C362.253,-1503.454 370.5301,-1493.3531 378.0511,-1484.1749"/>
<polygon fill="#c0c0c0" stroke="#c0c0c0" stroke-width="2" points="380.7803,-1486.3665 384.4114,-1476.4133 375.3659,-1481.9297 380.7803,-1486.3665"/>
</g>
<!-- 31 -->
<g id="node32" class="node">
<title>31</title>
<path fill="none" stroke="#70d856" stroke-width="2" d="M339,-1476C339,-1476 272,-1476 272,-1476 266,-1476 260,-1470 260,-1464 260,-1464 260,-1452 260,-1452 260,-1446 266,-1440 272,-1440 272,-1440 339,-1440 339,-1440 345,-1440 351,-1446 351,-1452 351,-1452 351,-1464 351,-1464 351,-1470 345,-1476 339,-1476"/>
<text text-anchor="middle" x="305.5" y="-1455.5" font-family="sans" font-size="10.00" fill="#000000">renameSample</text>
</g>
<!-- 30&#45;&gt;31 -->
<g id="edge61" class="edge">
<title>30&#45;&gt;31</title>
<path fill="none" stroke="#c0c0c0" stroke-width="2" d="M331.668,-1511.8314C327.8014,-1503.8771 323.1794,-1494.369 318.9032,-1485.5723"/>
<polygon fill="#c0c0c0" stroke="#c0c0c0" stroke-width="2" points="321.9707,-1483.8768 314.4509,-1476.4133 315.6751,-1486.9371 321.9707,-1483.8768"/>
</g>
<!-- 60 -->
<g id="node61" class="node">
<title>60</title>
<path fill="none" stroke="#56d873" stroke-width="2" d="M248.5,-1260C248.5,-1260 174.5,-1260 174.5,-1260 168.5,-1260 162.5,-1254 162.5,-1248 162.5,-1248 162.5,-1236 162.5,-1236 162.5,-1230 168.5,-1224 174.5,-1224 174.5,-1224 248.5,-1224 248.5,-1224 254.5,-1224 260.5,-1230 260.5,-1236 260.5,-1236 260.5,-1248 260.5,-1248 260.5,-1254 254.5,-1260 248.5,-1260"/>
<text text-anchor="middle" x="211.5" y="-1239.5" font-family="sans" font-size="10.00" fill="#000000">gVCFdecompose</text>
</g>
<!-- 30&#45;&gt;60 -->
<g id="edge102" class="edge">
<title>30&#45;&gt;60</title>
<path fill="none" stroke="#c0c0c0" stroke-width="2" d="M313.1267,-1520.568C292.835,-1512.1139 266.24,-1497.6676 251.5,-1476 228.9521,-1442.8551 217.5748,-1324.9645 213.4111,-1270.2615"/>
<polygon fill="#c0c0c0" stroke="#c0c0c0" stroke-width="2" points="216.8958,-1269.9243 212.6733,-1260.2073 209.9146,-1270.4366 216.8958,-1269.9243"/>
</g>
<!-- 31&#45;&gt;28 -->
<g id="edge56" class="edge">
<title>31&#45;&gt;28</title>
<path fill="none" stroke="#c0c0c0" stroke-width="2" d="M328.2108,-1439.8314C339.296,-1430.9632 352.7954,-1420.1637 364.7852,-1410.5718"/>
<polygon fill="#c0c0c0" stroke="#c0c0c0" stroke-width="2" points="367.1742,-1413.1429 372.7965,-1404.1628 362.8013,-1407.6768 367.1742,-1413.1429"/>
</g>
<!-- 32 -->
<g id="node33" class="node">
<title>32</title>
<path fill="none" stroke="#88d856" stroke-width="2" d="M558,-1404C558,-1404 497,-1404 497,-1404 491,-1404 485,-1398 485,-1392 485,-1392 485,-1380 485,-1380 485,-1374 491,-1368 497,-1368 497,-1368 558,-1368 558,-1368 564,-1368 570,-1374 570,-1380 570,-1380 570,-1392 570,-1392 570,-1398 564,-1404 558,-1404"/>
<text text-anchor="middle" x="527.5" y="-1383.5" font-family="sans" font-size="10.00" fill="#000000">sortFreebayes</text>
</g>
<!-- 32&#45;&gt;21 -->
<g id="edge43" class="edge">
<title>32&#45;&gt;21</title>
<path fill="none" stroke="#c0c0c0" stroke-width="2" d="M494.6955,-1367.8314C475.9945,-1357.4739 452.5368,-1344.4819 433.3517,-1333.8563"/>
<polygon fill="#c0c0c0" stroke="#c0c0c0" stroke-width="2" points="435.0377,-1330.7892 424.594,-1329.0059 431.6462,-1336.9127 435.0377,-1330.7892"/>
</g>
<!-- 33&#45;&gt;32 -->
<g id="edge62" class="edge">
<title>33&#45;&gt;32</title>
<path fill="none" stroke="#c0c0c0" stroke-width="2" d="M478.2656,-1727.9623C485.0025,-1700.8344 496.5,-1647.8236 496.5,-1602 496.5,-1602 496.5,-1602 496.5,-1530 496.5,-1489.0037 508.6567,-1442.8829 517.7446,-1414.1326"/>
<polygon fill="#c0c0c0" stroke="#c0c0c0" stroke-width="2" points="521.1559,-1414.9603 520.9257,-1404.3679 514.5002,-1412.7919 521.1559,-1414.9603"/>
</g>
<!-- 34&#45;&gt;18 -->
<g id="edge39" class="edge">
<title>34&#45;&gt;18</title>
<path fill="none" stroke="#c0c0c0" stroke-width="2" d="M403.3039,-1079.8314C405.7908,-1072.0463 408.7531,-1062.7729 411.5125,-1054.1347"/>
<polygon fill="#c0c0c0" stroke="#c0c0c0" stroke-width="2" points="414.909,-1055.0041 414.618,-1044.4133 408.2409,-1052.874 414.909,-1055.0041"/>
</g>
<!-- 35&#45;&gt;15 -->
<g id="edge35" class="edge">
<title>35&#45;&gt;15</title>
<path fill="none" stroke="#c0c0c0" stroke-width="2" d="M364.5,-791.8314C364.5,-784.131 364.5,-774.9743 364.5,-766.4166"/>
<polygon fill="#c0c0c0" stroke="#c0c0c0" stroke-width="2" points="368.0001,-766.4132 364.5,-756.4133 361.0001,-766.4133 368.0001,-766.4132"/>
</g>
<!-- 36 -->
<g id="node37" class="node">
<title>36</title>
<path fill="none" stroke="#d8a456" stroke-width="2" d="M318.5,-1044C318.5,-1044 252.5,-1044 252.5,-1044 246.5,-1044 240.5,-1038 240.5,-1032 240.5,-1032 240.5,-1020 240.5,-1020 240.5,-1014 246.5,-1008 252.5,-1008 252.5,-1008 318.5,-1008 318.5,-1008 324.5,-1008 330.5,-1014 330.5,-1020 330.5,-1020 330.5,-1032 330.5,-1032 330.5,-1038 324.5,-1044 318.5,-1044"/>
<text text-anchor="middle" x="285.5" y="-1023.5" font-family="sans" font-size="10.00" fill="#000000">sort_multiPASS</text>
</g>
<!-- 36&#45;&gt;15 -->
<g id="edge36" class="edge">
<title>36&#45;&gt;15</title>
<path fill="none" stroke="#c0c0c0" stroke-width="2" d="M282.7823,-1007.8098C277.5364,-966.8307 269.4849,-865.1621 305.5,-792 311.0098,-780.8073 319.9191,-770.8197 329.1632,-762.57"/>
<polygon fill="#c0c0c0" stroke="#c0c0c0" stroke-width="2" points="331.518,-765.1633 336.9397,-756.0607 327.0249,-759.7955 331.518,-765.1633"/>
</g>
<!-- 37&#45;&gt;36 -->
<g id="edge67" class="edge">
<title>37&#45;&gt;36</title>
<path fill="none" stroke="#c0c0c0" stroke-width="2" d="M285.5,-1079.8314C285.5,-1072.131 285.5,-1062.9743 285.5,-1054.4166"/>
<polygon fill="#c0c0c0" stroke="#c0c0c0" stroke-width="2" points="289.0001,-1054.4132 285.5,-1044.4133 282.0001,-1054.4133 289.0001,-1054.4132"/>
</g>
<!-- 38 -->
<g id="node39" class="node">
<title>38</title>
<path fill="none" stroke="#56d8d0" stroke-width="2" d="M543,-468C543,-468 494,-468 494,-468 488,-468 482,-462 482,-456 482,-456 482,-444 482,-444 482,-438 488,-432 494,-432 494,-432 543,-432 543,-432 549,-432 555,-438 555,-444 555,-444 555,-456 555,-456 555,-462 549,-468 543,-468"/>
<text text-anchor="middle" x="518.5" y="-447.5" font-family="sans" font-size="10.00" fill="#000000">bgzipPindel</text>
</g>
<!-- 38&#45;&gt;0 -->
<g id="edge3" class="edge">
<title>38&#45;&gt;0</title>
<path fill="none" stroke="#c0c0c0" stroke-width="2" d="M494.1977,-431.8596C483.0207,-422.3349 470.4979,-409.7849 462.5,-396 425.228,-331.7595 421.5,-308.2701 421.5,-234 421.5,-234 421.5,-234 421.5,-162 421.5,-121.5282 414.032,-75.2037 408.46,-46.2725"/>
<polygon fill="#c0c0c0" stroke="#c0c0c0" stroke-width="2" points="411.8177,-45.2111 406.4368,-36.0844 404.9517,-46.5746 411.8177,-45.2111"/>
</g>
<!-- 38&#45;&gt;10 -->
<g id="edge25" class="edge">
<title>38&#45;&gt;10</title>
<path fill="none" stroke="#c0c0c0" stroke-width="2" d="M544.0926,-431.8957C556.3006,-422.2916 570.4072,-409.6627 580.5,-396 645.9101,-307.4543 674.389,-175.797 684.2061,-118.4326"/>
<polygon fill="#c0c0c0" stroke="#c0c0c0" stroke-width="2" points="687.7034,-118.7347 685.8765,-108.2986 680.7966,-117.5962 687.7034,-118.7347"/>
</g>
<!-- 38&#45;&gt;56 -->
<g id="edge95" class="edge">
<title>38&#45;&gt;56</title>
<path fill="none" stroke="#c0c0c0" stroke-width="2" d="M517.2383,-431.8314C516.7035,-424.131 516.0677,-414.9743 515.4734,-406.4166"/>
<polygon fill="#c0c0c0" stroke="#c0c0c0" stroke-width="2" points="518.9632,-406.1467 514.7787,-396.4133 511.98,-406.6317 518.9632,-406.1467"/>
</g>
<!-- 57 -->
<g id="node58" class="node">
<title>57</title>
<path fill="none" stroke="#56d8b1" stroke-width="2" d="M591.5,-324C591.5,-324 499.5,-324 499.5,-324 493.5,-324 487.5,-318 487.5,-312 487.5,-312 487.5,-300 487.5,-300 487.5,-294 493.5,-288 499.5,-288 499.5,-288 591.5,-288 591.5,-288 597.5,-288 603.5,-294 603.5,-300 603.5,-300 603.5,-312 603.5,-312 603.5,-318 597.5,-324 591.5,-324"/>
<text text-anchor="middle" x="545.5" y="-303.5" font-family="sans" font-size="10.00" fill="#000000">appendPindeltoPASS</text>
</g>
<!-- 38&#45;&gt;57 -->
<g id="edge97" class="edge">
<title>38&#45;&gt;57</title>
<path fill="none" stroke="#c0c0c0" stroke-width="2" d="M540.2672,-431.8165C549.9723,-422.2816 560.3597,-409.7355 565.5,-396 573.121,-375.6359 567.0224,-351.5418 559.6186,-333.4103"/>
<polygon fill="#c0c0c0" stroke="#c0c0c0" stroke-width="2" points="562.7041,-331.7342 555.45,-324.0122 556.3053,-334.5725 562.7041,-331.7342"/>
</g>
<!-- 38&#45;&gt;58 -->
<g id="edge99" class="edge">
<title>38&#45;&gt;58</title>
<path fill="none" stroke="#c0c0c0" stroke-width="2" d="M481.8527,-432.7542C461.2763,-423.0712 435.363,-410.8767 413.2172,-400.4552"/>
<polygon fill="#c0c0c0" stroke="#c0c0c0" stroke-width="2" points="414.5219,-397.201 403.9834,-396.1098 411.5412,-403.5347 414.5219,-397.201"/>
</g>
<!-- 39 -->
<g id="node40" class="node">
<title>39</title>
<path fill="none" stroke="#d86e56" stroke-width="2" d="M561,-684C561,-684 516,-684 516,-684 510,-684 504,-678 504,-672 504,-672 504,-660 504,-660 504,-654 510,-648 516,-648 516,-648 561,-648 561,-648 567,-648 573,-654 573,-660 573,-660 573,-672 573,-672 573,-678 567,-684 561,-684"/>
<text text-anchor="middle" x="538.5" y="-663.5" font-family="sans" font-size="10.00" fill="#000000">filterPindel</text>
</g>
<!-- 39&#45;&gt;38 -->
<g id="edge69" class="edge">
<title>39&#45;&gt;38</title>
<path fill="none" stroke="#c0c0c0" stroke-width="2" d="M536.8292,-647.9555C533.3439,-610.3144 525.2765,-523.1867 521.1041,-478.1246"/>
<polygon fill="#c0c0c0" stroke="#c0c0c0" stroke-width="2" points="524.5873,-477.7797 520.1801,-468.1451 517.6171,-478.4252 524.5873,-477.7797"/>
</g>
<!-- 40 -->
<g id="node41" class="node">
<title>40</title>
<path fill="none" stroke="#a7d856" stroke-width="2" d="M608.5,-756C608.5,-756 542.5,-756 542.5,-756 536.5,-756 530.5,-750 530.5,-744 530.5,-744 530.5,-732 530.5,-732 530.5,-726 536.5,-720 542.5,-720 542.5,-720 608.5,-720 608.5,-720 614.5,-720 620.5,-726 620.5,-732 620.5,-732 620.5,-744 620.5,-744 620.5,-750 614.5,-756 608.5,-756"/>
<text text-anchor="middle" x="575.5" y="-735.5" font-family="sans" font-size="10.00" fill="#000000">annotatePindel</text>
</g>
<!-- 40&#45;&gt;39 -->
<g id="edge70" class="edge">
<title>40&#45;&gt;39</title>
<path fill="none" stroke="#c0c0c0" stroke-width="2" d="M566.1633,-719.8314C562.0757,-711.8771 557.1896,-702.369 552.6691,-693.5723"/>
<polygon fill="#c0c0c0" stroke="#c0c0c0" stroke-width="2" points="555.6461,-691.7078 547.9624,-684.4133 549.4201,-694.9074 555.6461,-691.7078"/>
</g>
<!-- 41 -->
<g id="node42" class="node">
<title>41</title>
<path fill="none" stroke="#56d892" stroke-width="2" d="M611.5,-828C611.5,-828 545.5,-828 545.5,-828 539.5,-828 533.5,-822 533.5,-816 533.5,-816 533.5,-804 533.5,-804 533.5,-798 539.5,-792 545.5,-792 545.5,-792 611.5,-792 611.5,-792 617.5,-792 623.5,-798 623.5,-804 623.5,-804 623.5,-816 623.5,-816 623.5,-822 617.5,-828 611.5,-828"/>
<text text-anchor="middle" x="578.5" y="-807.5" font-family="sans" font-size="10.00" fill="#000000">fixPindelDPoAF</text>
</g>
<!-- 41&#45;&gt;40 -->
<g id="edge71" class="edge">
<title>41&#45;&gt;40</title>
<path fill="none" stroke="#c0c0c0" stroke-width="2" d="M577.743,-791.8314C577.4221,-784.131 577.0406,-774.9743 576.684,-766.4166"/>
<polygon fill="#c0c0c0" stroke="#c0c0c0" stroke-width="2" points="580.1806,-766.2589 576.2672,-756.4133 573.1867,-766.5503 580.1806,-766.2589"/>
</g>
<!-- 42 -->
<g id="node43" class="node">
<title>42</title>
<path fill="none" stroke="#56d8a2" stroke-width="2" d="M620.5,-900C620.5,-900 554.5,-900 554.5,-900 548.5,-900 542.5,-894 542.5,-888 542.5,-888 542.5,-876 542.5,-876 542.5,-870 548.5,-864 554.5,-864 554.5,-864 620.5,-864 620.5,-864 626.5,-864 632.5,-870 632.5,-876 632.5,-876 632.5,-888 632.5,-888 632.5,-894 626.5,-900 620.5,-900"/>
<text text-anchor="middle" x="587.5" y="-879.5" font-family="sans" font-size="10.00" fill="#000000">fixContigPindel</text>
</g>
<!-- 42&#45;&gt;41 -->
<g id="edge72" class="edge">
<title>42&#45;&gt;41</title>
<path fill="none" stroke="#c0c0c0" stroke-width="2" d="M585.2289,-863.8314C584.2664,-856.131 583.1218,-846.9743 582.0521,-838.4166"/>
<polygon fill="#c0c0c0" stroke="#c0c0c0" stroke-width="2" points="585.5151,-837.9019 580.8017,-828.4133 578.5691,-838.7702 585.5151,-837.9019"/>
</g>
<!-- 43 -->
<g id="node44" class="node">
<title>43</title>
<path fill="none" stroke="#61d856" stroke-width="2" d="M611.5,-972C611.5,-972 567.5,-972 567.5,-972 561.5,-972 555.5,-966 555.5,-960 555.5,-960 555.5,-948 555.5,-948 555.5,-942 561.5,-936 567.5,-936 567.5,-936 611.5,-936 611.5,-936 617.5,-936 623.5,-942 623.5,-948 623.5,-948 623.5,-960 623.5,-960 623.5,-966 617.5,-972 611.5,-972"/>
<text text-anchor="middle" x="589.5" y="-951.5" font-family="sans" font-size="10.00" fill="#000000">pindel2vcf</text>
</g>
<!-- 43&#45;&gt;42 -->
<g id="edge73" class="edge">
<title>43&#45;&gt;42</title>
<path fill="none" stroke="#c0c0c0" stroke-width="2" d="M588.9953,-935.8314C588.7814,-928.131 588.5271,-918.9743 588.2894,-910.4166"/>
<polygon fill="#c0c0c0" stroke="#c0c0c0" stroke-width="2" points="591.7879,-910.3122 588.0115,-900.4133 584.7906,-910.5066 591.7879,-910.3122"/>
</g>
<!-- 44 -->
<g id="node45" class="node">
<title>44</title>
<path fill="none" stroke="#56a9d8" stroke-width="2" d="M611.5,-1188C611.5,-1188 581.5,-1188 581.5,-1188 575.5,-1188 569.5,-1182 569.5,-1176 569.5,-1176 569.5,-1164 569.5,-1164 569.5,-1158 575.5,-1152 581.5,-1152 581.5,-1152 611.5,-1152 611.5,-1152 617.5,-1152 623.5,-1158 623.5,-1164 623.5,-1164 623.5,-1176 623.5,-1176 623.5,-1182 617.5,-1188 611.5,-1188"/>
<text text-anchor="middle" x="596.5" y="-1167.5" font-family="sans" font-size="10.00" fill="#000000">pindel</text>
</g>
<!-- 44&#45;&gt;43 -->
<g id="edge74" class="edge">
<title>44&#45;&gt;43</title>
<path fill="none" stroke="#c0c0c0" stroke-width="2" d="M595.9152,-1151.9555C594.6979,-1114.3938 591.8837,-1027.5541 590.4207,-982.4103"/>
<polygon fill="#c0c0c0" stroke="#c0c0c0" stroke-width="2" points="593.9102,-982.0264 590.088,-972.1451 586.9139,-982.2532 593.9102,-982.0264"/>
</g>
<!-- 45&#45;&gt;44 -->
<g id="edge75" class="edge">
<title>45&#45;&gt;44</title>
<path fill="none" stroke="#c0c0c0" stroke-width="2" d="M597.7072,-1727.8149C598.0001,-1700.4989 598.5,-1647.2511 598.5,-1602 598.5,-1602 598.5,-1602 598.5,-1314 598.5,-1273.8721 597.7139,-1227.4602 597.1274,-1198.416"/>
<polygon fill="#c0c0c0" stroke="#c0c0c0" stroke-width="2" points="600.6218,-1198.1092 596.9144,-1188.1843 593.6234,-1198.255 600.6218,-1198.1092"/>
</g>
<!-- 46 -->
<g id="node47" class="node">
<title>46</title>
<path fill="none" stroke="#56d8c1" stroke-width="2" d="M857,-180C857,-180 748,-180 748,-180 742,-180 736,-174 736,-168 736,-168 736,-156 736,-156 736,-150 742,-144 748,-144 748,-144 857,-144 857,-144 863,-144 869,-150 869,-156 869,-156 869,-168 869,-168 869,-174 863,-180 857,-180"/>
<text text-anchor="middle" x="802.5" y="-159.5" font-family="sans" font-size="10.00" fill="#000000">callCopyRatioSegments</text>
</g>
<!-- 46&#45;&gt;10 -->
<g id="edge23" class="edge">
<title>46&#45;&gt;10</title>
<path fill="none" stroke="#c0c0c0" stroke-width="2" d="M773.733,-143.8314C759.2867,-134.7074 741.6035,-123.539 726.096,-113.7449"/>
<polygon fill="#c0c0c0" stroke="#c0c0c0" stroke-width="2" points="727.5817,-110.5436 717.2578,-108.1628 723.8437,-116.462 727.5817,-110.5436"/>
</g>
<!-- 47 -->
<g id="node48" class="node">
<title>47</title>
<path fill="none" stroke="#97d856" stroke-width="2" d="M852.5,-252C852.5,-252 780.5,-252 780.5,-252 774.5,-252 768.5,-246 768.5,-240 768.5,-240 768.5,-228 768.5,-228 768.5,-222 774.5,-216 780.5,-216 780.5,-216 852.5,-216 852.5,-216 858.5,-216 864.5,-222 864.5,-228 864.5,-228 864.5,-240 864.5,-240 864.5,-246 858.5,-252 852.5,-252"/>
<text text-anchor="middle" x="816.5" y="-231.5" font-family="sans" font-size="10.00" fill="#000000">modelSegments</text>
</g>
<!-- 47&#45;&gt;46 -->
<g id="edge78" class="edge">
<title>47&#45;&gt;46</title>
<path fill="none" stroke="#c0c0c0" stroke-width="2" d="M812.9672,-215.8314C811.4699,-208.131 809.6895,-198.9743 808.0255,-190.4166"/>
<polygon fill="#c0c0c0" stroke="#c0c0c0" stroke-width="2" points="811.4248,-189.5614 806.0804,-180.4133 804.5535,-190.8975 811.4248,-189.5614"/>
</g>
<!-- 51 -->
<g id="node52" class="node">
<title>51</title>
<path fill="none" stroke="#56d8d8" stroke-width="2" d="M1000,-180C1000,-180 899,-180 899,-180 893,-180 887,-174 887,-168 887,-168 887,-156 887,-156 887,-150 893,-144 899,-144 899,-144 1000,-144 1000,-144 1006,-144 1012,-150 1012,-156 1012,-156 1012,-168 1012,-168 1012,-174 1006,-180 1000,-180"/>
<text text-anchor="middle" x="949.5" y="-159.5" font-family="sans" font-size="10.00" fill="#000000">plotModeledSegments</text>
</g>
<!-- 47&#45;&gt;51 -->
<g id="edge86" class="edge">
<title>47&#45;&gt;51</title>
<path fill="none" stroke="#c0c0c0" stroke-width="2" d="M850.0615,-215.8314C867.3881,-206.4516 888.7058,-194.9112 907.1536,-184.9244"/>
<polygon fill="#c0c0c0" stroke="#c0c0c0" stroke-width="2" points="908.8214,-188.0015 915.9492,-180.1628 905.4889,-181.8457 908.8214,-188.0015"/>
</g>
<!-- 48 -->
<g id="node49" class="node">
<title>48</title>
<path fill="none" stroke="#9fd856" stroke-width="2" d="M875,-324C875,-324 786,-324 786,-324 780,-324 774,-318 774,-312 774,-312 774,-300 774,-300 774,-294 780,-288 786,-288 786,-288 875,-288 875,-288 881,-288 887,-294 887,-300 887,-300 887,-312 887,-312 887,-318 881,-324 875,-324"/>
<text text-anchor="middle" x="830.5" y="-303.5" font-family="sans" font-size="10.00" fill="#000000">denoiseReadCounts</text>
</g>
<!-- 48&#45;&gt;47 -->
<g id="edge79" class="edge">
<title>48&#45;&gt;47</title>
<path fill="none" stroke="#c0c0c0" stroke-width="2" d="M826.9672,-287.8314C825.4699,-280.131 823.6895,-270.9743 822.0255,-262.4166"/>
<polygon fill="#c0c0c0" stroke="#c0c0c0" stroke-width="2" points="825.4248,-261.5614 820.0804,-252.4133 818.5535,-262.8975 825.4248,-261.5614"/>
</g>
<!-- 48&#45;&gt;51 -->
<g id="edge87" class="edge">
<title>48&#45;&gt;51</title>
<path fill="none" stroke="#c0c0c0" stroke-width="2" d="M845.5714,-287.7623C866.4051,-262.5518 904.1227,-216.9103 927.9353,-188.0952"/>
<polygon fill="#c0c0c0" stroke="#c0c0c0" stroke-width="2" points="930.8787,-190.0277 934.5509,-180.0896 925.4827,-185.5685 930.8787,-190.0277"/>
</g>
<!-- 49&#45;&gt;48 -->
<g id="edge81" class="edge">
<title>49&#45;&gt;48</title>
<path fill="none" stroke="#c0c0c0" stroke-width="2" d="M862.2168,-1727.6673C846.9232,-1701.0239 821.5,-1649.5783 821.5,-1602 821.5,-1602 821.5,-1602 821.5,-450 821.5,-409.7977 825.0375,-363.4047 827.6768,-334.385"/>
<polygon fill="#c0c0c0" stroke="#c0c0c0" stroke-width="2" points="831.1864,-334.4457 828.6352,-324.1626 824.217,-333.7923 831.1864,-334.4457"/>
</g>
<!-- 50&#45;&gt;47 -->
<g id="edge80" class="edge">
<title>50&#45;&gt;47</title>
<path fill="none" stroke="#c0c0c0" stroke-width="2" d="M745.5,-1727.8146C745.5,-1700.4983 745.5,-1647.25 745.5,-1602 745.5,-1602 745.5,-1602 745.5,-378 745.5,-337.0242 746.2971,-324.1975 765.5,-288 771.006,-277.6213 779.0526,-267.7903 787.134,-259.4318"/>
<polygon fill="#c0c0c0" stroke="#c0c0c0" stroke-width="2" points="789.8166,-261.7027 794.4937,-252.1961 784.909,-256.711 789.8166,-261.7027"/>
</g>
<!-- 51&#45;&gt;0 -->
<g id="edge2" class="edge">
<title>51&#45;&gt;0</title>
<path fill="none" stroke="#c0c0c0" stroke-width="2" d="M912.6463,-143.9221C869.6658,-123.5525 796.0062,-90.8357 729.5,-72 626.6626,-42.8747 500.8985,-27.5852 439.6226,-21.3874"/>
<polygon fill="#c0c0c0" stroke="#c0c0c0" stroke-width="2" points="439.9481,-17.9026 429.6524,-20.4021 439.2597,-24.8687 439.9481,-17.9026"/>
</g>
<!-- 51&#45;&gt;10 -->
<g id="edge24" class="edge">
<title>51&#45;&gt;10</title>
<path fill="none" stroke="#c0c0c0" stroke-width="2" d="M886.984,-144.7542C838.537,-131.3895 772.7467,-113.2405 730.449,-101.5721"/>
<polygon fill="#c0c0c0" stroke="#c0c0c0" stroke-width="2" points="731.3208,-98.182 720.7501,-98.8966 729.4593,-104.9299 731.3208,-98.182"/>
</g>
<!-- 52&#45;&gt;10 -->
<g id="edge28" class="edge">
<title>52&#45;&gt;10</title>
<path fill="none" stroke="#c0c0c0" stroke-width="2" d="M987.5914,-1727.7475C1007.6248,-1701.6068 1040.5,-1651.2121 1040.5,-1602 1040.5,-1602 1040.5,-1602 1040.5,-234 1040.5,-193.1184 1051.0831,-172.2161 1021.5,-144 980.4835,-104.8789 811.1237,-94.0456 730.9474,-91.0884"/>
<polygon fill="#c0c0c0" stroke="#c0c0c0" stroke-width="2" points="730.8217,-87.5821 720.7071,-90.7358 730.5807,-94.5779 730.8217,-87.5821"/>
</g>
<!-- 53 -->
<g id="node54" class="node">
<title>53</title>
<path fill="none" stroke="#56d8d8" stroke-width="2" d="M975,-612C975,-612 886,-612 886,-612 880,-612 874,-606 874,-600 874,-600 874,-588 874,-588 874,-582 880,-576 886,-576 886,-576 975,-576 975,-576 981,-576 987,-582 987,-588 987,-588 987,-600 987,-600 987,-606 981,-612 975,-612"/>
<text text-anchor="middle" x="930.5" y="-591.5" font-family="sans" font-size="10.00" fill="#000000">fixCoverageHotspot</text>
</g>
<!-- 52&#45;&gt;53 -->
<g id="edge90" class="edge">
<title>52&#45;&gt;53</title>
<path fill="none" stroke="#c0c0c0" stroke-width="2" d="M968.1488,-1727.9379C961.9978,-1700.7787 951.5,-1647.7286 951.5,-1602 951.5,-1602 951.5,-1602 951.5,-738 951.5,-697.2729 943.173,-650.7384 937.0061,-621.8595"/>
<polygon fill="#c0c0c0" stroke="#c0c0c0" stroke-width="2" points="940.4177,-621.0768 934.8512,-612.0621 933.5811,-622.5806 940.4177,-621.0768"/>
</g>
<!-- 52&#45;&gt;62 -->
<g id="edge106" class="edge">
<title>52&#45;&gt;62</title>
<path fill="none" stroke="#c0c0c0" stroke-width="2" d="M999.5434,-1732.2879C1019.4342,-1722.2024 1046.9135,-1708.2692 1070.0178,-1696.5543"/>
<polygon fill="#c0c0c0" stroke="#c0c0c0" stroke-width="2" points="1071.6232,-1699.6646 1078.9594,-1692.0206 1068.4575,-1693.4213 1071.6232,-1699.6646"/>
</g>
<!-- 53&#45;&gt;10 -->
<g id="edge26" class="edge">
<title>53&#45;&gt;10</title>
<path fill="none" stroke="#c0c0c0" stroke-width="2" d="M917.3432,-575.8448C887.1353,-533.5096 811.854,-424.2184 765.5,-324 732.4233,-252.4875 707.0759,-162.7152 695.4633,-118.0005"/>
<polygon fill="#c0c0c0" stroke="#c0c0c0" stroke-width="2" points="698.8113,-116.9658 692.9383,-108.1477 692.0304,-118.7036 698.8113,-116.9658"/>
</g>
<!-- 54 -->
<g id="node55" class="node">
<title>54</title>
<path fill="none" stroke="#d8cb56" stroke-width="2" d="M595.5,-180C595.5,-180 565.5,-180 565.5,-180 559.5,-180 553.5,-174 553.5,-168 553.5,-168 553.5,-156 553.5,-156 553.5,-150 559.5,-144 565.5,-144 565.5,-144 595.5,-144 595.5,-144 601.5,-144 607.5,-150 607.5,-156 607.5,-156 607.5,-168 607.5,-168 607.5,-174 601.5,-180 595.5,-180"/>
<text text-anchor="middle" x="580.5" y="-159.5" font-family="sans" font-size="10.00" fill="#000000">igv</text>
</g>
<!-- 54&#45;&gt;10 -->
<g id="edge27" class="edge">
<title>54&#45;&gt;10</title>
<path fill="none" stroke="#c0c0c0" stroke-width="2" d="M607.753,-143.8314C621.4389,-134.7074 638.1915,-123.539 652.8827,-113.7449"/>
<polygon fill="#c0c0c0" stroke="#c0c0c0" stroke-width="2" points="654.8767,-116.6221 661.2558,-108.1628 650.9938,-110.7977 654.8767,-116.6221"/>
</g>
<!-- 55&#45;&gt;54 -->
<g id="edge91" class="edge">
<title>55&#45;&gt;54</title>
<path fill="none" stroke="#c0c0c0" stroke-width="2" d="M567.0422,-215.8314C568.9884,-208.0463 571.3068,-198.7729 573.4663,-190.1347"/>
<polygon fill="#c0c0c0" stroke="#c0c0c0" stroke-width="2" points="576.8668,-190.9636 575.8967,-180.4133 570.0758,-189.2658 576.8668,-190.9636"/>
</g>
<!-- 56&#45;&gt;55 -->
<g id="edge93" class="edge">
<title>56&#45;&gt;55</title>
<path fill="none" stroke="#c0c0c0" stroke-width="2" d="M497.2742,-359.8042C482.7438,-341.1801 465.566,-311.6908 478.5,-288 486.2689,-273.77 499.5709,-262.7305 513.3269,-254.4494"/>
<polygon fill="#c0c0c0" stroke="#c0c0c0" stroke-width="2" points="515.3506,-257.3284 522.3786,-249.4001 511.9404,-251.2152 515.3506,-257.3284"/>
</g>
<!-- 56&#45;&gt;57 -->
<g id="edge98" class="edge">
<title>56&#45;&gt;57</title>
<path fill="none" stroke="#c0c0c0" stroke-width="2" d="M521.575,-359.8314C525.1102,-351.8771 529.336,-342.369 533.2456,-333.5723"/>
<polygon fill="#c0c0c0" stroke="#c0c0c0" stroke-width="2" points="536.4532,-334.9729 537.3163,-324.4133 530.0565,-332.1299 536.4532,-334.9729"/>
</g>
<!-- 57&#45;&gt;55 -->
<g id="edge92" class="edge">
<title>57&#45;&gt;55</title>
<path fill="none" stroke="#c0c0c0" stroke-width="2" d="M549.7898,-287.8314C551.608,-280.131 553.7699,-270.9743 555.7905,-262.4166"/>
<polygon fill="#c0c0c0" stroke="#c0c0c0" stroke-width="2" points="559.2608,-262.95 558.1524,-252.4133 552.4481,-261.3414 559.2608,-262.95"/>
</g>
<!-- 58&#45;&gt;0 -->
<g id="edge11" class="edge">
<title>58&#45;&gt;0</title>
<path fill="none" stroke="#c0c0c0" stroke-width="2" d="M367.3648,-359.8374C370.001,-332.55 374.5,-279.3383 374.5,-234 374.5,-234 374.5,-234 374.5,-162 374.5,-121.1713 385.4803,-75.0082 393.6887,-46.2028"/>
<polygon fill="#c0c0c0" stroke="#c0c0c0" stroke-width="2" points="397.1027,-46.9987 396.5619,-36.4177 390.3862,-45.0265 397.1027,-46.9987"/>
</g>
<!-- 59 -->
<g id="node60" class="node">
<title>59</title>
<path fill="none" stroke="#d8b456" stroke-width="2" d="M172.5,-180C172.5,-180 106.5,-180 106.5,-180 100.5,-180 94.5,-174 94.5,-168 94.5,-168 94.5,-156 94.5,-156 94.5,-150 100.5,-144 106.5,-144 106.5,-144 172.5,-144 172.5,-144 178.5,-144 184.5,-150 184.5,-156 184.5,-156 184.5,-168 184.5,-168 184.5,-174 178.5,-180 172.5,-180"/>
<text text-anchor="middle" x="139.5" y="-159.5" font-family="sans" font-size="10.00" fill="#000000">gVCFnormalize</text>
</g>
<!-- 59&#45;&gt;0 -->
<g id="edge7" class="edge">
<title>59&#45;&gt;0</title>
<path fill="none" stroke="#c0c0c0" stroke-width="2" d="M115.7133,-143.9833C93.4729,-124.9778 66.3423,-94.6971 85.5,-72 103.4418,-50.7435 285.5802,-29.8551 365.3793,-21.6451"/>
<polygon fill="#c0c0c0" stroke="#c0c0c0" stroke-width="2" points="365.8903,-25.1113 375.4847,-20.6171 365.1818,-18.1472 365.8903,-25.1113"/>
</g>
<!-- 61 -->
<g id="node62" class="node">
<title>61</title>
<path fill="none" stroke="#567bd8" stroke-width="2" d="M172,-108C172,-108 107,-108 107,-108 101,-108 95,-102 95,-96 95,-96 95,-84 95,-84 95,-78 101,-72 107,-72 107,-72 172,-72 172,-72 178,-72 184,-78 184,-84 184,-84 184,-96 184,-96 184,-102 178,-108 172,-108"/>
<text text-anchor="middle" x="139.5" y="-87.5" font-family="sans" font-size="10.00" fill="#000000">gVCFfinalIndex</text>
</g>
<!-- 59&#45;&gt;61 -->
<g id="edge103" class="edge">
<title>59&#45;&gt;61</title>
<path fill="none" stroke="#c0c0c0" stroke-width="2" d="M139.5,-143.8314C139.5,-136.131 139.5,-126.9743 139.5,-118.4166"/>
<polygon fill="#c0c0c0" stroke="#c0c0c0" stroke-width="2" points="143.0001,-118.4132 139.5,-108.4133 136.0001,-118.4133 143.0001,-118.4132"/>
</g>
<!-- 60&#45;&gt;59 -->
<g id="edge101" class="edge">
<title>60&#45;&gt;59</title>
<path fill="none" stroke="#c0c0c0" stroke-width="2" d="M203.2291,-1223.7881C191.781,-1196.8727 172.5,-1144.6212 172.5,-1098 172.5,-1098 172.5,-1098 172.5,-306 172.5,-264.8829 159.559,-218.7926 149.8848,-190.082"/>
<polygon fill="#c0c0c0" stroke="#c0c0c0" stroke-width="2" points="153.0857,-188.6302 146.4985,-180.3321 146.4732,-190.9269 153.0857,-188.6302"/>
</g>
<!-- 61&#45;&gt;0 -->
<g id="edge9" class="edge">
<title>61&#45;&gt;0</title>
<path fill="none" stroke="#c0c0c0" stroke-width="2" d="M184.226,-76.1631C189.0367,-74.732 193.8652,-73.3199 198.5,-72 256.644,-55.4413 324.5915,-37.7929 365.5452,-27.3397"/>
<polygon fill="#c0c0c0" stroke="#c0c0c0" stroke-width="2" points="366.5261,-30.7017 375.3531,-24.8422 364.7987,-23.9181 366.5261,-30.7017"/>
</g>
<!-- 62&#45;&gt;0 -->
<g id="edge6" class="edge">
<title>62&#45;&gt;0</title>
<path fill="none" stroke="#c0c0c0" stroke-width="2" d="M1106.8653,-1655.7257C1096.2979,-1628.7325 1078.5,-1576.3849 1078.5,-1530 1078.5,-1530 1078.5,-1530 1078.5,-162 1078.5,-96.1511 581.4926,-37.3549 439.7944,-21.93"/>
<polygon fill="#c0c0c0" stroke="#c0c0c0" stroke-width="2" points="440.1554,-18.4488 429.8373,-20.8541 439.4033,-25.4082 440.1554,-18.4488"/>
</g>
<!-- 62&#45;&gt;66 -->
<g id="edge112" class="edge">
<title>62&#45;&gt;66</title>
<path fill="none" stroke="#c0c0c0" stroke-width="2" d="M1113.9283,-1655.8561C1114.2811,-1635.8859 1117.8801,-1603.973 1135.5,-1584 1159.6991,-1556.5692 1199.1223,-1543.0494 1230.9065,-1536.3987"/>
<polygon fill="#c0c0c0" stroke="#c0c0c0" stroke-width="2" points="1231.7693,-1539.797 1240.9286,-1534.4718 1230.4477,-1532.9229 1231.7693,-1539.797"/>
</g>
<!-- 68 -->
<g id="node69" class="node">
<title>68</title>
<path fill="none" stroke="#d6d856" stroke-width="2" d="M1220.5,-1620C1220.5,-1620 1156.5,-1620 1156.5,-1620 1150.5,-1620 1144.5,-1614 1144.5,-1608 1144.5,-1608 1144.5,-1596 1144.5,-1596 1144.5,-1590 1150.5,-1584 1156.5,-1584 1156.5,-1584 1220.5,-1584 1220.5,-1584 1226.5,-1584 1232.5,-1590 1232.5,-1596 1232.5,-1596 1232.5,-1608 1232.5,-1608 1232.5,-1614 1226.5,-1620 1220.5,-1620"/>
<text text-anchor="middle" x="1188.5" y="-1599.5" font-family="sans" font-size="10.00" fill="#000000">sortBatchStats</text>
</g>
<!-- 62&#45;&gt;68 -->
<g id="edge121" class="edge">
<title>62&#45;&gt;68</title>
<path fill="none" stroke="#c0c0c0" stroke-width="2" d="M1133.1733,-1655.8314C1142.0249,-1647.219 1152.7486,-1636.7851 1162.3895,-1627.4048"/>
<polygon fill="#c0c0c0" stroke="#c0c0c0" stroke-width="2" points="1165.1061,-1629.645 1169.8326,-1620.1628 1160.2246,-1624.6279 1165.1061,-1629.645"/>
</g>
<!-- 63&#45;&gt;62 -->
<g id="edge108" class="edge">
<title>63&#45;&gt;62</title>
<path fill="none" stroke="#c0c0c0" stroke-width="2" d="M1254.312,-1727.8314C1228.4866,-1717.8879 1196.3548,-1705.5163 1169.4091,-1695.1415"/>
<polygon fill="#c0c0c0" stroke="#c0c0c0" stroke-width="2" points="1170.3275,-1691.7446 1159.7377,-1691.4177 1167.8122,-1698.2772 1170.3275,-1691.7446"/>
</g>
<!-- 63&#45;&gt;66 -->
<g id="edge118" class="edge">
<title>63&#45;&gt;66</title>
<path fill="none" stroke="#c0c0c0" stroke-width="2" d="M1299.8292,-1727.9555C1296.3439,-1690.3144 1288.2765,-1603.1867 1284.1041,-1558.1246"/>
<polygon fill="#c0c0c0" stroke="#c0c0c0" stroke-width="2" points="1287.5873,-1557.7797 1283.1801,-1548.1451 1280.6171,-1558.4252 1287.5873,-1557.7797"/>
</g>
<!-- 64&#45;&gt;62 -->
<g id="edge105" class="edge">
<title>64&#45;&gt;62</title>
<path fill="none" stroke="#c0c0c0" stroke-width="2" d="M1171.322,-1727.8314C1162.1412,-1719.1337 1150.9994,-1708.5783 1141.0224,-1699.1265"/>
<polygon fill="#c0c0c0" stroke="#c0c0c0" stroke-width="2" points="1143.3385,-1696.4995 1133.6719,-1692.1628 1138.5243,-1701.5811 1143.3385,-1696.4995"/>
</g>
<!-- 64&#45;&gt;66 -->
<g id="edge113" class="edge">
<title>64&#45;&gt;66</title>
<path fill="none" stroke="#c0c0c0" stroke-width="2" d="M1198.1021,-1727.9555C1214.0271,-1690.1556 1250.9768,-1602.4506 1269.8906,-1557.5564"/>
<polygon fill="#c0c0c0" stroke="#c0c0c0" stroke-width="2" points="1273.1985,-1558.7195 1273.8556,-1548.1451 1266.7476,-1556.0017 1273.1985,-1558.7195"/>
</g>
<!-- 65&#45;&gt;62 -->
<g id="edge104" class="edge">
<title>65&#45;&gt;62</title>
<path fill="none" stroke="#c0c0c0" stroke-width="2" d="M1097.3039,-1727.8314C1099.7908,-1720.0463 1102.7531,-1710.7729 1105.5125,-1702.1347"/>
<polygon fill="#c0c0c0" stroke="#c0c0c0" stroke-width="2" points="1108.909,-1703.0041 1108.618,-1692.4133 1102.2409,-1700.874 1108.909,-1703.0041"/>
</g>
<!-- 65&#45;&gt;68 -->
<g id="edge120" class="edge">
<title>65&#45;&gt;68</title>
<path fill="none" stroke="#c0c0c0" stroke-width="2" d="M1127.143,-1728.6371C1142.0476,-1719.6613 1158.2513,-1707.3421 1168.5,-1692 1180.746,-1673.668 1185.6041,-1649.0098 1187.4792,-1630.1393"/>
<polygon fill="#c0c0c0" stroke="#c0c0c0" stroke-width="2" points="1190.9772,-1630.2986 1188.257,-1620.059 1183.998,-1629.76 1190.9772,-1630.2986"/>
</g>
<!-- 66&#45;&gt;0 -->
<g id="edge1" class="edge">
<title>66&#45;&gt;0</title>
<path fill="none" stroke="#c0c0c0" stroke-width="2" d="M1260.1621,-1511.8984C1232.9844,-1486.6958 1189.5,-1438.2134 1189.5,-1386 1189.5,-1386 1189.5,-1386 1189.5,-162 1189.5,-103.1904 1146.3639,-95.606 1092.5,-72 1032.5622,-45.7321 574.9632,-25.0662 439.9095,-19.4902"/>
<polygon fill="#c0c0c0" stroke="#c0c0c0" stroke-width="2" points="439.796,-15.9827 429.6612,-19.0705 439.5096,-22.9768 439.796,-15.9827"/>
</g>
<!-- 67&#45;&gt;66 -->
<g id="edge114" class="edge">
<title>67&#45;&gt;66</title>
<path fill="none" stroke="#c0c0c0" stroke-width="2" d="M1509.428,-1943.8427C1506.4989,-1916.5621 1501.5,-1863.359 1501.5,-1818 1501.5,-1818 1501.5,-1818 1501.5,-1674 1501.5,-1631.2408 1498.9006,-1613.0232 1467.5,-1584 1447.7896,-1565.7819 1380.3287,-1549.2857 1332.338,-1539.4487"/>
<polygon fill="#c0c0c0" stroke="#c0c0c0" stroke-width="2" points="1332.911,-1535.9939 1322.417,-1537.4524 1331.5301,-1542.8563 1332.911,-1535.9939"/>
</g>
<!-- 68&#45;&gt;66 -->
<g id="edge115" class="edge">
<title>68&#45;&gt;66</title>
<path fill="none" stroke="#c0c0c0" stroke-width="2" d="M1211.9678,-1583.8314C1223.5327,-1574.8779 1237.6404,-1563.9558 1250.1183,-1554.2955"/>
<polygon fill="#c0c0c0" stroke="#c0c0c0" stroke-width="2" points="1252.275,-1557.0521 1258.0397,-1548.1628 1247.9898,-1551.5171 1252.275,-1557.0521"/>
</g>
</g>
</svg>
