<?xml version="1.0" encoding="UTF-8" standalone="no"?>
<!DOCTYPE svg PUBLIC "-//W3C//DTD SVG 1.1//EN"
 "http://www.w3.org/Graphics/SVG/1.1/DTD/svg11.dtd">
<!-- Generated by graphviz version 2.40.1 (0)
 -->
<!-- Title: snakemake_dag Pages: 1 -->
<svg width="1525pt" height="2204pt"
 viewBox="0.00 0.00 1524.50 2204.00" xmlns="http://www.w3.org/2000/svg" xmlns:xlink="http://www.w3.org/1999/xlink">
<g id="graph0" class="graph" transform="scale(1 1) rotate(0) translate(4 2200)">
<title>snakemake_dag</title>
<polygon fill="#ffffff" stroke="transparent" points="-4,4 -4,-2200 1520.5,-2200 1520.5,4 -4,4"/>
<!-- 0 -->
<g id="node1" class="node">
<title>0</title>
<path fill="none" stroke="#d8d356" stroke-width="2" d="M402.5,-36C402.5,-36 372.5,-36 372.5,-36 366.5,-36 360.5,-30 360.5,-24 360.5,-24 360.5,-12 360.5,-12 360.5,-6 366.5,0 372.5,0 372.5,0 402.5,0 402.5,0 408.5,0 414.5,-6 414.5,-12 414.5,-12 414.5,-24 414.5,-24 414.5,-30 408.5,-36 402.5,-36"/>
<text text-anchor="middle" x="387.5" y="-15.5" font-family="sans" font-size="10.00" fill="#000000">all</text>
</g>
<!-- 1 -->
<g id="node2" class="node">
<title>1</title>
<path fill="none" stroke="#565bd8" stroke-width="2" d="M219,-1404C219,-1404 168,-1404 168,-1404 162,-1404 156,-1398 156,-1392 156,-1392 156,-1380 156,-1380 156,-1374 162,-1368 168,-1368 168,-1368 219,-1368 219,-1368 225,-1368 231,-1374 231,-1380 231,-1380 231,-1392 231,-1392 231,-1398 225,-1404 219,-1404"/>
<text text-anchor="middle" x="193.5" y="-1383.5" font-family="sans" font-size="10.00" fill="#000000">merge_bam</text>
</g>
<!-- 1&#45;&gt;0 -->
<g id="edge10" class="edge">
<title>1&#45;&gt;0</title>
<path fill="none" stroke="#c0c0c0" stroke-width="2" d="M187.5619,-1367.5823C179.3428,-1340.4106 165.5,-1287.8428 165.5,-1242 165.5,-1242 165.5,-1242 165.5,-162 165.5,-117.0781 177.084,-100.8707 211.5,-72 251.2285,-38.6727 311.293,-25.8992 349.959,-21.0131"/>
<polygon fill="#c0c0c0" stroke="#c0c0c0" stroke-width="2" points="350.7256,-24.4483 360.2626,-19.8337 349.9294,-17.4938 350.7256,-24.4483"/>
</g>
<!-- 2 -->
<g id="node3" class="node">
<title>2</title>
<path fill="none" stroke="#56d0d8" stroke-width="2" d="M286.5,-1764C286.5,-1764 254.5,-1764 254.5,-1764 248.5,-1764 242.5,-1758 242.5,-1752 242.5,-1752 242.5,-1740 242.5,-1740 242.5,-1734 248.5,-1728 254.5,-1728 254.5,-1728 286.5,-1728 286.5,-1728 292.5,-1728 298.5,-1734 298.5,-1740 298.5,-1740 298.5,-1752 298.5,-1752 298.5,-1758 292.5,-1764 286.5,-1764"/>
<text text-anchor="middle" x="270.5" y="-1743.5" font-family="sans" font-size="10.00" fill="#000000">Mutect2</text>
</g>
<!-- 2&#45;&gt;1 -->
<g id="edge12" class="edge">
<title>2&#45;&gt;1</title>
<path fill="none" stroke="#c0c0c0" stroke-width="2" d="M245.3499,-1727.9248C214.2866,-1703.2843 165.5,-1655.9908 165.5,-1602 165.5,-1602 165.5,-1602 165.5,-1530 165.5,-1489.1713 176.4803,-1443.0082 184.6887,-1414.2028"/>
<polygon fill="#c0c0c0" stroke="#c0c0c0" stroke-width="2" points="188.1027,-1414.9987 187.5619,-1404.4177 181.3862,-1413.0265 188.1027,-1414.9987"/>
</g>
<!-- 25 -->
<g id="node26" class="node">
<title>25</title>
<path fill="none" stroke="#56d8d8" stroke-width="2" d="M288.5,-1692C288.5,-1692 244.5,-1692 244.5,-1692 238.5,-1692 232.5,-1686 232.5,-1680 232.5,-1680 232.5,-1668 232.5,-1668 232.5,-1662 238.5,-1656 244.5,-1656 244.5,-1656 288.5,-1656 288.5,-1656 294.5,-1656 300.5,-1662 300.5,-1668 300.5,-1668 300.5,-1680 300.5,-1680 300.5,-1686 294.5,-1692 288.5,-1692"/>
<text text-anchor="middle" x="266.5" y="-1671.5" font-family="sans" font-size="10.00" fill="#000000">merge_vcf</text>
</g>
<!-- 2&#45;&gt;25 -->
<g id="edge54" class="edge">
<title>2&#45;&gt;25</title>
<path fill="none" stroke="#c0c0c0" stroke-width="2" d="M269.4906,-1727.8314C269.0628,-1720.131 268.5541,-1710.9743 268.0787,-1702.4166"/>
<polygon fill="#c0c0c0" stroke="#c0c0c0" stroke-width="2" points="271.5724,-1702.2037 267.523,-1692.4133 264.5831,-1702.592 271.5724,-1702.2037"/>
</g>
<!-- 26 -->
<g id="node27" class="node">
<title>26</title>
<path fill="none" stroke="#56d88a" stroke-width="2" d="M384,-1692C384,-1692 331,-1692 331,-1692 325,-1692 319,-1686 319,-1680 319,-1680 319,-1668 319,-1668 319,-1662 325,-1656 331,-1656 331,-1656 384,-1656 384,-1656 390,-1656 396,-1662 396,-1668 396,-1668 396,-1680 396,-1680 396,-1686 390,-1692 384,-1692"/>
<text text-anchor="middle" x="357.5" y="-1671.5" font-family="sans" font-size="10.00" fill="#000000">merge_stats</text>
</g>
<!-- 2&#45;&gt;26 -->
<g id="edge55" class="edge">
<title>2&#45;&gt;26</title>
<path fill="none" stroke="#c0c0c0" stroke-width="2" d="M292.4538,-1727.8314C303.1695,-1718.9632 316.2189,-1708.1637 327.809,-1698.5718"/>
<polygon fill="#c0c0c0" stroke="#c0c0c0" stroke-width="2" points="330.0808,-1701.2349 335.5533,-1692.1628 325.6178,-1695.8422 330.0808,-1701.2349"/>
</g>
<!-- 3 -->
<g id="node4" class="node">
<title>3</title>
<path fill="none" stroke="#61d856" stroke-width="2" d="M291,-1836C291,-1836 250,-1836 250,-1836 244,-1836 238,-1830 238,-1824 238,-1824 238,-1812 238,-1812 238,-1806 244,-1800 250,-1800 250,-1800 291,-1800 291,-1800 297,-1800 303,-1806 303,-1812 303,-1812 303,-1824 303,-1824 303,-1830 297,-1836 291,-1836"/>
<text text-anchor="middle" x="270.5" y="-1815.5" font-family="sans" font-size="10.00" fill="#000000">Split_bam</text>
</g>
<!-- 3&#45;&gt;2 -->
<g id="edge14" class="edge">
<title>3&#45;&gt;2</title>
<path fill="none" stroke="#c0c0c0" stroke-width="2" d="M270.5,-1799.8314C270.5,-1792.131 270.5,-1782.9743 270.5,-1774.4166"/>
<polygon fill="#c0c0c0" stroke="#c0c0c0" stroke-width="2" points="274.0001,-1774.4132 270.5,-1764.4133 267.0001,-1774.4133 274.0001,-1774.4132"/>
</g>
<!-- 4 -->
<g id="node5" class="node">
<title>4</title>
<path fill="none" stroke="#56d863" stroke-width="2" d="M838.5,-1980C838.5,-1980 768.5,-1980 768.5,-1980 762.5,-1980 756.5,-1974 756.5,-1968 756.5,-1968 756.5,-1956 756.5,-1956 756.5,-1950 762.5,-1944 768.5,-1944 768.5,-1944 838.5,-1944 838.5,-1944 844.5,-1944 850.5,-1950 850.5,-1956 850.5,-1956 850.5,-1968 850.5,-1968 850.5,-1974 844.5,-1980 838.5,-1980"/>
<text text-anchor="middle" x="803.5" y="-1959.5" font-family="sans" font-size="10.00" fill="#000000">markDuplicates</text>
</g>
<!-- 4&#45;&gt;0 -->
<g id="edge5" class="edge">
<title>4&#45;&gt;0</title>
<path fill="none" stroke="#c0c0c0" stroke-width="2" d="M850.7206,-1960.3646C957.566,-1956.0944 1214.6903,-1942.4553 1293.5,-1908 1447.6905,-1840.5885 1516.5,-1770.2825 1516.5,-1602 1516.5,-1602 1516.5,-1602 1516.5,-162 1516.5,-49.2836 619.5731,-23.0991 424.6093,-18.7389"/>
<polygon fill="#c0c0c0" stroke="#c0c0c0" stroke-width="2" points="424.6448,-15.2389 414.5709,-18.5199 424.4922,-22.2372 424.6448,-15.2389"/>
</g>
<!-- 4&#45;&gt;3 -->
<g id="edge15" class="edge">
<title>4&#45;&gt;3</title>
<path fill="none" stroke="#c0c0c0" stroke-width="2" d="M756.164,-1959.9364C636.9496,-1954.3254 331.3456,-1937.2214 296.5,-1908 278.6716,-1893.0491 272.6497,-1866.7015 270.8064,-1846.3642"/>
<polygon fill="#c0c0c0" stroke="#c0c0c0" stroke-width="2" points="274.2988,-1846.1318 270.1829,-1836.3691 267.3124,-1846.5676 274.2988,-1846.1318"/>
</g>
<!-- 8 -->
<g id="node9" class="node">
<title>8</title>
<path fill="none" stroke="#a7d856" stroke-width="2" d="M423,-1908C423,-1908 318,-1908 318,-1908 312,-1908 306,-1902 306,-1896 306,-1896 306,-1884 306,-1884 306,-1878 312,-1872 318,-1872 318,-1872 423,-1872 423,-1872 429,-1872 435,-1878 435,-1884 435,-1884 435,-1896 435,-1896 435,-1902 429,-1908 423,-1908"/>
<text text-anchor="middle" x="370.5" y="-1887.5" font-family="sans" font-size="10.00" fill="#000000">samtools_index_dedup</text>
</g>
<!-- 4&#45;&gt;8 -->
<g id="edge21" class="edge">
<title>4&#45;&gt;8</title>
<path fill="none" stroke="#c0c0c0" stroke-width="2" d="M756.3599,-1955.9187C688.3409,-1946.8926 558.8284,-1928.7653 449.5,-1908 448.0317,-1907.7211 446.5491,-1907.4344 445.0561,-1907.1409"/>
<polygon fill="#c0c0c0" stroke="#c0c0c0" stroke-width="2" points="445.5855,-1903.6771 435.0892,-1905.1184 444.1934,-1910.5373 445.5855,-1903.6771"/>
</g>
<!-- 10 -->
<g id="node11" class="node">
<title>10</title>
<path fill="none" stroke="#d85656" stroke-width="2" d="M901.5,-108C901.5,-108 861.5,-108 861.5,-108 855.5,-108 849.5,-102 849.5,-96 849.5,-96 849.5,-84 849.5,-84 849.5,-78 855.5,-72 861.5,-72 861.5,-72 901.5,-72 901.5,-72 907.5,-72 913.5,-78 913.5,-84 913.5,-84 913.5,-96 913.5,-96 913.5,-102 907.5,-108 901.5,-108"/>
<text text-anchor="middle" x="881.5" y="-87.5" font-family="sans" font-size="10.00" fill="#000000">vcf2excel</text>
</g>
<!-- 4&#45;&gt;10 -->
<g id="edge26" class="edge">
<title>4&#45;&gt;10</title>
<path fill="none" stroke="#c0c0c0" stroke-width="2" d="M825.6274,-1943.932C865.2604,-1910.8919 949.7034,-1837.3577 1008.5,-1764 1097.9825,-1652.3569 1108.5,-1601.078 1108.5,-1458 1108.5,-1458 1108.5,-1458 1108.5,-1098 1108.5,-1001.999 1109.5,-978.001 1109.5,-882 1109.5,-882 1109.5,-882 1109.5,-234 1109.5,-185.4273 1086.4299,-173.0477 1047.5,-144 1037.3169,-136.4018 969.2437,-115.5866 923.493,-102.1306"/>
<polygon fill="#c0c0c0" stroke="#c0c0c0" stroke-width="2" points="924.395,-98.7478 913.8143,-99.2956 922.4272,-105.4656 924.395,-98.7478"/>
</g>
<!-- 28 -->
<g id="node29" class="node">
<title>28</title>
<path fill="none" stroke="#56d8b1" stroke-width="2" d="M207.5,-1836C207.5,-1836 177.5,-1836 177.5,-1836 171.5,-1836 165.5,-1830 165.5,-1824 165.5,-1824 165.5,-1812 165.5,-1812 165.5,-1806 171.5,-1800 177.5,-1800 177.5,-1800 207.5,-1800 207.5,-1800 213.5,-1800 219.5,-1806 219.5,-1812 219.5,-1812 219.5,-1824 219.5,-1824 219.5,-1830 213.5,-1836 207.5,-1836"/>
<text text-anchor="middle" x="192.5" y="-1815.5" font-family="sans" font-size="10.00" fill="#000000">vardict</text>
</g>
<!-- 4&#45;&gt;28 -->
<g id="edge57" class="edge">
<title>4&#45;&gt;28</title>
<path fill="none" stroke="#c0c0c0" stroke-width="2" d="M756.3958,-1959.1671C634.4758,-1951.5597 315.0904,-1929.7821 272.5,-1908 244.8137,-1893.8404 222.292,-1865.7496 208.2806,-1844.6978"/>
<polygon fill="#c0c0c0" stroke="#c0c0c0" stroke-width="2" points="211.1531,-1842.6934 202.8065,-1836.1677 205.2618,-1846.4741 211.1531,-1842.6934"/>
</g>
<!-- 31 -->
<g id="node32" class="node">
<title>31</title>
<path fill="none" stroke="#56d8c1" stroke-width="2" d="M440.5,-1620C440.5,-1620 410.5,-1620 410.5,-1620 404.5,-1620 398.5,-1614 398.5,-1608 398.5,-1608 398.5,-1596 398.5,-1596 398.5,-1590 404.5,-1584 410.5,-1584 410.5,-1584 440.5,-1584 440.5,-1584 446.5,-1584 452.5,-1590 452.5,-1596 452.5,-1596 452.5,-1608 452.5,-1608 452.5,-1614 446.5,-1620 440.5,-1620"/>
<text text-anchor="middle" x="425.5" y="-1599.5" font-family="sans" font-size="10.00" fill="#000000">pisces</text>
</g>
<!-- 4&#45;&gt;31 -->
<g id="edge62" class="edge">
<title>4&#45;&gt;31</title>
<path fill="none" stroke="#c0c0c0" stroke-width="2" d="M756.2245,-1952.3301C662.8018,-1931.8578 463.5,-1880.8216 463.5,-1818 463.5,-1818 463.5,-1818 463.5,-1746 463.5,-1704.3681 448.4672,-1658.14 437.3119,-1629.567"/>
<polygon fill="#c0c0c0" stroke="#c0c0c0" stroke-width="2" points="440.5368,-1628.2055 433.5588,-1620.2332 434.0422,-1630.817 440.5368,-1628.2055"/>
</g>
<!-- 34 -->
<g id="node35" class="node">
<title>34</title>
<path fill="none" stroke="#d87d56" stroke-width="2" d="M545,-1836C545,-1836 504,-1836 504,-1836 498,-1836 492,-1830 492,-1824 492,-1824 492,-1812 492,-1812 492,-1806 498,-1800 504,-1800 504,-1800 545,-1800 545,-1800 551,-1800 557,-1806 557,-1812 557,-1812 557,-1824 557,-1824 557,-1830 551,-1836 545,-1836"/>
<text text-anchor="middle" x="524.5" y="-1815.5" font-family="sans" font-size="10.00" fill="#000000">freebayes</text>
</g>
<!-- 4&#45;&gt;34 -->
<g id="edge66" class="edge">
<title>4&#45;&gt;34</title>
<path fill="none" stroke="#c0c0c0" stroke-width="2" d="M765.5575,-1943.9931C744.0279,-1933.6628 716.6415,-1920.3328 692.5,-1908 649.1366,-1885.8476 600.1111,-1859.4225 566.2633,-1840.9577"/>
<polygon fill="#c0c0c0" stroke="#c0c0c0" stroke-width="2" points="567.59,-1837.6943 557.1363,-1835.9709 564.2336,-1843.8372 567.59,-1837.6943"/>
</g>
<!-- 46 -->
<g id="node47" class="node">
<title>46</title>
<path fill="none" stroke="#d88d56" stroke-width="2" d="M763,-1836C763,-1836 718,-1836 718,-1836 712,-1836 706,-1830 706,-1824 706,-1824 706,-1812 706,-1812 706,-1806 712,-1800 718,-1800 718,-1800 763,-1800 763,-1800 769,-1800 775,-1806 775,-1812 775,-1812 775,-1824 775,-1824 775,-1830 769,-1836 763,-1836"/>
<text text-anchor="middle" x="740.5" y="-1815.5" font-family="sans" font-size="10.00" fill="#000000">pindelConf</text>
</g>
<!-- 4&#45;&gt;46 -->
<g id="edge79" class="edge">
<title>4&#45;&gt;46</title>
<path fill="none" stroke="#c0c0c0" stroke-width="2" d="M795.521,-1943.7623C784.6808,-1918.9846 765.2062,-1874.4714 752.5723,-1845.5939"/>
<polygon fill="#c0c0c0" stroke="#c0c0c0" stroke-width="2" points="755.629,-1843.8483 748.4142,-1836.0896 749.2159,-1846.6541 755.629,-1843.8483"/>
</g>
<!-- 50 -->
<g id="node51" class="node">
<title>50</title>
<path fill="none" stroke="#56c1d8" stroke-width="2" d="M95,-1836C95,-1836 12,-1836 12,-1836 6,-1836 0,-1830 0,-1824 0,-1824 0,-1812 0,-1812 0,-1806 6,-1800 12,-1800 12,-1800 95,-1800 95,-1800 101,-1800 107,-1806 107,-1812 107,-1812 107,-1824 107,-1824 107,-1830 101,-1836 95,-1836"/>
<text text-anchor="middle" x="53.5" y="-1815.5" font-family="sans" font-size="10.00" fill="#000000">collectReadCounts</text>
</g>
<!-- 4&#45;&gt;50 -->
<g id="edge85" class="edge">
<title>4&#45;&gt;50</title>
<path fill="none" stroke="#c0c0c0" stroke-width="2" d="M756.1397,-1959.9151C636.6738,-1954.2813 325.5435,-1937.1796 226.5,-1908 175.8199,-1893.0689 122.6413,-1862.8976 88.843,-1841.615"/>
<polygon fill="#c0c0c0" stroke="#c0c0c0" stroke-width="2" points="90.5748,-1838.5682 80.2621,-1836.1396 86.8094,-1844.4693 90.5748,-1838.5682"/>
</g>
<!-- 51 -->
<g id="node52" class="node">
<title>51</title>
<path fill="none" stroke="#56d87b" stroke-width="2" d="M676,-1836C676,-1836 587,-1836 587,-1836 581,-1836 575,-1830 575,-1824 575,-1824 575,-1812 575,-1812 575,-1806 581,-1800 587,-1800 587,-1800 676,-1800 676,-1800 682,-1800 688,-1806 688,-1812 688,-1812 688,-1824 688,-1824 688,-1830 682,-1836 676,-1836"/>
<text text-anchor="middle" x="631.5" y="-1815.5" font-family="sans" font-size="10.00" fill="#000000">collectAllelicCounts</text>
</g>
<!-- 4&#45;&gt;51 -->
<g id="edge87" class="edge">
<title>4&#45;&gt;51</title>
<path fill="none" stroke="#c0c0c0" stroke-width="2" d="M781.7161,-1943.7623C751.0866,-1918.119 695.2083,-1871.3372 660.9146,-1842.6262"/>
<polygon fill="#c0c0c0" stroke="#c0c0c0" stroke-width="2" points="663.0214,-1839.8254 653.107,-1836.0896 658.5279,-1845.1927 663.0214,-1839.8254"/>
</g>
<!-- 53 -->
<g id="node54" class="node">
<title>53</title>
<path fill="none" stroke="#d85e56" stroke-width="2" d="M885,-1836C885,-1836 844,-1836 844,-1836 838,-1836 832,-1830 832,-1824 832,-1824 832,-1812 832,-1812 832,-1806 838,-1800 844,-1800 844,-1800 885,-1800 885,-1800 891,-1800 897,-1806 897,-1812 897,-1812 897,-1824 897,-1824 897,-1830 891,-1836 885,-1836"/>
<text text-anchor="middle" x="864.5" y="-1815.5" font-family="sans" font-size="10.00" fill="#000000">mosdepth</text>
</g>
<!-- 4&#45;&gt;53 -->
<g id="edge91" class="edge">
<title>4&#45;&gt;53</title>
<path fill="none" stroke="#c0c0c0" stroke-width="2" d="M811.2257,-1943.7623C821.7218,-1918.9846 840.5781,-1874.4714 852.8109,-1845.5939"/>
<polygon fill="#c0c0c0" stroke="#c0c0c0" stroke-width="2" points="856.1592,-1846.6628 856.837,-1836.0896 849.7136,-1843.9323 856.1592,-1846.6628"/>
</g>
<!-- 58 -->
<g id="node59" class="node">
<title>58</title>
<path fill="none" stroke="#56d8a9" stroke-width="2" d="M813.5,-252C813.5,-252 757.5,-252 757.5,-252 751.5,-252 745.5,-246 745.5,-240 745.5,-240 745.5,-228 745.5,-228 745.5,-222 751.5,-216 757.5,-216 757.5,-216 813.5,-216 813.5,-216 819.5,-216 825.5,-222 825.5,-228 825.5,-228 825.5,-240 825.5,-240 825.5,-246 819.5,-252 813.5,-252"/>
<text text-anchor="middle" x="785.5" y="-231.5" font-family="sans" font-size="10.00" fill="#000000">createBatFile</text>
</g>
<!-- 4&#45;&gt;58 -->
<g id="edge97" class="edge">
<title>4&#45;&gt;58</title>
<path fill="none" stroke="#c0c0c0" stroke-width="2" d="M802.2052,-1943.8963C799.8695,-1913.8239 794.2638,-1851.7582 784.5,-1800 773.769,-1743.1145 751.5,-1731.8888 751.5,-1674 751.5,-1674 751.5,-1674 751.5,-666 751.5,-510.5759 808.1877,-478.5657 824.5,-324 826.1793,-308.0884 829.4227,-303.2239 824.5,-288 821.3312,-278.2001 815.6468,-268.6831 809.5809,-260.4383"/>
<polygon fill="#c0c0c0" stroke="#c0c0c0" stroke-width="2" points="812.1471,-258.0398 803.2108,-252.3483 806.6474,-262.3703 812.1471,-258.0398"/>
</g>
<!-- 65 -->
<g id="node66" class="node">
<title>65</title>
<path fill="none" stroke="#d87556" stroke-width="2" d="M1320,-1620C1320,-1620 1263,-1620 1263,-1620 1257,-1620 1251,-1614 1251,-1608 1251,-1608 1251,-1596 1251,-1596 1251,-1590 1257,-1584 1263,-1584 1263,-1584 1320,-1584 1320,-1584 1326,-1584 1332,-1590 1332,-1596 1332,-1596 1332,-1608 1332,-1608 1332,-1614 1326,-1620 1320,-1620"/>
<text text-anchor="middle" x="1291.5" y="-1599.5" font-family="sans" font-size="10.00" fill="#000000">multiqcBatch</text>
</g>
<!-- 4&#45;&gt;65 -->
<g id="edge111" class="edge">
<title>4&#45;&gt;65</title>
<path fill="none" stroke="#c0c0c0" stroke-width="2" d="M850.8471,-1959.9748C986.0967,-1952.9121 1364.5,-1923.7066 1364.5,-1818 1364.5,-1818 1364.5,-1818 1364.5,-1746 1364.5,-1700.7858 1335.5146,-1655.3764 1314.0728,-1627.9705"/>
<polygon fill="#c0c0c0" stroke="#c0c0c0" stroke-width="2" points="1316.7009,-1625.6538 1307.7011,-1620.0633 1311.2504,-1630.046 1316.7009,-1625.6538"/>
</g>
<!-- 66 -->
<g id="node67" class="node">
<title>66</title>
<path fill="none" stroke="#5692d8" stroke-width="2" d="M1215,-1764C1215,-1764 1144,-1764 1144,-1764 1138,-1764 1132,-1758 1132,-1752 1132,-1752 1132,-1740 1132,-1740 1132,-1734 1138,-1728 1144,-1728 1144,-1728 1215,-1728 1215,-1728 1221,-1728 1227,-1734 1227,-1740 1227,-1740 1227,-1752 1227,-1752 1227,-1758 1221,-1764 1215,-1764"/>
<text text-anchor="middle" x="1179.5" y="-1743.5" font-family="sans" font-size="10.00" fill="#000000">picardHsMetrics</text>
</g>
<!-- 4&#45;&gt;66 -->
<g id="edge115" class="edge">
<title>4&#45;&gt;66</title>
<path fill="none" stroke="#c0c0c0" stroke-width="2" d="M850.6175,-1959.5215C928.0144,-1954.549 1077.4862,-1940.8767 1117.5,-1908 1158.2665,-1874.5049 1172.2728,-1810.9774 1177.0531,-1774.2144"/>
<polygon fill="#c0c0c0" stroke="#c0c0c0" stroke-width="2" points="1180.5433,-1774.5006 1178.2159,-1764.1646 1173.5896,-1773.696 1180.5433,-1774.5006"/>
</g>
<!-- 67 -->
<g id="node68" class="node">
<title>67</title>
<path fill="none" stroke="#d8bc56" stroke-width="2" d="M1324,-1764C1324,-1764 1257,-1764 1257,-1764 1251,-1764 1245,-1758 1245,-1752 1245,-1752 1245,-1740 1245,-1740 1245,-1734 1251,-1728 1257,-1728 1257,-1728 1324,-1728 1324,-1728 1330,-1728 1336,-1734 1336,-1740 1336,-1740 1336,-1752 1336,-1752 1336,-1758 1330,-1764 1324,-1764"/>
<text text-anchor="middle" x="1290.5" y="-1743.5" font-family="sans" font-size="10.00" fill="#000000">samtools_stats</text>
</g>
<!-- 4&#45;&gt;67 -->
<g id="edge116" class="edge">
<title>4&#45;&gt;67</title>
<path fill="none" stroke="#c0c0c0" stroke-width="2" d="M850.6175,-1958.4756C932.1157,-1951.7404 1095.4809,-1935.2385 1145.5,-1908 1204.6322,-1875.7988 1251.7603,-1809.816 1274.9023,-1772.7652"/>
<polygon fill="#c0c0c0" stroke="#c0c0c0" stroke-width="2" points="1278.0275,-1774.3636 1280.2618,-1764.007 1272.0567,-1770.7098 1278.0275,-1774.3636"/>
</g>
<!-- 69 -->
<g id="node70" class="node">
<title>69</title>
<path fill="none" stroke="#8fd856" stroke-width="2" d="M1213.5,-1692C1213.5,-1692 1147.5,-1692 1147.5,-1692 1141.5,-1692 1135.5,-1686 1135.5,-1680 1135.5,-1680 1135.5,-1668 1135.5,-1668 1135.5,-1662 1141.5,-1656 1147.5,-1656 1147.5,-1656 1213.5,-1656 1213.5,-1656 1219.5,-1656 1225.5,-1662 1225.5,-1668 1225.5,-1668 1225.5,-1680 1225.5,-1680 1225.5,-1686 1219.5,-1692 1213.5,-1692"/>
<text text-anchor="middle" x="1180.5" y="-1671.5" font-family="sans" font-size="10.00" fill="#000000">getStatsforMqc</text>
</g>
<!-- 4&#45;&gt;69 -->
<g id="edge120" class="edge">
<title>4&#45;&gt;69</title>
<path fill="none" stroke="#c0c0c0" stroke-width="2" d="M850.7195,-1958.8095C920.7272,-1953.1078 1047.2719,-1938.7623 1079.5,-1908 1139.0731,-1851.1364 1082.1454,-1799.2195 1123.5,-1728 1129.8103,-1717.1327 1138.9674,-1707.0896 1148.1027,-1698.6863"/>
<polygon fill="#c0c0c0" stroke="#c0c0c0" stroke-width="2" points="1150.4875,-1701.2504 1155.7083,-1692.0312 1145.8778,-1695.9824 1150.4875,-1701.2504"/>
</g>
<!-- 5 -->
<g id="node6" class="node">
<title>5</title>
<path fill="none" stroke="#68d856" stroke-width="2" d="M900.5,-2124C900.5,-2124 856.5,-2124 856.5,-2124 850.5,-2124 844.5,-2118 844.5,-2112 844.5,-2112 844.5,-2100 844.5,-2100 844.5,-2094 850.5,-2088 856.5,-2088 856.5,-2088 900.5,-2088 900.5,-2088 906.5,-2088 912.5,-2094 912.5,-2100 912.5,-2100 912.5,-2112 912.5,-2112 912.5,-2118 906.5,-2124 900.5,-2124"/>
<text text-anchor="middle" x="878.5" y="-2103.5" font-family="sans" font-size="10.00" fill="#000000">bwa_mem</text>
</g>
<!-- 5&#45;&gt;4 -->
<g id="edge18" class="edge">
<title>5&#45;&gt;4</title>
<path fill="none" stroke="#c0c0c0" stroke-width="2" d="M853.9571,-2087.996C842.7231,-2078.5036 830.2219,-2065.9414 822.5,-2052 812.0217,-2033.082 807.3125,-2008.994 805.2009,-1990.4997"/>
<polygon fill="#c0c0c0" stroke="#c0c0c0" stroke-width="2" points="808.6656,-1989.9616 804.2338,-1980.3383 801.6971,-1990.6249 808.6656,-1989.9616"/>
</g>
<!-- 7 -->
<g id="node8" class="node">
<title>7</title>
<path fill="none" stroke="#d8a456" stroke-width="2" d="M913.5,-2052C913.5,-2052 843.5,-2052 843.5,-2052 837.5,-2052 831.5,-2046 831.5,-2040 831.5,-2040 831.5,-2028 831.5,-2028 831.5,-2022 837.5,-2016 843.5,-2016 843.5,-2016 913.5,-2016 913.5,-2016 919.5,-2016 925.5,-2022 925.5,-2028 925.5,-2028 925.5,-2040 925.5,-2040 925.5,-2046 919.5,-2052 913.5,-2052"/>
<text text-anchor="middle" x="878.5" y="-2031.5" font-family="sans" font-size="10.00" fill="#000000">samtools_index</text>
</g>
<!-- 5&#45;&gt;7 -->
<g id="edge20" class="edge">
<title>5&#45;&gt;7</title>
<path fill="none" stroke="#c0c0c0" stroke-width="2" d="M878.5,-2087.8314C878.5,-2080.131 878.5,-2070.9743 878.5,-2062.4166"/>
<polygon fill="#c0c0c0" stroke="#c0c0c0" stroke-width="2" points="882.0001,-2062.4132 878.5,-2052.4133 875.0001,-2062.4133 882.0001,-2062.4132"/>
</g>
<!-- 6 -->
<g id="node7" class="node">
<title>6</title>
<path fill="none" stroke="#5663d8" stroke-width="2" d="M1438,-2196C1438,-2196 1403,-2196 1403,-2196 1397,-2196 1391,-2190 1391,-2184 1391,-2184 1391,-2172 1391,-2172 1391,-2166 1397,-2160 1403,-2160 1403,-2160 1438,-2160 1438,-2160 1444,-2160 1450,-2166 1450,-2172 1450,-2172 1450,-2184 1450,-2184 1450,-2190 1444,-2196 1438,-2196"/>
<text text-anchor="middle" x="1420.5" y="-2175.5" font-family="sans" font-size="10.00" fill="#000000">cutadapt</text>
</g>
<!-- 6&#45;&gt;5 -->
<g id="edge19" class="edge">
<title>6&#45;&gt;5</title>
<path fill="none" stroke="#c0c0c0" stroke-width="2" d="M1390.9748,-2174.0778C1301.0779,-2162.1358 1030.3334,-2126.1697 923.0161,-2111.9136"/>
<polygon fill="#c0c0c0" stroke="#c0c0c0" stroke-width="2" points="923.2254,-2108.4107 912.8515,-2110.5633 922.3035,-2115.3498 923.2254,-2108.4107"/>
</g>
<!-- 6&#45;&gt;65 -->
<g id="edge113" class="edge">
<title>6&#45;&gt;65</title>
<path fill="none" stroke="#c0c0c0" stroke-width="2" d="M1433.0851,-2159.8478C1450.1434,-2133.4241 1478.5,-2082.2435 1478.5,-2034 1478.5,-2034 1478.5,-2034 1478.5,-1746 1478.5,-1676.8082 1397.1379,-1636.2431 1341.749,-1616.6442"/>
<polygon fill="#c0c0c0" stroke="#c0c0c0" stroke-width="2" points="1342.6708,-1613.2606 1332.0762,-1613.3391 1340.4073,-1619.8846 1342.6708,-1613.2606"/>
</g>
<!-- 68 -->
<g id="node69" class="node">
<title>68</title>
<path fill="none" stroke="#d6d856" stroke-width="2" d="M1438,-2052C1438,-2052 1403,-2052 1403,-2052 1397,-2052 1391,-2046 1391,-2040 1391,-2040 1391,-2028 1391,-2028 1391,-2022 1397,-2016 1403,-2016 1403,-2016 1438,-2016 1438,-2016 1444,-2016 1450,-2022 1450,-2028 1450,-2028 1450,-2040 1450,-2040 1450,-2046 1444,-2052 1438,-2052"/>
<text text-anchor="middle" x="1420.5" y="-2031.5" font-family="sans" font-size="10.00" fill="#000000">fastqcR1</text>
</g>
<!-- 6&#45;&gt;68 -->
<g id="edge117" class="edge">
<title>6&#45;&gt;68</title>
<path fill="none" stroke="#c0c0c0" stroke-width="2" d="M1420.5,-2159.7623C1420.5,-2135.201 1420.5,-2091.2474 1420.5,-2062.3541"/>
<polygon fill="#c0c0c0" stroke="#c0c0c0" stroke-width="2" points="1424.0001,-2062.0896 1420.5,-2052.0896 1417.0001,-2062.0897 1424.0001,-2062.0896"/>
</g>
<!-- 7&#45;&gt;4 -->
<g id="edge17" class="edge">
<title>7&#45;&gt;4</title>
<path fill="none" stroke="#c0c0c0" stroke-width="2" d="M859.5743,-2015.8314C850.5143,-2007.1337 839.5191,-1996.5783 829.6735,-1987.1265"/>
<polygon fill="#c0c0c0" stroke="#c0c0c0" stroke-width="2" points="832.0574,-1984.5633 822.4196,-1980.1628 827.2096,-1989.613 832.0574,-1984.5633"/>
</g>
<!-- 8&#45;&gt;0 -->
<g id="edge11" class="edge">
<title>8&#45;&gt;0</title>
<path fill="none" stroke="#c0c0c0" stroke-width="2" d="M305.9673,-1881.2906C250.7782,-1872.526 177.0969,-1857.2588 156.5,-1836 59.6241,-1736.0111 89.5,-1669.2218 89.5,-1530 89.5,-1530 89.5,-1530 89.5,-162 89.5,-107.2846 126.3889,-99.8266 173.5,-72 229.5472,-38.8953 305.4462,-25.9475 350.1687,-20.9824"/>
<polygon fill="#c0c0c0" stroke="#c0c0c0" stroke-width="2" points="350.7101,-24.4452 360.2974,-19.936 349.9906,-17.4823 350.7101,-24.4452"/>
</g>
<!-- 8&#45;&gt;3 -->
<g id="edge16" class="edge">
<title>8&#45;&gt;3</title>
<path fill="none" stroke="#c0c0c0" stroke-width="2" d="M345.2658,-1871.8314C332.712,-1862.7927 317.3717,-1851.7476 303.8609,-1842.0198"/>
<polygon fill="#c0c0c0" stroke="#c0c0c0" stroke-width="2" points="305.8866,-1839.1655 295.7261,-1836.1628 301.7964,-1844.8463 305.8866,-1839.1655"/>
</g>
<!-- 8&#45;&gt;28 -->
<g id="edge58" class="edge">
<title>8&#45;&gt;28</title>
<path fill="none" stroke="#c0c0c0" stroke-width="2" d="M319.3969,-1871.9746C294.3834,-1862.8286 263.7305,-1851.1446 229.2243,-1836.1465"/>
<polygon fill="#c0c0c0" stroke="#c0c0c0" stroke-width="2" points="230.4462,-1832.8605 219.8827,-1832.0457 227.6325,-1839.2701 230.4462,-1832.8605"/>
</g>
<!-- 8&#45;&gt;31 -->
<g id="edge63" class="edge">
<title>8&#45;&gt;31</title>
<path fill="none" stroke="#c0c0c0" stroke-width="2" d="M386.0552,-1871.7755C393.5995,-1861.8569 401.987,-1848.9842 406.5,-1836 431.1005,-1765.2219 430.1668,-1675.4228 427.6859,-1630.4232"/>
<polygon fill="#c0c0c0" stroke="#c0c0c0" stroke-width="2" points="431.1668,-1630.0057 427.0541,-1620.2417 424.1802,-1630.4393 431.1668,-1630.0057"/>
</g>
<!-- 8&#45;&gt;34 -->
<g id="edge67" class="edge">
<title>8&#45;&gt;34</title>
<path fill="none" stroke="#c0c0c0" stroke-width="2" d="M409.3607,-1871.8314C431.7585,-1861.3597 459.9163,-1848.195 482.7796,-1837.5056"/>
<polygon fill="#c0c0c0" stroke="#c0c0c0" stroke-width="2" points="484.3229,-1840.6478 491.8994,-1833.2418 481.3582,-1834.3066 484.3229,-1840.6478"/>
</g>
<!-- 8&#45;&gt;46 -->
<g id="edge80" class="edge">
<title>8&#45;&gt;46</title>
<path fill="none" stroke="#c0c0c0" stroke-width="2" d="M435.0809,-1883.8232C499.5428,-1876.6546 601.2986,-1862.6178 695.8279,-1836.1836"/>
<polygon fill="#c0c0c0" stroke="#c0c0c0" stroke-width="2" points="696.882,-1839.5226 705.5399,-1833.416 694.9635,-1832.7906 696.882,-1839.5226"/>
</g>
<!-- 8&#45;&gt;50 -->
<g id="edge86" class="edge">
<title>8&#45;&gt;50</title>
<path fill="none" stroke="#c0c0c0" stroke-width="2" d="M305.828,-1876.8114C255.4602,-1866.338 183.859,-1851.0071 121.5,-1836 120.053,-1835.6518 118.5896,-1835.2959 117.1147,-1834.9339"/>
<polygon fill="#c0c0c0" stroke="#c0c0c0" stroke-width="2" points="117.8152,-1831.5014 107.2649,-1832.4719 116.1177,-1838.2924 117.8152,-1831.5014"/>
</g>
<!-- 8&#45;&gt;51 -->
<g id="edge88" class="edge">
<title>8&#45;&gt;51</title>
<path fill="none" stroke="#c0c0c0" stroke-width="2" d="M435.3931,-1872.1443C471.1834,-1862.291 516.6737,-1849.7585 565.0658,-1836.3948"/>
<polygon fill="#c0c0c0" stroke="#c0c0c0" stroke-width="2" points="566.0737,-1839.7476 574.7809,-1833.7115 564.21,-1833.0002 566.0737,-1839.7476"/>
</g>
<!-- 8&#45;&gt;53 -->
<g id="edge92" class="edge">
<title>8&#45;&gt;53</title>
<path fill="none" stroke="#c0c0c0" stroke-width="2" d="M435.3194,-1883.4048C517.0545,-1874.6623 661.743,-1857.7689 784.5,-1836 796.7652,-1833.825 809.992,-1831.0339 822.0902,-1828.3021"/>
<polygon fill="#c0c0c0" stroke="#c0c0c0" stroke-width="2" points="822.9805,-1831.6888 831.9413,-1826.036 821.4112,-1824.8669 822.9805,-1831.6888"/>
</g>
<!-- 9 -->
<g id="node10" class="node">
<title>9</title>
<path fill="none" stroke="#97d856" stroke-width="2" d="M385.5,-1836C385.5,-1836 333.5,-1836 333.5,-1836 327.5,-1836 321.5,-1830 321.5,-1824 321.5,-1824 321.5,-1812 321.5,-1812 321.5,-1806 327.5,-1800 333.5,-1800 333.5,-1800 385.5,-1800 385.5,-1800 391.5,-1800 397.5,-1806 397.5,-1812 397.5,-1812 397.5,-1824 397.5,-1824 397.5,-1830 391.5,-1836 385.5,-1836"/>
<text text-anchor="middle" x="359.5" y="-1815.5" font-family="sans" font-size="10.00" fill="#000000">split_bedfile</text>
</g>
<!-- 9&#45;&gt;2 -->
<g id="edge13" class="edge">
<title>9&#45;&gt;2</title>
<path fill="none" stroke="#c0c0c0" stroke-width="2" d="M337.0415,-1799.8314C326.0795,-1790.9632 312.7301,-1780.1637 300.8735,-1770.5718"/>
<polygon fill="#c0c0c0" stroke="#c0c0c0" stroke-width="2" points="302.9271,-1767.7313 292.9513,-1764.1628 298.5245,-1773.1734 302.9271,-1767.7313"/>
</g>
<!-- 10&#45;&gt;0 -->
<g id="edge1" class="edge">
<title>10&#45;&gt;0</title>
<path fill="none" stroke="#c0c0c0" stroke-width="2" d="M849.4679,-85.3314C761.7672,-72.5491 518.0764,-37.0314 424.6306,-23.4118"/>
<polygon fill="#c0c0c0" stroke="#c0c0c0" stroke-width="2" points="424.9138,-19.9161 414.5136,-21.9372 423.9042,-26.8429 424.9138,-19.9161"/>
</g>
<!-- 11 -->
<g id="node12" class="node">
<title>11</title>
<path fill="none" stroke="#56d873" stroke-width="2" d="M461,-468C461,-468 422,-468 422,-468 416,-468 410,-462 410,-456 410,-456 410,-444 410,-444 410,-438 416,-432 422,-432 422,-432 461,-432 461,-432 467,-432 473,-438 473,-444 473,-444 473,-456 473,-456 473,-462 467,-468 461,-468"/>
<text text-anchor="middle" x="441.5" y="-447.5" font-family="sans" font-size="10.00" fill="#000000">bgzipSNV</text>
</g>
<!-- 11&#45;&gt;0 -->
<g id="edge7" class="edge">
<title>11&#45;&gt;0</title>
<path fill="none" stroke="#c0c0c0" stroke-width="2" d="M420.1621,-431.8984C392.9844,-406.6958 349.5,-358.2134 349.5,-306 349.5,-306 349.5,-306 349.5,-162 349.5,-120.3681 364.5328,-74.14 375.6881,-45.567"/>
<polygon fill="#c0c0c0" stroke="#c0c0c0" stroke-width="2" points="378.9578,-46.817 379.4412,-36.2332 372.4632,-44.2055 378.9578,-46.817"/>
</g>
<!-- 11&#45;&gt;10 -->
<g id="edge28" class="edge">
<title>11&#45;&gt;10</title>
<path fill="none" stroke="#c0c0c0" stroke-width="2" d="M440.2735,-431.7158C439.957,-411.6199 442.6454,-379.5947 460.5,-360 496.8577,-320.0989 529.313,-350.2175 576.5,-324 629.9333,-294.312 734.4208,-179.0509 784.5,-144 801.9806,-131.7652 822.4817,-120.0139 840.1221,-110.6159"/>
<polygon fill="#c0c0c0" stroke="#c0c0c0" stroke-width="2" points="841.8282,-113.6732 849.055,-105.9257 838.5741,-107.4756 841.8282,-113.6732"/>
</g>
<!-- 59 -->
<g id="node60" class="node">
<title>59</title>
<path fill="none" stroke="#568ad8" stroke-width="2" d="M735,-396C735,-396 674,-396 674,-396 668,-396 662,-390 662,-384 662,-384 662,-372 662,-372 662,-366 668,-360 674,-360 674,-360 735,-360 735,-360 741,-360 747,-366 747,-372 747,-372 747,-384 747,-384 747,-390 741,-396 735,-396"/>
<text text-anchor="middle" x="704.5" y="-375.5" font-family="sans" font-size="10.00" fill="#000000">makePassVCF</text>
</g>
<!-- 11&#45;&gt;59 -->
<g id="edge100" class="edge">
<title>11&#45;&gt;59</title>
<path fill="none" stroke="#c0c0c0" stroke-width="2" d="M473.2239,-441.3151C517.5044,-429.1927 598.4017,-407.0459 651.8123,-392.424"/>
<polygon fill="#c0c0c0" stroke="#c0c0c0" stroke-width="2" points="653.0585,-395.7117 661.7794,-389.6954 651.2102,-388.9601 653.0585,-395.7117"/>
</g>
<!-- 61 -->
<g id="node62" class="node">
<title>61</title>
<path fill="none" stroke="#56b1d8" stroke-width="2" d="M555.5,-396C555.5,-396 481.5,-396 481.5,-396 475.5,-396 469.5,-390 469.5,-384 469.5,-384 469.5,-372 469.5,-372 469.5,-366 475.5,-360 481.5,-360 481.5,-360 555.5,-360 555.5,-360 561.5,-360 567.5,-366 567.5,-372 567.5,-372 567.5,-384 567.5,-384 567.5,-390 561.5,-396 555.5,-396"/>
<text text-anchor="middle" x="518.5" y="-375.5" font-family="sans" font-size="10.00" fill="#000000">mergeSNVPindel</text>
</g>
<!-- 11&#45;&gt;61 -->
<g id="edge104" class="edge">
<title>11&#45;&gt;61</title>
<path fill="none" stroke="#c0c0c0" stroke-width="2" d="M460.9304,-431.8314C470.232,-423.1337 481.5204,-412.5783 491.6286,-403.1265"/>
<polygon fill="#c0c0c0" stroke="#c0c0c0" stroke-width="2" points="494.1621,-405.5493 499.0759,-396.1628 489.3811,-400.4363 494.1621,-405.5493"/>
</g>
<!-- 12 -->
<g id="node13" class="node">
<title>12</title>
<path fill="none" stroke="#56d89a" stroke-width="2" d="M457,-540C457,-540 424,-540 424,-540 418,-540 412,-534 412,-528 412,-528 412,-516 412,-516 412,-510 418,-504 424,-504 424,-504 457,-504 457,-504 463,-504 469,-510 469,-516 469,-516 469,-528 469,-528 469,-534 463,-540 457,-540"/>
<text text-anchor="middle" x="440.5" y="-519.5" font-family="sans" font-size="10.00" fill="#000000">filterVep</text>
</g>
<!-- 12&#45;&gt;11 -->
<g id="edge32" class="edge">
<title>12&#45;&gt;11</title>
<path fill="none" stroke="#c0c0c0" stroke-width="2" d="M440.7523,-503.8314C440.8593,-496.131 440.9865,-486.9743 441.1053,-478.4166"/>
<polygon fill="#c0c0c0" stroke="#c0c0c0" stroke-width="2" points="444.6049,-478.4609 441.2443,-468.4133 437.6056,-478.3637 444.6049,-478.4609"/>
</g>
<!-- 13 -->
<g id="node14" class="node">
<title>13</title>
<path fill="none" stroke="#56d8d0" stroke-width="2" d="M459,-612C459,-612 422,-612 422,-612 416,-612 410,-606 410,-600 410,-600 410,-588 410,-588 410,-582 416,-576 422,-576 422,-576 459,-576 459,-576 465,-576 471,-582 471,-588 471,-588 471,-600 471,-600 471,-606 465,-612 459,-612"/>
<text text-anchor="middle" x="440.5" y="-591.5" font-family="sans" font-size="10.00" fill="#000000">bgzipVep</text>
</g>
<!-- 13&#45;&gt;12 -->
<g id="edge33" class="edge">
<title>13&#45;&gt;12</title>
<path fill="none" stroke="#c0c0c0" stroke-width="2" d="M440.5,-575.8314C440.5,-568.131 440.5,-558.9743 440.5,-550.4166"/>
<polygon fill="#c0c0c0" stroke="#c0c0c0" stroke-width="2" points="444.0001,-550.4132 440.5,-540.4133 437.0001,-550.4133 444.0001,-550.4132"/>
</g>
<!-- 14 -->
<g id="node15" class="node">
<title>14</title>
<path fill="none" stroke="#56a2d8" stroke-width="2" d="M452.5,-684C452.5,-684 422.5,-684 422.5,-684 416.5,-684 410.5,-678 410.5,-672 410.5,-672 410.5,-660 410.5,-660 410.5,-654 416.5,-648 422.5,-648 422.5,-648 452.5,-648 452.5,-648 458.5,-648 464.5,-654 464.5,-660 464.5,-660 464.5,-672 464.5,-672 464.5,-678 458.5,-684 452.5,-684"/>
<text text-anchor="middle" x="437.5" y="-663.5" font-family="sans" font-size="10.00" fill="#000000">vep</text>
</g>
<!-- 14&#45;&gt;13 -->
<g id="edge34" class="edge">
<title>14&#45;&gt;13</title>
<path fill="none" stroke="#c0c0c0" stroke-width="2" d="M438.257,-647.8314C438.5779,-640.131 438.9594,-630.9743 439.316,-622.4166"/>
<polygon fill="#c0c0c0" stroke="#c0c0c0" stroke-width="2" points="442.8133,-622.5503 439.7328,-612.4133 435.8194,-622.2589 442.8133,-622.5503"/>
</g>
<!-- 15 -->
<g id="node16" class="node">
<title>15</title>
<path fill="none" stroke="#78d856" stroke-width="2" d="M462,-756C462,-756 413,-756 413,-756 407,-756 401,-750 401,-744 401,-744 401,-732 401,-732 401,-726 407,-720 413,-720 413,-720 462,-720 462,-720 468,-720 474,-726 474,-732 474,-732 474,-744 474,-744 474,-750 468,-756 462,-756"/>
<text text-anchor="middle" x="437.5" y="-735.5" font-family="sans" font-size="10.00" fill="#000000">concatMulti</text>
</g>
<!-- 15&#45;&gt;14 -->
<g id="edge35" class="edge">
<title>15&#45;&gt;14</title>
<path fill="none" stroke="#c0c0c0" stroke-width="2" d="M437.5,-719.8314C437.5,-712.131 437.5,-702.9743 437.5,-694.4166"/>
<polygon fill="#c0c0c0" stroke="#c0c0c0" stroke-width="2" points="441.0001,-694.4132 437.5,-684.4133 434.0001,-694.4133 441.0001,-694.4132"/>
</g>
<!-- 16 -->
<g id="node17" class="node">
<title>16</title>
<path fill="none" stroke="#80d856" stroke-width="2" d="M522,-900C522,-900 475,-900 475,-900 469,-900 463,-894 463,-888 463,-888 463,-876 463,-876 463,-870 469,-864 475,-864 475,-864 522,-864 522,-864 528,-864 534,-870 534,-876 534,-876 534,-888 534,-888 534,-894 528,-900 522,-900"/>
<text text-anchor="middle" x="498.5" y="-879.5" font-family="sans" font-size="10.00" fill="#000000">filter_recall</text>
</g>
<!-- 16&#45;&gt;15 -->
<g id="edge36" class="edge">
<title>16&#45;&gt;15</title>
<path fill="none" stroke="#c0c0c0" stroke-width="2" d="M481.0386,-863.906C472.4248,-854.0232 462.6002,-841.1431 456.5,-828 447.3954,-808.3839 442.6065,-784.3364 440.1151,-766.0351"/>
<polygon fill="#c0c0c0" stroke="#c0c0c0" stroke-width="2" points="443.5768,-765.5065 438.8985,-756.0005 436.6276,-766.3491 443.5768,-765.5065"/>
</g>
<!-- 36 -->
<g id="node37" class="node">
<title>36</title>
<path fill="none" stroke="#a7d856" stroke-width="2" d="M554,-828C554,-828 477,-828 477,-828 471,-828 465,-822 465,-816 465,-816 465,-804 465,-804 465,-798 471,-792 477,-792 477,-792 554,-792 554,-792 560,-792 566,-798 566,-804 566,-804 566,-816 566,-816 566,-822 560,-828 554,-828"/>
<text text-anchor="middle" x="515.5" y="-807.5" font-family="sans" font-size="10.00" fill="#000000">index_filterRecall</text>
</g>
<!-- 16&#45;&gt;36 -->
<g id="edge69" class="edge">
<title>16&#45;&gt;36</title>
<path fill="none" stroke="#c0c0c0" stroke-width="2" d="M502.7898,-863.8314C504.608,-856.131 506.7699,-846.9743 508.7905,-838.4166"/>
<polygon fill="#c0c0c0" stroke="#c0c0c0" stroke-width="2" points="512.2608,-838.95 511.1524,-828.4133 505.4481,-837.3414 512.2608,-838.95"/>
</g>
<!-- 17 -->
<g id="node18" class="node">
<title>17</title>
<path fill="none" stroke="#d86656" stroke-width="2" d="M520.5,-972C520.5,-972 476.5,-972 476.5,-972 470.5,-972 464.5,-966 464.5,-960 464.5,-960 464.5,-948 464.5,-948 464.5,-942 470.5,-936 476.5,-936 476.5,-936 520.5,-936 520.5,-936 526.5,-936 532.5,-942 532.5,-948 532.5,-948 532.5,-960 532.5,-960 532.5,-966 526.5,-972 520.5,-972"/>
<text text-anchor="middle" x="498.5" y="-951.5" font-family="sans" font-size="10.00" fill="#000000">sort_recall</text>
</g>
<!-- 17&#45;&gt;16 -->
<g id="edge39" class="edge">
<title>17&#45;&gt;16</title>
<path fill="none" stroke="#c0c0c0" stroke-width="2" d="M498.5,-935.8314C498.5,-928.131 498.5,-918.9743 498.5,-910.4166"/>
<polygon fill="#c0c0c0" stroke="#c0c0c0" stroke-width="2" points="502.0001,-910.4132 498.5,-900.4133 495.0001,-910.4133 502.0001,-910.4132"/>
</g>
<!-- 18 -->
<g id="node19" class="node">
<title>18</title>
<path fill="none" stroke="#56d8c9" stroke-width="2" d="M513.5,-1044C513.5,-1044 483.5,-1044 483.5,-1044 477.5,-1044 471.5,-1038 471.5,-1032 471.5,-1032 471.5,-1020 471.5,-1020 471.5,-1014 477.5,-1008 483.5,-1008 483.5,-1008 513.5,-1008 513.5,-1008 519.5,-1008 525.5,-1014 525.5,-1020 525.5,-1020 525.5,-1032 525.5,-1032 525.5,-1038 519.5,-1044 513.5,-1044"/>
<text text-anchor="middle" x="498.5" y="-1023.5" font-family="sans" font-size="10.00" fill="#000000">recall</text>
</g>
<!-- 18&#45;&gt;17 -->
<g id="edge40" class="edge">
<title>18&#45;&gt;17</title>
<path fill="none" stroke="#c0c0c0" stroke-width="2" d="M498.5,-1007.8314C498.5,-1000.131 498.5,-990.9743 498.5,-982.4166"/>
<polygon fill="#c0c0c0" stroke="#c0c0c0" stroke-width="2" points="502.0001,-982.4132 498.5,-972.4133 495.0001,-982.4133 502.0001,-982.4132"/>
</g>
<!-- 19 -->
<g id="node20" class="node">
<title>19</title>
<path fill="none" stroke="#56c9d8" stroke-width="2" d="M465.5,-1188C465.5,-1188 411.5,-1188 411.5,-1188 405.5,-1188 399.5,-1182 399.5,-1176 399.5,-1176 399.5,-1164 399.5,-1164 399.5,-1158 405.5,-1152 411.5,-1152 411.5,-1152 465.5,-1152 465.5,-1152 471.5,-1152 477.5,-1158 477.5,-1164 477.5,-1164 477.5,-1176 477.5,-1176 477.5,-1182 471.5,-1188 465.5,-1188"/>
<text text-anchor="middle" x="438.5" y="-1167.5" font-family="sans" font-size="10.00" fill="#000000">normalizeAll</text>
</g>
<!-- 19&#45;&gt;18 -->
<g id="edge42" class="edge">
<title>19&#45;&gt;18</title>
<path fill="none" stroke="#c0c0c0" stroke-width="2" d="M443.1936,-1151.6573C448.2036,-1133.1721 456.8756,-1104.0211 467.5,-1080 471.4818,-1070.9974 476.5533,-1061.5668 481.4355,-1053.1518"/>
<polygon fill="#c0c0c0" stroke="#c0c0c0" stroke-width="2" points="484.4861,-1054.8696 486.5983,-1044.4875 478.4727,-1051.2864 484.4861,-1054.8696"/>
</g>
<!-- 35 -->
<g id="node36" class="node">
<title>35</title>
<path fill="none" stroke="#afd856" stroke-width="2" d="M564.5,-1116C564.5,-1116 488.5,-1116 488.5,-1116 482.5,-1116 476.5,-1110 476.5,-1104 476.5,-1104 476.5,-1092 476.5,-1092 476.5,-1086 482.5,-1080 488.5,-1080 488.5,-1080 564.5,-1080 564.5,-1080 570.5,-1080 576.5,-1086 576.5,-1092 576.5,-1092 576.5,-1104 576.5,-1104 576.5,-1110 570.5,-1116 564.5,-1116"/>
<text text-anchor="middle" x="526.5" y="-1095.5" font-family="sans" font-size="10.00" fill="#000000">indexNormalized</text>
</g>
<!-- 19&#45;&gt;35 -->
<g id="edge68" class="edge">
<title>19&#45;&gt;35</title>
<path fill="none" stroke="#c0c0c0" stroke-width="2" d="M460.7061,-1151.8314C471.545,-1142.9632 484.7444,-1132.1637 496.4678,-1122.5718"/>
<polygon fill="#c0c0c0" stroke="#c0c0c0" stroke-width="2" points="498.7777,-1125.2041 504.301,-1116.1628 494.345,-1119.7864 498.7777,-1125.2041"/>
</g>
<!-- 38 -->
<g id="node39" class="node">
<title>38</title>
<path fill="none" stroke="#c6d856" stroke-width="2" d="M408,-1116C408,-1116 345,-1116 345,-1116 339,-1116 333,-1110 333,-1104 333,-1104 333,-1092 333,-1092 333,-1086 339,-1080 345,-1080 345,-1080 408,-1080 408,-1080 414,-1080 420,-1086 420,-1092 420,-1092 420,-1104 420,-1104 420,-1110 414,-1116 408,-1116"/>
<text text-anchor="middle" x="376.5" y="-1095.5" font-family="sans" font-size="10.00" fill="#000000">createMultiVcf</text>
</g>
<!-- 19&#45;&gt;38 -->
<g id="edge71" class="edge">
<title>19&#45;&gt;38</title>
<path fill="none" stroke="#c0c0c0" stroke-width="2" d="M422.8548,-1151.8314C415.6409,-1143.454 406.943,-1133.3531 399.0395,-1124.1749"/>
<polygon fill="#c0c0c0" stroke="#c0c0c0" stroke-width="2" points="401.5333,-1121.7071 392.3559,-1116.4133 396.2289,-1126.2748 401.5333,-1121.7071"/>
</g>
<!-- 20 -->
<g id="node21" class="node">
<title>20</title>
<path fill="none" stroke="#d8ac56" stroke-width="2" d="M461,-1260C461,-1260 412,-1260 412,-1260 406,-1260 400,-1254 400,-1248 400,-1248 400,-1236 400,-1236 400,-1230 406,-1224 412,-1224 412,-1224 461,-1224 461,-1224 467,-1224 473,-1230 473,-1236 473,-1236 473,-1248 473,-1248 473,-1254 467,-1260 461,-1260"/>
<text text-anchor="middle" x="436.5" y="-1239.5" font-family="sans" font-size="10.00" fill="#000000">decompose</text>
</g>
<!-- 20&#45;&gt;19 -->
<g id="edge43" class="edge">
<title>20&#45;&gt;19</title>
<path fill="none" stroke="#c0c0c0" stroke-width="2" d="M437.0047,-1223.8314C437.2186,-1216.131 437.4729,-1206.9743 437.7106,-1198.4166"/>
<polygon fill="#c0c0c0" stroke="#c0c0c0" stroke-width="2" points="441.2094,-1198.5066 437.9885,-1188.4133 434.2121,-1198.3122 441.2094,-1198.5066"/>
</g>
<!-- 21 -->
<g id="node22" class="node">
<title>21</title>
<path fill="none" stroke="#d8cb56" stroke-width="2" d="M449.5,-1332C449.5,-1332 419.5,-1332 419.5,-1332 413.5,-1332 407.5,-1326 407.5,-1320 407.5,-1320 407.5,-1308 407.5,-1308 407.5,-1302 413.5,-1296 419.5,-1296 419.5,-1296 449.5,-1296 449.5,-1296 455.5,-1296 461.5,-1302 461.5,-1308 461.5,-1308 461.5,-1320 461.5,-1320 461.5,-1326 455.5,-1332 449.5,-1332"/>
<text text-anchor="middle" x="434.5" y="-1311.5" font-family="sans" font-size="10.00" fill="#000000">fixAF</text>
</g>
<!-- 21&#45;&gt;20 -->
<g id="edge44" class="edge">
<title>21&#45;&gt;20</title>
<path fill="none" stroke="#c0c0c0" stroke-width="2" d="M435.0047,-1295.8314C435.2186,-1288.131 435.4729,-1278.9743 435.7106,-1270.4166"/>
<polygon fill="#c0c0c0" stroke="#c0c0c0" stroke-width="2" points="439.2094,-1270.5066 435.9885,-1260.4133 432.2121,-1270.3122 439.2094,-1270.5066"/>
</g>
<!-- 22 -->
<g id="node23" class="node">
<title>22</title>
<path fill="none" stroke="#56a9d8" stroke-width="2" d="M453.5,-1404C453.5,-1404 405.5,-1404 405.5,-1404 399.5,-1404 393.5,-1398 393.5,-1392 393.5,-1392 393.5,-1380 393.5,-1380 393.5,-1374 399.5,-1368 405.5,-1368 405.5,-1368 453.5,-1368 453.5,-1368 459.5,-1368 465.5,-1374 465.5,-1380 465.5,-1380 465.5,-1392 465.5,-1392 465.5,-1398 459.5,-1404 453.5,-1404"/>
<text text-anchor="middle" x="429.5" y="-1383.5" font-family="sans" font-size="10.00" fill="#000000">bgzip_fixAF</text>
</g>
<!-- 22&#45;&gt;21 -->
<g id="edge45" class="edge">
<title>22&#45;&gt;21</title>
<path fill="none" stroke="#c0c0c0" stroke-width="2" d="M430.7617,-1367.8314C431.2965,-1360.131 431.9323,-1350.9743 432.5266,-1342.4166"/>
<polygon fill="#c0c0c0" stroke="#c0c0c0" stroke-width="2" points="436.02,-1342.6317 433.2213,-1332.4133 429.0368,-1342.1467 436.02,-1342.6317"/>
</g>
<!-- 23 -->
<g id="node24" class="node">
<title>23</title>
<path fill="none" stroke="#88d856" stroke-width="2" d="M321,-1476C321,-1476 244,-1476 244,-1476 238,-1476 232,-1470 232,-1464 232,-1464 232,-1452 232,-1452 232,-1446 238,-1440 244,-1440 244,-1440 321,-1440 321,-1440 327,-1440 333,-1446 333,-1452 333,-1452 333,-1464 333,-1464 333,-1470 327,-1476 321,-1476"/>
<text text-anchor="middle" x="282.5" y="-1455.5" font-family="sans" font-size="10.00" fill="#000000">hardFilterMutect2</text>
</g>
<!-- 23&#45;&gt;22 -->
<g id="edge46" class="edge">
<title>23&#45;&gt;22</title>
<path fill="none" stroke="#c0c0c0" stroke-width="2" d="M319.5943,-1439.8314C339.2138,-1430.2218 363.4634,-1418.3445 384.1887,-1408.1933"/>
<polygon fill="#c0c0c0" stroke="#c0c0c0" stroke-width="2" points="385.9928,-1411.207 393.4339,-1403.665 382.9137,-1404.9205 385.9928,-1411.207"/>
</g>
<!-- 24 -->
<g id="node25" class="node">
<title>24</title>
<path fill="none" stroke="#566bd8" stroke-width="2" d="M319.5,-1620C319.5,-1620 265.5,-1620 265.5,-1620 259.5,-1620 253.5,-1614 253.5,-1608 253.5,-1608 253.5,-1596 253.5,-1596 253.5,-1590 259.5,-1584 265.5,-1584 265.5,-1584 319.5,-1584 319.5,-1584 325.5,-1584 331.5,-1590 331.5,-1596 331.5,-1596 331.5,-1608 331.5,-1608 331.5,-1614 325.5,-1620 319.5,-1620"/>
<text text-anchor="middle" x="292.5" y="-1599.5" font-family="sans" font-size="10.00" fill="#000000">filterMutect2</text>
</g>
<!-- 24&#45;&gt;23 -->
<g id="edge51" class="edge">
<title>24&#45;&gt;23</title>
<path fill="none" stroke="#c0c0c0" stroke-width="2" d="M294.3117,-1583.6672C295.7833,-1565.4373 297.2115,-1536.7015 294.5,-1512 293.5716,-1503.5425 291.8486,-1494.4715 289.9922,-1486.2246"/>
<polygon fill="#c0c0c0" stroke="#c0c0c0" stroke-width="2" points="293.3544,-1485.2356 287.6191,-1476.3273 286.5473,-1486.8678 293.3544,-1485.2356"/>
</g>
<!-- 27 -->
<g id="node28" class="node">
<title>27</title>
<path fill="none" stroke="#56d86b" stroke-width="2" d="M273.5,-1548C273.5,-1548 243.5,-1548 243.5,-1548 237.5,-1548 231.5,-1542 231.5,-1536 231.5,-1536 231.5,-1524 231.5,-1524 231.5,-1518 237.5,-1512 243.5,-1512 243.5,-1512 273.5,-1512 273.5,-1512 279.5,-1512 285.5,-1518 285.5,-1524 285.5,-1524 285.5,-1536 285.5,-1536 285.5,-1542 279.5,-1548 273.5,-1548"/>
<text text-anchor="middle" x="258.5" y="-1527.5" font-family="sans" font-size="10.00" fill="#000000">fixSB</text>
</g>
<!-- 24&#45;&gt;27 -->
<g id="edge56" class="edge">
<title>24&#45;&gt;27</title>
<path fill="none" stroke="#c0c0c0" stroke-width="2" d="M283.9204,-1583.8314C280.1642,-1575.8771 275.6743,-1566.369 271.5202,-1557.5723"/>
<polygon fill="#c0c0c0" stroke="#c0c0c0" stroke-width="2" points="274.6301,-1555.9612 267.1952,-1548.4133 268.3004,-1558.9503 274.6301,-1555.9612"/>
</g>
<!-- 25&#45;&gt;24 -->
<g id="edge53" class="edge">
<title>25&#45;&gt;24</title>
<path fill="none" stroke="#c0c0c0" stroke-width="2" d="M273.0609,-1655.8314C275.9027,-1647.9617 279.2937,-1638.5712 282.4419,-1629.8533"/>
<polygon fill="#c0c0c0" stroke="#c0c0c0" stroke-width="2" points="285.7462,-1631.0076 285.8508,-1620.4133 279.1623,-1628.63 285.7462,-1631.0076"/>
</g>
<!-- 26&#45;&gt;24 -->
<g id="edge52" class="edge">
<title>26&#45;&gt;24</title>
<path fill="none" stroke="#c0c0c0" stroke-width="2" d="M341.0978,-1655.8314C333.4585,-1647.3694 324.2317,-1637.1489 315.8793,-1627.8971"/>
<polygon fill="#c0c0c0" stroke="#c0c0c0" stroke-width="2" points="318.4221,-1625.4906 309.1231,-1620.4133 313.2262,-1630.1813 318.4221,-1625.4906"/>
</g>
<!-- 27&#45;&gt;23 -->
<g id="edge50" class="edge">
<title>27&#45;&gt;23</title>
<path fill="none" stroke="#c0c0c0" stroke-width="2" d="M264.5562,-1511.8314C267.1512,-1504.0463 270.2424,-1494.7729 273.1218,-1486.1347"/>
<polygon fill="#c0c0c0" stroke="#c0c0c0" stroke-width="2" points="276.5203,-1487.0069 276.3622,-1476.4133 269.8795,-1484.7933 276.5203,-1487.0069"/>
</g>
<!-- 28&#45;&gt;22 -->
<g id="edge47" class="edge">
<title>28&#45;&gt;22</title>
<path fill="none" stroke="#c0c0c0" stroke-width="2" d="M194.7792,-1799.8486C198.0012,-1772.5755 203.5,-1719.3818 203.5,-1674 203.5,-1674 203.5,-1674 203.5,-1530 203.5,-1489.1184 194.2814,-1469.5808 222.5,-1440 244.4163,-1417.0257 329.3958,-1400.6518 383.4231,-1392.31"/>
<polygon fill="#c0c0c0" stroke="#c0c0c0" stroke-width="2" points="384.0916,-1395.7488 393.4583,-1390.7976 383.0484,-1388.827 384.0916,-1395.7488"/>
</g>
<!-- 29 -->
<g id="node30" class="node">
<title>29</title>
<path fill="none" stroke="#567bd8" stroke-width="2" d="M450.5,-1476C450.5,-1476 408.5,-1476 408.5,-1476 402.5,-1476 396.5,-1470 396.5,-1464 396.5,-1464 396.5,-1452 396.5,-1452 396.5,-1446 402.5,-1440 408.5,-1440 408.5,-1440 450.5,-1440 450.5,-1440 456.5,-1440 462.5,-1446 462.5,-1452 462.5,-1452 462.5,-1464 462.5,-1464 462.5,-1470 456.5,-1476 450.5,-1476"/>
<text text-anchor="middle" x="429.5" y="-1455.5" font-family="sans" font-size="10.00" fill="#000000">sortPisces</text>
</g>
<!-- 29&#45;&gt;22 -->
<g id="edge48" class="edge">
<title>29&#45;&gt;22</title>
<path fill="none" stroke="#c0c0c0" stroke-width="2" d="M429.5,-1439.8314C429.5,-1432.131 429.5,-1422.9743 429.5,-1414.4166"/>
<polygon fill="#c0c0c0" stroke="#c0c0c0" stroke-width="2" points="433.0001,-1414.4132 429.5,-1404.4133 426.0001,-1414.4133 433.0001,-1414.4132"/>
</g>
<!-- 30 -->
<g id="node31" class="node">
<title>30</title>
<path fill="none" stroke="#d8b456" stroke-width="2" d="M538,-1548C538,-1548 501,-1548 501,-1548 495,-1548 489,-1542 489,-1536 489,-1536 489,-1524 489,-1524 489,-1518 495,-1512 501,-1512 501,-1512 538,-1512 538,-1512 544,-1512 550,-1518 550,-1524 550,-1524 550,-1536 550,-1536 550,-1542 544,-1548 538,-1548"/>
<text text-anchor="middle" x="519.5" y="-1527.5" font-family="sans" font-size="10.00" fill="#000000">piscesFix</text>
</g>
<!-- 30&#45;&gt;29 -->
<g id="edge60" class="edge">
<title>30&#45;&gt;29</title>
<path fill="none" stroke="#c0c0c0" stroke-width="2" d="M496.7892,-1511.8314C485.704,-1502.9632 472.2046,-1492.1637 460.2148,-1482.5718"/>
<polygon fill="#c0c0c0" stroke="#c0c0c0" stroke-width="2" points="462.1987,-1479.6768 452.2035,-1476.1628 457.8258,-1485.1429 462.1987,-1479.6768"/>
</g>
<!-- 31&#45;&gt;30 -->
<g id="edge61" class="edge">
<title>31&#45;&gt;30</title>
<path fill="none" stroke="#c0c0c0" stroke-width="2" d="M449.2202,-1583.8314C460.9094,-1574.8779 475.1688,-1563.9558 487.7809,-1554.2955"/>
<polygon fill="#c0c0c0" stroke="#c0c0c0" stroke-width="2" points="489.9769,-1557.0222 495.7874,-1548.1628 485.7203,-1551.4651 489.9769,-1557.0222"/>
</g>
<!-- 32 -->
<g id="node33" class="node">
<title>32</title>
<path fill="none" stroke="#9fd856" stroke-width="2" d="M459,-1548C459,-1548 392,-1548 392,-1548 386,-1548 380,-1542 380,-1536 380,-1536 380,-1524 380,-1524 380,-1518 386,-1512 392,-1512 392,-1512 459,-1512 459,-1512 465,-1512 471,-1518 471,-1524 471,-1524 471,-1536 471,-1536 471,-1542 465,-1548 459,-1548"/>
<text text-anchor="middle" x="425.5" y="-1527.5" font-family="sans" font-size="10.00" fill="#000000">renameSample</text>
</g>
<!-- 31&#45;&gt;32 -->
<g id="edge64" class="edge">
<title>31&#45;&gt;32</title>
<path fill="none" stroke="#c0c0c0" stroke-width="2" d="M425.5,-1583.8314C425.5,-1576.131 425.5,-1566.9743 425.5,-1558.4166"/>
<polygon fill="#c0c0c0" stroke="#c0c0c0" stroke-width="2" points="429.0001,-1558.4132 425.5,-1548.4133 422.0001,-1558.4133 429.0001,-1558.4132"/>
</g>
<!-- 63 -->
<g id="node64" class="node">
<title>63</title>
<path fill="none" stroke="#56d85b" stroke-width="2" d="M331.5,-1332C331.5,-1332 257.5,-1332 257.5,-1332 251.5,-1332 245.5,-1326 245.5,-1320 245.5,-1320 245.5,-1308 245.5,-1308 245.5,-1302 251.5,-1296 257.5,-1296 257.5,-1296 331.5,-1296 331.5,-1296 337.5,-1296 343.5,-1302 343.5,-1308 343.5,-1308 343.5,-1320 343.5,-1320 343.5,-1326 337.5,-1332 331.5,-1332"/>
<text text-anchor="middle" x="294.5" y="-1311.5" font-family="sans" font-size="10.00" fill="#000000">gVCFdecompose</text>
</g>
<!-- 31&#45;&gt;63 -->
<g id="edge107" class="edge">
<title>31&#45;&gt;63</title>
<path fill="none" stroke="#c0c0c0" stroke-width="2" d="M402.4379,-1583.8946C391.6155,-1574.2903 379.3923,-1561.6615 371.5,-1548 346.6384,-1504.9648 357.8108,-1487.2832 342.5,-1440 331.3591,-1405.5944 316.1836,-1366.8269 305.9006,-1341.4924"/>
<polygon fill="#c0c0c0" stroke="#c0c0c0" stroke-width="2" points="309.1078,-1340.0882 302.0851,-1332.1552 302.628,-1342.7362 309.1078,-1340.0882"/>
</g>
<!-- 32&#45;&gt;29 -->
<g id="edge59" class="edge">
<title>32&#45;&gt;29</title>
<path fill="none" stroke="#c0c0c0" stroke-width="2" d="M426.5094,-1511.8314C426.9372,-1504.131 427.4459,-1494.9743 427.9213,-1486.4166"/>
<polygon fill="#c0c0c0" stroke="#c0c0c0" stroke-width="2" points="431.4169,-1486.592 428.477,-1476.4133 424.4276,-1486.2037 431.4169,-1486.592"/>
</g>
<!-- 33 -->
<g id="node34" class="node">
<title>33</title>
<path fill="none" stroke="#56d8b9" stroke-width="2" d="M568,-1476C568,-1476 507,-1476 507,-1476 501,-1476 495,-1470 495,-1464 495,-1464 495,-1452 495,-1452 495,-1446 501,-1440 507,-1440 507,-1440 568,-1440 568,-1440 574,-1440 580,-1446 580,-1452 580,-1452 580,-1464 580,-1464 580,-1470 574,-1476 568,-1476"/>
<text text-anchor="middle" x="537.5" y="-1455.5" font-family="sans" font-size="10.00" fill="#000000">sortFreebayes</text>
</g>
<!-- 33&#45;&gt;22 -->
<g id="edge49" class="edge">
<title>33&#45;&gt;22</title>
<path fill="none" stroke="#c0c0c0" stroke-width="2" d="M510.247,-1439.8314C496.5611,-1430.7074 479.8085,-1419.539 465.1173,-1409.7449"/>
<polygon fill="#c0c0c0" stroke="#c0c0c0" stroke-width="2" points="467.0062,-1406.7977 456.7442,-1404.1628 463.1233,-1412.6221 467.0062,-1406.7977"/>
</g>
<!-- 34&#45;&gt;33 -->
<g id="edge65" class="edge">
<title>34&#45;&gt;33</title>
<path fill="none" stroke="#c0c0c0" stroke-width="2" d="M536.2172,-1799.7256C552.099,-1773.1531 578.5,-1721.793 578.5,-1674 578.5,-1674 578.5,-1674 578.5,-1602 578.5,-1560.1463 562.2804,-1513.9754 550.2444,-1485.4754"/>
<polygon fill="#c0c0c0" stroke="#c0c0c0" stroke-width="2" points="553.3939,-1483.9412 546.195,-1476.1676 546.975,-1486.7337 553.3939,-1483.9412"/>
</g>
<!-- 35&#45;&gt;18 -->
<g id="edge41" class="edge">
<title>35&#45;&gt;18</title>
<path fill="none" stroke="#c0c0c0" stroke-width="2" d="M519.4344,-1079.8314C516.374,-1071.9617 512.7221,-1062.5712 509.3318,-1053.8533"/>
<polygon fill="#c0c0c0" stroke="#c0c0c0" stroke-width="2" points="512.5473,-1052.4647 505.6607,-1044.4133 506.0232,-1055.0019 512.5473,-1052.4647"/>
</g>
<!-- 36&#45;&gt;15 -->
<g id="edge37" class="edge">
<title>36&#45;&gt;15</title>
<path fill="none" stroke="#c0c0c0" stroke-width="2" d="M495.8173,-791.8314C486.3949,-783.1337 474.9599,-772.5783 464.7204,-763.1265"/>
<polygon fill="#c0c0c0" stroke="#c0c0c0" stroke-width="2" points="466.8984,-760.3738 457.1764,-756.1628 462.1505,-765.5175 466.8984,-760.3738"/>
</g>
<!-- 37 -->
<g id="node38" class="node">
<title>37</title>
<path fill="none" stroke="#59d856" stroke-width="2" d="M424.5,-1044C424.5,-1044 358.5,-1044 358.5,-1044 352.5,-1044 346.5,-1038 346.5,-1032 346.5,-1032 346.5,-1020 346.5,-1020 346.5,-1014 352.5,-1008 358.5,-1008 358.5,-1008 424.5,-1008 424.5,-1008 430.5,-1008 436.5,-1014 436.5,-1020 436.5,-1020 436.5,-1032 436.5,-1032 436.5,-1038 430.5,-1044 424.5,-1044"/>
<text text-anchor="middle" x="391.5" y="-1023.5" font-family="sans" font-size="10.00" fill="#000000">sort_multiPASS</text>
</g>
<!-- 37&#45;&gt;15 -->
<g id="edge38" class="edge">
<title>37&#45;&gt;15</title>
<path fill="none" stroke="#c0c0c0" stroke-width="2" d="M394.3775,-1007.9843C402.1544,-959.2939 423.6367,-824.7961 433.0186,-766.0573"/>
<polygon fill="#c0c0c0" stroke="#c0c0c0" stroke-width="2" points="436.5025,-766.4358 434.6236,-756.0089 429.5901,-765.3317 436.5025,-766.4358"/>
</g>
<!-- 38&#45;&gt;37 -->
<g id="edge70" class="edge">
<title>38&#45;&gt;37</title>
<path fill="none" stroke="#c0c0c0" stroke-width="2" d="M380.2851,-1079.8314C381.8894,-1072.131 383.797,-1062.9743 385.5799,-1054.4166"/>
<polygon fill="#c0c0c0" stroke="#c0c0c0" stroke-width="2" points="389.0507,-1054.9169 387.6639,-1044.4133 382.1979,-1053.4892 389.0507,-1054.9169"/>
</g>
<!-- 39 -->
<g id="node40" class="node">
<title>39</title>
<path fill="none" stroke="#b6d856" stroke-width="2" d="M725,-468C725,-468 676,-468 676,-468 670,-468 664,-462 664,-456 664,-456 664,-444 664,-444 664,-438 670,-432 676,-432 676,-432 725,-432 725,-432 731,-432 737,-438 737,-444 737,-444 737,-456 737,-456 737,-462 731,-468 725,-468"/>
<text text-anchor="middle" x="700.5" y="-447.5" font-family="sans" font-size="10.00" fill="#000000">bgzipPindel</text>
</g>
<!-- 39&#45;&gt;0 -->
<g id="edge9" class="edge">
<title>39&#45;&gt;0</title>
<path fill="none" stroke="#c0c0c0" stroke-width="2" d="M680.4769,-431.9073C657.1079,-411.6795 616.5387,-379.2429 576.5,-360 522.0783,-333.8446 487.1255,-367.7395 445.5,-324 417.252,-294.3173 425.5,-274.9758 425.5,-234 425.5,-234 425.5,-234 425.5,-162 425.5,-120.3681 410.4672,-74.14 399.3119,-45.567"/>
<polygon fill="#c0c0c0" stroke="#c0c0c0" stroke-width="2" points="402.5368,-44.2055 395.5588,-36.2332 396.0422,-46.817 402.5368,-44.2055"/>
</g>
<!-- 39&#45;&gt;10 -->
<g id="edge30" class="edge">
<title>39&#45;&gt;10</title>
<path fill="none" stroke="#c0c0c0" stroke-width="2" d="M737.1281,-439.1792C790.0168,-421.0331 881.5,-379.0825 881.5,-306 881.5,-306 881.5,-306 881.5,-234 881.5,-193.876 881.5,-147.4631 881.5,-118.4177"/>
<polygon fill="#c0c0c0" stroke="#c0c0c0" stroke-width="2" points="885.0001,-118.1853 881.5,-108.1854 878.0001,-118.1854 885.0001,-118.1853"/>
</g>
<!-- 39&#45;&gt;59 -->
<g id="edge101" class="edge">
<title>39&#45;&gt;59</title>
<path fill="none" stroke="#c0c0c0" stroke-width="2" d="M701.5094,-431.8314C701.9372,-424.131 702.4459,-414.9743 702.9213,-406.4166"/>
<polygon fill="#c0c0c0" stroke="#c0c0c0" stroke-width="2" points="706.4169,-406.592 703.477,-396.4133 699.4276,-406.2037 706.4169,-406.592"/>
</g>
<!-- 60 -->
<g id="node61" class="node">
<title>60</title>
<path fill="none" stroke="#56d8a2" stroke-width="2" d="M803.5,-324C803.5,-324 711.5,-324 711.5,-324 705.5,-324 699.5,-318 699.5,-312 699.5,-312 699.5,-300 699.5,-300 699.5,-294 705.5,-288 711.5,-288 711.5,-288 803.5,-288 803.5,-288 809.5,-288 815.5,-294 815.5,-300 815.5,-300 815.5,-312 815.5,-312 815.5,-318 809.5,-324 803.5,-324"/>
<text text-anchor="middle" x="757.5" y="-303.5" font-family="sans" font-size="10.00" fill="#000000">appendPindeltoPASS</text>
</g>
<!-- 39&#45;&gt;60 -->
<g id="edge103" class="edge">
<title>39&#45;&gt;60</title>
<path fill="none" stroke="#c0c0c0" stroke-width="2" d="M727.151,-431.8795C738.4211,-422.6065 750.3467,-410.261 756.5,-396 764.8834,-376.5705 764.6771,-352.5122 762.623,-334.1593"/>
<polygon fill="#c0c0c0" stroke="#c0c0c0" stroke-width="2" points="766.0692,-333.5266 761.251,-324.0908 759.1333,-334.4718 766.0692,-333.5266"/>
</g>
<!-- 39&#45;&gt;61 -->
<g id="edge105" class="edge">
<title>39&#45;&gt;61</title>
<path fill="none" stroke="#c0c0c0" stroke-width="2" d="M663.6696,-435.4297C637.9133,-425.2404 603.0543,-411.4501 573.9511,-399.9367"/>
<polygon fill="#c0c0c0" stroke="#c0c0c0" stroke-width="2" points="574.9098,-396.5521 564.3235,-396.128 572.3347,-403.0612 574.9098,-396.5521"/>
</g>
<!-- 40 -->
<g id="node41" class="node">
<title>40</title>
<path fill="none" stroke="#d86e56" stroke-width="2" d="M706,-756C706,-756 661,-756 661,-756 655,-756 649,-750 649,-744 649,-744 649,-732 649,-732 649,-726 655,-720 661,-720 661,-720 706,-720 706,-720 712,-720 718,-726 718,-732 718,-732 718,-744 718,-744 718,-750 712,-756 706,-756"/>
<text text-anchor="middle" x="683.5" y="-735.5" font-family="sans" font-size="10.00" fill="#000000">filterPindel</text>
</g>
<!-- 40&#45;&gt;39 -->
<g id="edge72" class="edge">
<title>40&#45;&gt;39</title>
<path fill="none" stroke="#c0c0c0" stroke-width="2" d="M684.5634,-719.9843C687.4375,-671.2939 695.3766,-536.7961 698.8438,-478.0573"/>
<polygon fill="#c0c0c0" stroke="#c0c0c0" stroke-width="2" points="702.3415,-478.1978 699.437,-468.0089 695.3537,-477.7852 702.3415,-478.1978"/>
</g>
<!-- 41 -->
<g id="node42" class="node">
<title>41</title>
<path fill="none" stroke="#56b9d8" stroke-width="2" d="M711.5,-828C711.5,-828 645.5,-828 645.5,-828 639.5,-828 633.5,-822 633.5,-816 633.5,-816 633.5,-804 633.5,-804 633.5,-798 639.5,-792 645.5,-792 645.5,-792 711.5,-792 711.5,-792 717.5,-792 723.5,-798 723.5,-804 723.5,-804 723.5,-816 723.5,-816 723.5,-822 717.5,-828 711.5,-828"/>
<text text-anchor="middle" x="678.5" y="-807.5" font-family="sans" font-size="10.00" fill="#000000">annotatePindel</text>
</g>
<!-- 41&#45;&gt;40 -->
<g id="edge73" class="edge">
<title>41&#45;&gt;40</title>
<path fill="none" stroke="#c0c0c0" stroke-width="2" d="M679.7617,-791.8314C680.2965,-784.131 680.9323,-774.9743 681.5266,-766.4166"/>
<polygon fill="#c0c0c0" stroke="#c0c0c0" stroke-width="2" points="685.02,-766.6317 682.2213,-756.4133 678.0368,-766.1467 685.02,-766.6317"/>
</g>
<!-- 42 -->
<g id="node43" class="node">
<title>42</title>
<path fill="none" stroke="#5673d8" stroke-width="2" d="M711.5,-900C711.5,-900 645.5,-900 645.5,-900 639.5,-900 633.5,-894 633.5,-888 633.5,-888 633.5,-876 633.5,-876 633.5,-870 639.5,-864 645.5,-864 645.5,-864 711.5,-864 711.5,-864 717.5,-864 723.5,-870 723.5,-876 723.5,-876 723.5,-888 723.5,-888 723.5,-894 717.5,-900 711.5,-900"/>
<text text-anchor="middle" x="678.5" y="-879.5" font-family="sans" font-size="10.00" fill="#000000">fixPindelDPoAF</text>
</g>
<!-- 42&#45;&gt;41 -->
<g id="edge74" class="edge">
<title>42&#45;&gt;41</title>
<path fill="none" stroke="#c0c0c0" stroke-width="2" d="M678.5,-863.8314C678.5,-856.131 678.5,-846.9743 678.5,-838.4166"/>
<polygon fill="#c0c0c0" stroke="#c0c0c0" stroke-width="2" points="682.0001,-838.4132 678.5,-828.4133 675.0001,-838.4133 682.0001,-838.4132"/>
</g>
<!-- 43 -->
<g id="node44" class="node">
<title>43</title>
<path fill="none" stroke="#56d87b" stroke-width="2" d="M711.5,-972C711.5,-972 645.5,-972 645.5,-972 639.5,-972 633.5,-966 633.5,-960 633.5,-960 633.5,-948 633.5,-948 633.5,-942 639.5,-936 645.5,-936 645.5,-936 711.5,-936 711.5,-936 717.5,-936 723.5,-942 723.5,-948 723.5,-948 723.5,-960 723.5,-960 723.5,-966 717.5,-972 711.5,-972"/>
<text text-anchor="middle" x="678.5" y="-951.5" font-family="sans" font-size="10.00" fill="#000000">fixContigPindel</text>
</g>
<!-- 43&#45;&gt;42 -->
<g id="edge75" class="edge">
<title>43&#45;&gt;42</title>
<path fill="none" stroke="#c0c0c0" stroke-width="2" d="M678.5,-935.8314C678.5,-928.131 678.5,-918.9743 678.5,-910.4166"/>
<polygon fill="#c0c0c0" stroke="#c0c0c0" stroke-width="2" points="682.0001,-910.4132 678.5,-900.4133 675.0001,-910.4133 682.0001,-910.4132"/>
</g>
<!-- 44 -->
<g id="node45" class="node">
<title>44</title>
<path fill="none" stroke="#569ad8" stroke-width="2" d="M706.5,-1188C706.5,-1188 662.5,-1188 662.5,-1188 656.5,-1188 650.5,-1182 650.5,-1176 650.5,-1176 650.5,-1164 650.5,-1164 650.5,-1158 656.5,-1152 662.5,-1152 662.5,-1152 706.5,-1152 706.5,-1152 712.5,-1152 718.5,-1158 718.5,-1164 718.5,-1164 718.5,-1176 718.5,-1176 718.5,-1182 712.5,-1188 706.5,-1188"/>
<text text-anchor="middle" x="684.5" y="-1167.5" font-family="sans" font-size="10.00" fill="#000000">pindel2vcf</text>
</g>
<!-- 44&#45;&gt;43 -->
<g id="edge76" class="edge">
<title>44&#45;&gt;43</title>
<path fill="none" stroke="#c0c0c0" stroke-width="2" d="M683.9988,-1151.9555C682.9554,-1114.3938 680.5432,-1027.5541 679.2892,-982.4103"/>
<polygon fill="#c0c0c0" stroke="#c0c0c0" stroke-width="2" points="682.7804,-982.044 679.004,-972.1451 675.7831,-982.2384 682.7804,-982.044"/>
</g>
<!-- 45 -->
<g id="node46" class="node">
<title>45</title>
<path fill="none" stroke="#d89556" stroke-width="2" d="M705.5,-1260C705.5,-1260 675.5,-1260 675.5,-1260 669.5,-1260 663.5,-1254 663.5,-1248 663.5,-1248 663.5,-1236 663.5,-1236 663.5,-1230 669.5,-1224 675.5,-1224 675.5,-1224 705.5,-1224 705.5,-1224 711.5,-1224 717.5,-1230 717.5,-1236 717.5,-1236 717.5,-1248 717.5,-1248 717.5,-1254 711.5,-1260 705.5,-1260"/>
<text text-anchor="middle" x="690.5" y="-1239.5" font-family="sans" font-size="10.00" fill="#000000">pindel</text>
</g>
<!-- 45&#45;&gt;44 -->
<g id="edge77" class="edge">
<title>45&#45;&gt;44</title>
<path fill="none" stroke="#c0c0c0" stroke-width="2" d="M688.9859,-1223.8314C688.3442,-1216.131 687.5812,-1206.9743 686.8681,-1198.4166"/>
<polygon fill="#c0c0c0" stroke="#c0c0c0" stroke-width="2" points="690.3529,-1198.088 686.0344,-1188.4133 683.3771,-1198.6694 690.3529,-1198.088"/>
</g>
<!-- 46&#45;&gt;45 -->
<g id="edge78" class="edge">
<title>46&#45;&gt;45</title>
<path fill="none" stroke="#c0c0c0" stroke-width="2" d="M732.8653,-1799.7257C722.2979,-1772.7325 704.5,-1720.3849 704.5,-1674 704.5,-1674 704.5,-1674 704.5,-1386 704.5,-1345.6868 698.9973,-1299.322 694.8916,-1270.3387"/>
<polygon fill="#c0c0c0" stroke="#c0c0c0" stroke-width="2" points="698.3092,-1269.5197 693.4008,-1260.1304 691.3827,-1270.5313 698.3092,-1269.5197"/>
</g>
<!-- 47 -->
<g id="node48" class="node">
<title>47</title>
<path fill="none" stroke="#70d856" stroke-width="2" d="M718,-180C718,-180 609,-180 609,-180 603,-180 597,-174 597,-168 597,-168 597,-156 597,-156 597,-150 603,-144 609,-144 609,-144 718,-144 718,-144 724,-144 730,-150 730,-156 730,-156 730,-168 730,-168 730,-174 724,-180 718,-180"/>
<text text-anchor="middle" x="663.5" y="-159.5" font-family="sans" font-size="10.00" fill="#000000">callCopyRatioSegments</text>
</g>
<!-- 47&#45;&gt;10 -->
<g id="edge22" class="edge">
<title>47&#45;&gt;10</title>
<path fill="none" stroke="#c0c0c0" stroke-width="2" d="M718.2292,-143.9243C755.8814,-131.4887 805.133,-115.2221 839.6569,-103.8197"/>
<polygon fill="#c0c0c0" stroke="#c0c0c0" stroke-width="2" points="841.027,-107.0532 849.4249,-100.5936 838.8317,-100.4064 841.027,-107.0532"/>
</g>
<!-- 48 -->
<g id="node49" class="node">
<title>48</title>
<path fill="none" stroke="#5682d8" stroke-width="2" d="M628.5,-252C628.5,-252 556.5,-252 556.5,-252 550.5,-252 544.5,-246 544.5,-240 544.5,-240 544.5,-228 544.5,-228 544.5,-222 550.5,-216 556.5,-216 556.5,-216 628.5,-216 628.5,-216 634.5,-216 640.5,-222 640.5,-228 640.5,-228 640.5,-240 640.5,-240 640.5,-246 634.5,-252 628.5,-252"/>
<text text-anchor="middle" x="592.5" y="-231.5" font-family="sans" font-size="10.00" fill="#000000">modelSegments</text>
</g>
<!-- 48&#45;&gt;47 -->
<g id="edge81" class="edge">
<title>48&#45;&gt;47</title>
<path fill="none" stroke="#c0c0c0" stroke-width="2" d="M610.4163,-215.8314C618.8442,-207.2848 629.041,-196.9443 638.236,-187.6198"/>
<polygon fill="#c0c0c0" stroke="#c0c0c0" stroke-width="2" points="640.8131,-189.9912 645.3425,-180.4133 635.8289,-185.0761 640.8131,-189.9912"/>
</g>
<!-- 52 -->
<g id="node53" class="node">
<title>52</title>
<path fill="none" stroke="#56d882" stroke-width="2" d="M567,-180C567,-180 466,-180 466,-180 460,-180 454,-174 454,-168 454,-168 454,-156 454,-156 454,-150 460,-144 466,-144 466,-144 567,-144 567,-144 573,-144 579,-150 579,-156 579,-156 579,-168 579,-168 579,-174 573,-180 567,-180"/>
<text text-anchor="middle" x="516.5" y="-159.5" font-family="sans" font-size="10.00" fill="#000000">plotModeledSegments</text>
</g>
<!-- 48&#45;&gt;52 -->
<g id="edge89" class="edge">
<title>48&#45;&gt;52</title>
<path fill="none" stroke="#c0c0c0" stroke-width="2" d="M573.322,-215.8314C564.1412,-207.1337 552.9994,-196.5783 543.0224,-187.1265"/>
<polygon fill="#c0c0c0" stroke="#c0c0c0" stroke-width="2" points="545.3385,-184.4995 535.6719,-180.1628 540.5243,-189.5811 545.3385,-184.4995"/>
</g>
<!-- 49 -->
<g id="node50" class="node">
<title>49</title>
<path fill="none" stroke="#bed856" stroke-width="2" d="M555,-324C555,-324 466,-324 466,-324 460,-324 454,-318 454,-312 454,-312 454,-300 454,-300 454,-294 460,-288 466,-288 466,-288 555,-288 555,-288 561,-288 567,-294 567,-300 567,-300 567,-312 567,-312 567,-318 561,-324 555,-324"/>
<text text-anchor="middle" x="510.5" y="-303.5" font-family="sans" font-size="10.00" fill="#000000">denoiseReadCounts</text>
</g>
<!-- 49&#45;&gt;48 -->
<g id="edge82" class="edge">
<title>49&#45;&gt;48</title>
<path fill="none" stroke="#c0c0c0" stroke-width="2" d="M531.1921,-287.8314C541.1948,-279.0485 553.355,-268.3712 564.1999,-258.8489"/>
<polygon fill="#c0c0c0" stroke="#c0c0c0" stroke-width="2" points="566.6094,-261.3909 571.8146,-252.1628 561.9908,-256.1308 566.6094,-261.3909"/>
</g>
<!-- 49&#45;&gt;52 -->
<g id="edge90" class="edge">
<title>49&#45;&gt;52</title>
<path fill="none" stroke="#c0c0c0" stroke-width="2" d="M511.2599,-287.7623C512.2833,-263.201 514.1147,-219.2474 515.3186,-190.3541"/>
<polygon fill="#c0c0c0" stroke="#c0c0c0" stroke-width="2" points="518.8268,-190.2267 515.7463,-180.0896 511.8329,-189.9352 518.8268,-190.2267"/>
</g>
<!-- 50&#45;&gt;49 -->
<g id="edge84" class="edge">
<title>50&#45;&gt;49</title>
<path fill="none" stroke="#c0c0c0" stroke-width="2" d="M61.5602,-1799.8856C80.7393,-1755.0764 127.5,-1635.0551 127.5,-1530 127.5,-1530 127.5,-1530 127.5,-594 127.5,-437.3311 334.7503,-355.3134 444.3397,-322.8956"/>
<polygon fill="#c0c0c0" stroke="#c0c0c0" stroke-width="2" points="445.3591,-326.2442 453.987,-320.0952 443.4077,-319.5217 445.3591,-326.2442"/>
</g>
<!-- 51&#45;&gt;48 -->
<g id="edge83" class="edge">
<title>51&#45;&gt;48</title>
<path fill="none" stroke="#c0c0c0" stroke-width="2" d="M628.392,-1799.8777C623.9984,-1772.6417 616.5,-1719.4948 616.5,-1674 616.5,-1674 616.5,-1674 616.5,-1602 616.5,-1063.1713 597.6561,-405.1445 593.3632,-262.2305"/>
<polygon fill="#c0c0c0" stroke="#c0c0c0" stroke-width="2" points="596.8583,-262.0107 593.0579,-252.1209 589.8615,-262.222 596.8583,-262.0107"/>
</g>
<!-- 52&#45;&gt;0 -->
<g id="edge6" class="edge">
<title>52&#45;&gt;0</title>
<path fill="none" stroke="#c0c0c0" stroke-width="2" d="M501.4664,-143.8004C486.1642,-125.4264 461.6148,-96.3602 439.5,-72 430.8885,-62.5141 421.2111,-52.3391 412.5607,-43.4073"/>
<polygon fill="#c0c0c0" stroke="#c0c0c0" stroke-width="2" points="415.0657,-40.9629 405.5819,-36.2395 410.0502,-45.8461 415.0657,-40.9629"/>
</g>
<!-- 52&#45;&gt;10 -->
<g id="edge27" class="edge">
<title>52&#45;&gt;10</title>
<path fill="none" stroke="#c0c0c0" stroke-width="2" d="M579.2743,-146.0602C582.3897,-145.3464 585.478,-144.6556 588.5,-144 677.2502,-124.7477 782.0814,-106.5035 839.1913,-96.9401"/>
<polygon fill="#c0c0c0" stroke="#c0c0c0" stroke-width="2" points="839.9968,-100.3542 849.285,-95.2571 838.8455,-93.4495 839.9968,-100.3542"/>
</g>
<!-- 53&#45;&gt;10 -->
<g id="edge23" class="edge">
<title>53&#45;&gt;10</title>
<path fill="none" stroke="#c0c0c0" stroke-width="2" d="M856.6533,-1799.746C845.7922,-1772.7781 827.5,-1720.4617 827.5,-1674 827.5,-1674 827.5,-1674 827.5,-738 827.5,-697.1184 820.0717,-679.1906 846.5,-648 874.8846,-614.5005 910.1154,-645.4995 938.5,-612 964.9283,-580.8094 957.5,-562.8816 957.5,-522 957.5,-522 957.5,-522 957.5,-234 957.5,-188.656 927.6616,-143.5999 905.3774,-116.2735"/>
<polygon fill="#c0c0c0" stroke="#c0c0c0" stroke-width="2" points="907.8585,-113.7856 898.7456,-108.3814 902.4994,-118.2889 907.8585,-113.7856"/>
</g>
<!-- 54 -->
<g id="node55" class="node">
<title>54</title>
<path fill="none" stroke="#ced856" stroke-width="2" d="M1031.5,-684C1031.5,-684 867.5,-684 867.5,-684 861.5,-684 855.5,-678 855.5,-672 855.5,-672 855.5,-660 855.5,-660 855.5,-654 861.5,-648 867.5,-648 867.5,-648 1031.5,-648 1031.5,-648 1037.5,-648 1043.5,-654 1043.5,-660 1043.5,-660 1043.5,-672 1043.5,-672 1043.5,-678 1037.5,-684 1031.5,-684"/>
<text text-anchor="middle" x="949.5" y="-663.5" font-family="sans" font-size="10.00" fill="#000000">bedtools_intersect_lowcov_regions</text>
</g>
<!-- 53&#45;&gt;54 -->
<g id="edge93" class="edge">
<title>53&#45;&gt;54</title>
<path fill="none" stroke="#c0c0c0" stroke-width="2" d="M864.7072,-1799.8149C865.0001,-1772.4989 865.5,-1719.2511 865.5,-1674 865.5,-1674 865.5,-1674 865.5,-810 865.5,-763.3742 898.7643,-718.406 923.4272,-691.4732"/>
<polygon fill="#c0c0c0" stroke="#c0c0c0" stroke-width="2" points="926.1229,-693.7162 930.4391,-684.0404 921.031,-688.9127 926.1229,-693.7162"/>
</g>
<!-- 55 -->
<g id="node56" class="node">
<title>55</title>
<path fill="none" stroke="#56b9d8" stroke-width="2" d="M987,-1764C987,-1764 906,-1764 906,-1764 900,-1764 894,-1758 894,-1752 894,-1752 894,-1740 894,-1740 894,-1734 900,-1728 906,-1728 906,-1728 987,-1728 987,-1728 993,-1728 999,-1734 999,-1740 999,-1740 999,-1752 999,-1752 999,-1758 993,-1764 987,-1764"/>
<text text-anchor="middle" x="946.5" y="-1743.5" font-family="sans" font-size="10.00" fill="#000000">fix_thresholds_file</text>
</g>
<!-- 53&#45;&gt;55 -->
<g id="edge94" class="edge">
<title>53&#45;&gt;55</title>
<path fill="none" stroke="#c0c0c0" stroke-width="2" d="M885.1921,-1799.8314C895.1948,-1791.0485 907.355,-1780.3712 918.1999,-1770.8489"/>
<polygon fill="#c0c0c0" stroke="#c0c0c0" stroke-width="2" points="920.6094,-1773.3909 925.8146,-1764.1628 915.9908,-1768.1308 920.6094,-1773.3909"/>
</g>
<!-- 56 -->
<g id="node57" class="node">
<title>56</title>
<path fill="none" stroke="#56d892" stroke-width="2" d="M917,-612C917,-612 792,-612 792,-612 786,-612 780,-606 780,-600 780,-600 780,-588 780,-588 780,-582 786,-576 792,-576 792,-576 917,-576 917,-576 923,-576 929,-582 929,-588 929,-588 929,-600 929,-600 929,-606 923,-612 917,-612"/>
<text text-anchor="middle" x="854.5" y="-591.5" font-family="sans" font-size="10.00" fill="#000000">bedtools_intersect_hotspot</text>
</g>
<!-- 53&#45;&gt;56 -->
<g id="edge95" class="edge">
<title>53&#45;&gt;56</title>
<path fill="none" stroke="#c0c0c0" stroke-width="2" d="M842.9938,-1799.9147C832.714,-1790.2247 821.0369,-1777.5148 813.5,-1764 793.3369,-1727.8444 789.5,-1715.3978 789.5,-1674 789.5,-1674 789.5,-1674 789.5,-738 789.5,-696.6022 795.3072,-685.186 813.5,-648 818.2332,-638.3253 824.8207,-628.668 831.3323,-620.2515"/>
<polygon fill="#c0c0c0" stroke="#c0c0c0" stroke-width="2" points="834.1959,-622.2761 837.747,-612.2941 828.7461,-617.8828 834.1959,-622.2761"/>
</g>
<!-- 53&#45;&gt;69 -->
<g id="edge118" class="edge">
<title>53&#45;&gt;69</title>
<path fill="none" stroke="#c0c0c0" stroke-width="2" d="M897.2745,-1807.0066C926.7659,-1796.81 971.0846,-1780.7278 1008.5,-1764 1054.5365,-1743.4179 1105.5171,-1716.1494 1139.9351,-1697.0422"/>
<polygon fill="#c0c0c0" stroke="#c0c0c0" stroke-width="2" points="1141.7212,-1700.0536 1148.7499,-1692.1259 1138.3115,-1693.9402 1141.7212,-1700.0536"/>
</g>
<!-- 54&#45;&gt;10 -->
<g id="edge24" class="edge">
<title>54&#45;&gt;10</title>
<path fill="none" stroke="#c0c0c0" stroke-width="2" d="M959.2554,-647.9518C972.7583,-621.2403 995.5,-569.2402 995.5,-522 995.5,-522 995.5,-522 995.5,-234 995.5,-192.6022 996.4045,-177.0688 971.5,-144 959.1986,-127.6659 940.388,-115.2757 923.1387,-106.5104"/>
<polygon fill="#c0c0c0" stroke="#c0c0c0" stroke-width="2" points="924.2974,-103.1843 913.7676,-102.0117 921.2679,-109.4948 924.2974,-103.1843"/>
</g>
<!-- 55&#45;&gt;10 -->
<g id="edge25" class="edge">
<title>55&#45;&gt;10</title>
<path fill="none" stroke="#c0c0c0" stroke-width="2" d="M977.5381,-1727.9286C1013.9758,-1704.1156 1069.5,-1658.5511 1069.5,-1602 1069.5,-1602 1069.5,-1602 1069.5,-954 1069.5,-825.9969 1071.5,-794.0031 1071.5,-666 1071.5,-666 1071.5,-666 1071.5,-234 1071.5,-160.2048 979.3381,-119.352 923.3892,-101.3505"/>
<polygon fill="#c0c0c0" stroke="#c0c0c0" stroke-width="2" points="924.319,-97.9745 913.7309,-98.353 922.244,-104.6599 924.319,-97.9745"/>
</g>
<!-- 55&#45;&gt;69 -->
<g id="edge119" class="edge">
<title>55&#45;&gt;69</title>
<path fill="none" stroke="#c0c0c0" stroke-width="2" d="M999.0142,-1729.8418C1036.6173,-1718.2716 1087.1442,-1702.7249 1125.336,-1690.9735"/>
<polygon fill="#c0c0c0" stroke="#c0c0c0" stroke-width="2" points="1126.7327,-1694.2058 1135.2611,-1687.9197 1124.674,-1687.5154 1126.7327,-1694.2058"/>
</g>
<!-- 56&#45;&gt;10 -->
<g id="edge29" class="edge">
<title>56&#45;&gt;10</title>
<path fill="none" stroke="#c0c0c0" stroke-width="2" d="M868.9256,-575.6392C888.0751,-549.37 919.5,-498.8235 919.5,-450 919.5,-450 919.5,-450 919.5,-234 919.5,-192.3681 904.4672,-146.14 893.3119,-117.567"/>
<polygon fill="#c0c0c0" stroke="#c0c0c0" stroke-width="2" points="896.5368,-116.2055 889.5588,-108.2332 890.0422,-118.817 896.5368,-116.2055"/>
</g>
<!-- 57 -->
<g id="node58" class="node">
<title>57</title>
<path fill="none" stroke="#d88556" stroke-width="2" d="M835.5,-180C835.5,-180 805.5,-180 805.5,-180 799.5,-180 793.5,-174 793.5,-168 793.5,-168 793.5,-156 793.5,-156 793.5,-150 799.5,-144 805.5,-144 805.5,-144 835.5,-144 835.5,-144 841.5,-144 847.5,-150 847.5,-156 847.5,-156 847.5,-168 847.5,-168 847.5,-174 841.5,-180 835.5,-180"/>
<text text-anchor="middle" x="820.5" y="-159.5" font-family="sans" font-size="10.00" fill="#000000">igv</text>
</g>
<!-- 57&#45;&gt;10 -->
<g id="edge31" class="edge">
<title>57&#45;&gt;10</title>
<path fill="none" stroke="#c0c0c0" stroke-width="2" d="M835.8929,-143.8314C842.9904,-135.454 851.548,-125.3531 859.324,-116.1749"/>
<polygon fill="#c0c0c0" stroke="#c0c0c0" stroke-width="2" points="862.1061,-118.3056 865.8999,-108.4133 856.7652,-113.7807 862.1061,-118.3056"/>
</g>
<!-- 58&#45;&gt;57 -->
<g id="edge96" class="edge">
<title>58&#45;&gt;57</title>
<path fill="none" stroke="#c0c0c0" stroke-width="2" d="M794.332,-215.8314C798.1986,-207.8771 802.8206,-198.369 807.0968,-189.5723"/>
<polygon fill="#c0c0c0" stroke="#c0c0c0" stroke-width="2" points="810.3249,-190.9371 811.5491,-180.4133 804.0293,-187.8768 810.3249,-190.9371"/>
</g>
<!-- 59&#45;&gt;58 -->
<g id="edge98" class="edge">
<title>59&#45;&gt;58</title>
<path fill="none" stroke="#c0c0c0" stroke-width="2" d="M695.1674,-359.8175C686.7577,-340.6736 677.5375,-310.2784 690.5,-288 700.4821,-270.8439 718.1727,-258.6914 735.6038,-250.3181"/>
<polygon fill="#c0c0c0" stroke="#c0c0c0" stroke-width="2" points="737.4945,-253.3079 745.2104,-246.0474 734.6508,-246.9115 737.4945,-253.3079"/>
</g>
<!-- 59&#45;&gt;60 -->
<g id="edge102" class="edge">
<title>59&#45;&gt;60</title>
<path fill="none" stroke="#c0c0c0" stroke-width="2" d="M717.8741,-359.8314C723.9162,-351.6232 731.1763,-341.7606 737.8221,-332.7323"/>
<polygon fill="#c0c0c0" stroke="#c0c0c0" stroke-width="2" points="740.8363,-334.5415 743.9458,-324.4133 735.1989,-330.3918 740.8363,-334.5415"/>
</g>
<!-- 60&#45;&gt;58 -->
<g id="edge99" class="edge">
<title>60&#45;&gt;58</title>
<path fill="none" stroke="#c0c0c0" stroke-width="2" d="M764.5656,-287.8314C767.626,-279.9617 771.2779,-270.5712 774.6682,-261.8533"/>
<polygon fill="#c0c0c0" stroke="#c0c0c0" stroke-width="2" points="777.9768,-263.0019 778.3393,-252.4133 771.4527,-260.4647 777.9768,-263.0019"/>
</g>
<!-- 61&#45;&gt;0 -->
<g id="edge4" class="edge">
<title>61&#45;&gt;0</title>
<path fill="none" stroke="#c0c0c0" stroke-width="2" d="M469.2393,-363.2498C448.7066,-354.8016 426.256,-342.1726 411.5,-324 385.4047,-291.8626 387.5,-275.3978 387.5,-234 387.5,-234 387.5,-234 387.5,-162 387.5,-121.876 387.5,-75.4631 387.5,-46.4177"/>
<polygon fill="#c0c0c0" stroke="#c0c0c0" stroke-width="2" points="391.0001,-46.1853 387.5,-36.1854 384.0001,-46.1854 391.0001,-46.1853"/>
</g>
<!-- 62 -->
<g id="node63" class="node">
<title>62</title>
<path fill="none" stroke="#d89556" stroke-width="2" d="M271.5,-180C271.5,-180 205.5,-180 205.5,-180 199.5,-180 193.5,-174 193.5,-168 193.5,-168 193.5,-156 193.5,-156 193.5,-150 199.5,-144 205.5,-144 205.5,-144 271.5,-144 271.5,-144 277.5,-144 283.5,-150 283.5,-156 283.5,-156 283.5,-168 283.5,-168 283.5,-174 277.5,-180 271.5,-180"/>
<text text-anchor="middle" x="238.5" y="-159.5" font-family="sans" font-size="10.00" fill="#000000">gVCFnormalize</text>
</g>
<!-- 62&#45;&gt;0 -->
<g id="edge8" class="edge">
<title>62&#45;&gt;0</title>
<path fill="none" stroke="#c0c0c0" stroke-width="2" d="M227.8674,-143.6483C218.087,-124.0818 207.2242,-93.0724 222.5,-72 237.6492,-51.1023 306.3804,-33.9967 350.218,-24.9629"/>
<polygon fill="#c0c0c0" stroke="#c0c0c0" stroke-width="2" points="351.1268,-28.3503 360.2408,-22.9481 349.7471,-21.4876 351.1268,-28.3503"/>
</g>
<!-- 64 -->
<g id="node65" class="node">
<title>64</title>
<path fill="none" stroke="#d8c356" stroke-width="2" d="M309,-108C309,-108 244,-108 244,-108 238,-108 232,-102 232,-96 232,-96 232,-84 232,-84 232,-78 238,-72 244,-72 244,-72 309,-72 309,-72 315,-72 321,-78 321,-84 321,-84 321,-96 321,-96 321,-102 315,-108 309,-108"/>
<text text-anchor="middle" x="276.5" y="-87.5" font-family="sans" font-size="10.00" fill="#000000">gVCFfinalIndex</text>
</g>
<!-- 62&#45;&gt;64 -->
<g id="edge108" class="edge">
<title>62&#45;&gt;64</title>
<path fill="none" stroke="#c0c0c0" stroke-width="2" d="M248.089,-143.8314C252.3317,-135.7925 257.4121,-126.1666 262.096,-117.2918"/>
<polygon fill="#c0c0c0" stroke="#c0c0c0" stroke-width="2" points="265.2096,-118.8908 266.7819,-108.4133 259.0189,-115.6235 265.2096,-118.8908"/>
</g>
<!-- 63&#45;&gt;62 -->
<g id="edge106" class="edge">
<title>63&#45;&gt;62</title>
<path fill="none" stroke="#c0c0c0" stroke-width="2" d="M273.394,-1295.8504C246.5117,-1270.5934 203.5,-1222.0495 203.5,-1170 203.5,-1170 203.5,-1170 203.5,-306 203.5,-264.755 217.2253,-218.697 227.4858,-190.0283"/>
<polygon fill="#c0c0c0" stroke="#c0c0c0" stroke-width="2" points="230.8994,-190.8874 231.0774,-180.2941 224.3322,-188.4643 230.8994,-190.8874"/>
</g>
<!-- 64&#45;&gt;0 -->
<g id="edge2" class="edge">
<title>64&#45;&gt;0</title>
<path fill="none" stroke="#c0c0c0" stroke-width="2" d="M304.51,-71.8314C318.7909,-62.5681 336.3205,-51.1975 351.5834,-41.2972"/>
<polygon fill="#c0c0c0" stroke="#c0c0c0" stroke-width="2" points="353.7815,-44.0434 360.2664,-35.665 349.9721,-38.1706 353.7815,-44.0434"/>
</g>
<!-- 65&#45;&gt;0 -->
<g id="edge3" class="edge">
<title>65&#45;&gt;0</title>
<path fill="none" stroke="#c0c0c0" stroke-width="2" d="M1275.5209,-1583.898C1254.3091,-1557.9361 1219.5,-1507.7525 1219.5,-1458 1219.5,-1458 1219.5,-1458 1219.5,-162 1219.5,-80.2298 587.4765,-31.6087 425.1417,-20.469"/>
<polygon fill="#c0c0c0" stroke="#c0c0c0" stroke-width="2" points="424.9233,-16.9462 414.7091,-19.7606 424.449,-23.9301 424.9233,-16.9462"/>
</g>
<!-- 66&#45;&gt;65 -->
<g id="edge112" class="edge">
<title>66&#45;&gt;65</title>
<path fill="none" stroke="#c0c0c0" stroke-width="2" d="M1200.2346,-1727.7857C1211.0552,-1717.7688 1224.156,-1704.8028 1234.5,-1692 1250.6084,-1672.0627 1265.9807,-1647.336 1276.6931,-1628.8483"/>
<polygon fill="#c0c0c0" stroke="#c0c0c0" stroke-width="2" points="1279.7886,-1630.4854 1281.7047,-1620.0653 1273.7088,-1627.0162 1279.7886,-1630.4854"/>
</g>
<!-- 66&#45;&gt;69 -->
<g id="edge121" class="edge">
<title>66&#45;&gt;69</title>
<path fill="none" stroke="#c0c0c0" stroke-width="2" d="M1179.7523,-1727.8314C1179.8593,-1720.131 1179.9865,-1710.9743 1180.1053,-1702.4166"/>
<polygon fill="#c0c0c0" stroke="#c0c0c0" stroke-width="2" points="1183.6049,-1702.4609 1180.2443,-1692.4133 1176.6056,-1702.3637 1183.6049,-1702.4609"/>
</g>
<!-- 67&#45;&gt;65 -->
<g id="edge114" class="edge">
<title>67&#45;&gt;65</title>
<path fill="none" stroke="#c0c0c0" stroke-width="2" d="M1290.6267,-1727.7623C1290.7972,-1703.201 1291.1024,-1659.2474 1291.3031,-1630.3541"/>
<polygon fill="#c0c0c0" stroke="#c0c0c0" stroke-width="2" points="1294.8048,-1630.1137 1291.3744,-1620.0896 1287.8049,-1630.065 1294.8048,-1630.1137"/>
</g>
<!-- 67&#45;&gt;69 -->
<g id="edge122" class="edge">
<title>67&#45;&gt;69</title>
<path fill="none" stroke="#c0c0c0" stroke-width="2" d="M1262.7424,-1727.8314C1248.803,-1718.7074 1231.7402,-1707.539 1216.7769,-1697.7449"/>
<polygon fill="#c0c0c0" stroke="#c0c0c0" stroke-width="2" points="1218.5326,-1694.711 1208.2488,-1692.1628 1214.699,-1700.5679 1218.5326,-1694.711"/>
</g>
<!-- 68&#45;&gt;65 -->
<g id="edge110" class="edge">
<title>68&#45;&gt;65</title>
<path fill="none" stroke="#c0c0c0" stroke-width="2" d="M1424.644,-2015.9265C1430.5021,-1988.7528 1440.5,-1935.6844 1440.5,-1890 1440.5,-1890 1440.5,-1890 1440.5,-1746 1440.5,-1689.5764 1384.5705,-1648.2384 1341.2443,-1624.6804"/>
<polygon fill="#c0c0c0" stroke="#c0c0c0" stroke-width="2" points="1342.6937,-1621.488 1332.2149,-1619.9242 1339.4314,-1627.6814 1342.6937,-1621.488"/>
</g>
<!-- 69&#45;&gt;65 -->
<g id="edge109" class="edge">
<title>69&#45;&gt;65</title>
<path fill="none" stroke="#c0c0c0" stroke-width="2" d="M1208.51,-1655.8314C1222.5761,-1646.7074 1239.794,-1635.539 1254.8933,-1625.7449"/>
<polygon fill="#c0c0c0" stroke="#c0c0c0" stroke-width="2" points="1257.014,-1628.5412 1263.499,-1620.1628 1253.2047,-1622.6684 1257.014,-1628.5412"/>
</g>
</g>
</svg>
